<svg width="1200" height="900" viewBox="0 0 1200 900" fill="none" xmlns="http://www.w3.org/2000/svg">
<g clip-path="url(#clip0_1326_28)">
<path d="M1200 0H0V900H1200V0Z" fill="#EAF4F7"/>
<path opacity="0.5" d="M980 420C1123.59 420 1240 303.594 1240 160C1240 16.406 1123.59 -100 980 -100C836.406 -100 720 16.406 720 160C720 303.594 836.406 420 980 420Z" fill="#C8E3EB"/>
<path opacity="0.12" d="M1100 980C1199.41 980 1280 899.411 1280 800C1280 700.589 1199.41 620 1100 620C1000.59 620 920 700.589 920 800C920 899.411 1000.59 980 1100 980Z" fill="#5B9EB0"/>
<path opacity="0.3" d="M80 890C157.32 890 220 827.32 220 750C220 672.68 157.32 610 80 610C2.68014 610 -60 672.68 -60 750C-60 827.32 2.68014 890 80 890Z" fill="#C8E3EB"/>
<path opacity="0.25" d="M100 420H700" stroke="#5B9EB0" stroke-width="1.5"/>
<path opacity="0.25" d="M100 480H600" stroke="#5B9EB0" stroke-width="1.5"/>
<path opacity="0.25" d="M100 540H650" stroke="#5B9EB0" stroke-width="1.5"/>
<path d="M106 223C106 221.343 104.657 220 103 220C101.343 220 100 221.343 100 223V337C100 338.657 101.343 340 103 340C104.657 340 106 338.657 106 337V223Z" fill="#5B9EB0"/>
<path d="M140.594 182H138.563L144.438 166H146.438L152.313 182H150.281L145.5 168.531H145.375L140.594 182ZM141.344 175.75H149.531V177.469H141.344V175.75ZM156.742 166V182H154.805V166H156.742ZM166.814 182V166H168.752V180.281H176.189V182H166.814ZM192.066 174C192.066 175.687 191.762 177.146 191.152 178.375C190.543 179.604 189.707 180.552 188.645 181.219C187.582 181.885 186.368 182.219 185.004 182.219C183.639 182.219 182.426 181.885 181.363 181.219C180.301 180.552 179.465 179.604 178.855 178.375C178.246 177.146 177.941 175.687 177.941 174C177.941 172.312 178.246 170.854 178.855 169.625C179.465 168.396 180.301 167.448 181.363 166.781C182.426 166.115 183.639 165.781 185.004 165.781C186.368 165.781 187.582 166.115 188.645 166.781C189.707 167.448 190.543 168.396 191.152 169.625C191.762 170.854 192.066 172.312 192.066 174ZM190.191 174C190.191 172.615 189.96 171.445 189.496 170.492C189.038 169.539 188.415 168.818 187.629 168.328C186.848 167.839 185.973 167.594 185.004 167.594C184.035 167.594 183.158 167.839 182.371 168.328C181.59 168.818 180.967 169.539 180.504 170.492C180.046 171.445 179.816 172.615 179.816 174C179.816 175.385 180.046 176.555 180.504 177.508C180.967 178.461 181.59 179.182 182.371 179.672C183.158 180.161 184.035 180.406 185.004 180.406C185.973 180.406 186.848 180.161 187.629 179.672C188.415 179.182 189.038 178.461 189.496 177.508C189.96 176.555 190.191 175.385 190.191 174ZM208.199 171H206.262C206.147 170.443 205.947 169.953 205.66 169.531C205.379 169.109 205.035 168.755 204.629 168.469C204.228 168.177 203.783 167.958 203.293 167.812C202.803 167.667 202.293 167.594 201.762 167.594C200.793 167.594 199.915 167.839 199.129 168.328C198.348 168.818 197.725 169.539 197.262 170.492C196.803 171.445 196.574 172.615 196.574 174C196.574 175.385 196.803 176.555 197.262 177.508C197.725 178.461 198.348 179.182 199.129 179.672C199.915 180.161 200.793 180.406 201.762 180.406C202.293 180.406 202.803 180.333 203.293 180.187C203.783 180.042 204.228 179.826 204.629 179.539C205.035 179.247 205.379 178.891 205.66 178.469C205.947 178.042 206.147 177.552 206.262 177H208.199C208.053 177.818 207.788 178.549 207.402 179.195C207.017 179.841 206.538 180.391 205.965 180.844C205.392 181.292 204.749 181.633 204.035 181.867C203.327 182.102 202.569 182.219 201.762 182.219C200.397 182.219 199.184 181.885 198.121 181.219C197.059 180.552 196.223 179.604 195.613 178.375C195.004 177.146 194.699 175.687 194.699 174C194.699 172.312 195.004 170.854 195.613 169.625C196.223 168.396 197.059 167.448 198.121 166.781C199.184 166.115 200.397 165.781 201.762 165.781C202.569 165.781 203.327 165.898 204.035 166.133C204.749 166.367 205.392 166.711 205.965 167.164C206.538 167.612 207.017 168.159 207.402 168.805C207.788 169.445 208.053 170.177 208.199 171ZM211.986 182H209.955L215.83 166H217.83L223.705 182H221.674L216.893 168.531H216.768L211.986 182ZM212.736 175.75H220.924V177.469H212.736V175.75ZM226.197 182V166H228.135V180.281H235.572V182H226.197ZM240.51 166V182H238.572V166H240.51ZM243.863 182V180.594L252.488 167.719H243.77V166H254.801V167.406L246.176 180.281H254.895V182H243.863ZM258.801 182H256.77L262.645 166H264.645L270.52 182H268.488L263.707 168.531H263.582L258.801 182ZM259.551 175.75H267.738V177.469H259.551V175.75ZM270.268 167.719V166H282.268V167.719H277.236V182H275.299V167.719H270.268ZM287.195 166V182H285.258V166H287.195ZM304.58 174C304.58 175.687 304.275 177.146 303.666 178.375C303.057 179.604 302.221 180.552 301.158 181.219C300.096 181.885 298.882 182.219 297.518 182.219C296.153 182.219 294.939 181.885 293.877 181.219C292.814 180.552 291.979 179.604 291.369 178.375C290.76 177.146 290.455 175.687 290.455 174C290.455 172.312 290.76 170.854 291.369 169.625C291.979 168.396 292.814 167.448 293.877 166.781C294.939 166.115 296.153 165.781 297.518 165.781C298.882 165.781 300.096 166.115 301.158 166.781C302.221 167.448 303.057 168.396 303.666 169.625C304.275 170.854 304.58 172.312 304.58 174ZM302.705 174C302.705 172.615 302.473 171.445 302.01 170.492C301.551 169.539 300.929 168.818 300.143 168.328C299.361 167.839 298.486 167.594 297.518 167.594C296.549 167.594 295.671 167.839 294.885 168.328C294.104 168.818 293.481 169.539 293.018 170.492C292.559 171.445 292.33 172.615 292.33 174C292.33 175.385 292.559 176.555 293.018 177.508C293.481 178.461 294.104 179.182 294.885 179.672C295.671 180.161 296.549 180.406 297.518 180.406C298.486 180.406 299.361 180.161 300.143 179.672C300.929 179.182 301.551 178.461 302.01 177.508C302.473 176.555 302.705 175.385 302.705 174ZM320.525 166V182H318.65L309.932 169.437H309.775V182H307.838V166H309.713L318.463 178.594H318.619V166H320.525ZM331.684 176.406C331.298 176.406 330.967 176.268 330.691 175.992C330.415 175.716 330.277 175.385 330.277 175C330.277 174.615 330.415 174.284 330.691 174.008C330.967 173.732 331.298 173.594 331.684 173.594C332.069 173.594 332.4 173.732 332.676 174.008C332.952 174.284 333.09 174.615 333.09 175C333.09 175.255 333.025 175.49 332.895 175.703C332.77 175.917 332.6 176.089 332.387 176.219C332.178 176.344 331.944 176.406 331.684 176.406ZM348.648 177H350.773L352.555 179.344L353.023 179.969L355.68 183.5H353.555L351.805 181.156L351.367 180.562L348.648 177ZM356.336 174C356.336 175.687 356.031 177.146 355.422 178.375C354.813 179.604 353.977 180.552 352.914 181.219C351.852 181.885 350.638 182.219 349.273 182.219C347.909 182.219 346.695 181.885 345.633 181.219C344.57 180.552 343.734 179.604 343.125 178.375C342.516 177.146 342.211 175.687 342.211 174C342.211 172.312 342.516 170.854 343.125 169.625C343.734 168.396 344.57 167.448 345.633 166.781C346.695 166.115 347.909 165.781 349.273 165.781C350.638 165.781 351.852 166.115 352.914 166.781C353.977 167.448 354.813 168.396 355.422 169.625C356.031 170.854 356.336 172.312 356.336 174ZM354.461 174C354.461 172.615 354.229 171.445 353.766 170.492C353.307 169.539 352.685 168.818 351.898 168.328C351.117 167.839 350.242 167.594 349.273 167.594C348.305 167.594 347.427 167.839 346.641 168.328C345.859 168.818 345.237 169.539 344.773 170.492C344.315 171.445 344.086 172.615 344.086 174C344.086 175.385 344.315 176.555 344.773 177.508C345.237 178.461 345.859 179.182 346.641 179.672C347.427 180.161 348.305 180.406 349.273 180.406C350.242 180.406 351.117 180.161 351.898 179.672C352.685 179.182 353.307 178.461 353.766 177.508C354.229 176.555 354.461 175.385 354.461 174ZM370.094 166H372.031V176.594C372.031 177.687 371.773 178.664 371.258 179.523C370.747 180.378 370.026 181.052 369.094 181.547C368.161 182.036 367.068 182.281 365.813 182.281C364.557 182.281 363.464 182.036 362.531 181.547C361.599 181.052 360.875 180.378 360.359 179.523C359.849 178.664 359.594 177.687 359.594 176.594V166H361.531V176.438C361.531 177.219 361.703 177.914 362.047 178.523C362.391 179.128 362.88 179.604 363.516 179.953C364.156 180.297 364.922 180.469 365.813 180.469C366.703 180.469 367.469 180.297 368.109 179.953C368.75 179.604 369.24 179.128 369.578 178.523C369.922 177.914 370.094 177.219 370.094 176.438V166ZM376.557 182H374.525L380.4 166H382.4L388.275 182H386.244L381.463 168.531H381.338L376.557 182ZM377.307 175.75H385.494V177.469H377.307V175.75ZM390.768 182V166H392.705V180.281H400.143V182H390.768ZM405.08 166V182H403.143V166H405.08ZM408.09 167.719V166H420.09V167.719H415.059V182H413.121V167.719H408.09ZM421.705 166H423.924L428.361 173.469H428.549L432.986 166H435.205L429.424 175.406V182H427.486V175.406L421.705 166ZM444.555 182H442.523L448.398 166H450.398L456.273 182H454.242L449.461 168.531H449.336L444.555 182ZM445.305 175.75H453.492V177.469H445.305V175.75ZM467.516 170C467.422 169.208 467.042 168.594 466.375 168.156C465.708 167.719 464.891 167.5 463.922 167.5C463.214 167.5 462.594 167.615 462.063 167.844C461.536 168.073 461.125 168.388 460.828 168.789C460.536 169.19 460.391 169.646 460.391 170.156C460.391 170.583 460.492 170.951 460.695 171.258C460.904 171.56 461.169 171.812 461.492 172.016C461.815 172.214 462.154 172.378 462.508 172.508C462.862 172.633 463.188 172.734 463.484 172.812L465.109 173.25C465.526 173.359 465.99 173.51 466.5 173.703C467.016 173.896 467.508 174.159 467.977 174.492C468.451 174.82 468.841 175.242 469.148 175.758C469.456 176.273 469.609 176.906 469.609 177.656C469.609 178.521 469.383 179.302 468.93 180C468.482 180.698 467.826 181.253 466.961 181.664C466.102 182.076 465.057 182.281 463.828 182.281C462.682 182.281 461.69 182.096 460.852 181.727C460.018 181.357 459.362 180.841 458.883 180.18C458.409 179.518 458.141 178.75 458.078 177.875H460.078C460.13 178.479 460.333 178.979 460.688 179.375C461.047 179.766 461.5 180.057 462.047 180.25C462.599 180.437 463.193 180.531 463.828 180.531C464.568 180.531 465.232 180.411 465.82 180.172C466.409 179.927 466.875 179.589 467.219 179.156C467.563 178.719 467.734 178.208 467.734 177.625C467.734 177.094 467.586 176.661 467.289 176.328C466.992 175.995 466.602 175.724 466.117 175.516C465.633 175.307 465.109 175.125 464.547 174.969L462.578 174.406C461.328 174.047 460.339 173.534 459.609 172.867C458.88 172.201 458.516 171.328 458.516 170.25C458.516 169.354 458.758 168.573 459.242 167.906C459.732 167.234 460.388 166.714 461.211 166.344C462.039 165.969 462.964 165.781 463.984 165.781C465.016 165.781 465.932 165.966 466.734 166.336C467.536 166.701 468.172 167.201 468.641 167.836C469.115 168.471 469.365 169.193 469.391 170H467.516ZM481.545 170C481.451 169.208 481.071 168.594 480.404 168.156C479.738 167.719 478.92 167.5 477.951 167.5C477.243 167.5 476.623 167.615 476.092 167.844C475.566 168.073 475.154 168.388 474.857 168.789C474.566 169.19 474.42 169.646 474.42 170.156C474.42 170.583 474.521 170.951 474.725 171.258C474.933 171.56 475.199 171.812 475.521 172.016C475.844 172.214 476.183 172.378 476.537 172.508C476.891 172.633 477.217 172.734 477.514 172.812L479.139 173.25C479.555 173.359 480.019 173.51 480.529 173.703C481.045 173.896 481.537 174.159 482.006 174.492C482.48 174.82 482.87 175.242 483.178 175.758C483.485 176.273 483.639 176.906 483.639 177.656C483.639 178.521 483.412 179.302 482.959 180C482.511 180.698 481.855 181.253 480.99 181.664C480.131 182.076 479.087 182.281 477.857 182.281C476.712 182.281 475.719 182.096 474.881 181.727C474.048 181.357 473.391 180.841 472.912 180.18C472.438 179.518 472.17 178.75 472.107 177.875H474.107C474.16 178.479 474.363 178.979 474.717 179.375C475.076 179.766 475.529 180.057 476.076 180.25C476.628 180.437 477.222 180.531 477.857 180.531C478.597 180.531 479.261 180.411 479.85 180.172C480.438 179.927 480.904 179.589 481.248 179.156C481.592 178.719 481.764 178.208 481.764 177.625C481.764 177.094 481.615 176.661 481.318 176.328C481.021 175.995 480.631 175.724 480.146 175.516C479.662 175.307 479.139 175.125 478.576 174.969L476.607 174.406C475.357 174.047 474.368 173.534 473.639 172.867C472.91 172.201 472.545 171.328 472.545 170.25C472.545 169.354 472.787 168.573 473.271 167.906C473.761 167.234 474.417 166.714 475.24 166.344C476.068 165.969 476.993 165.781 478.014 165.781C479.045 165.781 479.962 165.966 480.764 166.336C481.566 166.701 482.201 167.201 482.67 167.836C483.144 168.471 483.394 169.193 483.42 170H481.545ZM497.324 166H499.262V176.594C499.262 177.687 499.004 178.664 498.488 179.523C497.978 180.378 497.257 181.052 496.324 181.547C495.392 182.036 494.298 182.281 493.043 182.281C491.788 182.281 490.694 182.036 489.762 181.547C488.829 181.052 488.105 180.378 487.59 179.523C487.079 178.664 486.824 177.687 486.824 176.594V166H488.762V176.438C488.762 177.219 488.934 177.914 489.277 178.523C489.621 179.128 490.111 179.604 490.746 179.953C491.387 180.297 492.152 180.469 493.043 180.469C493.934 180.469 494.699 180.297 495.34 179.953C495.98 179.604 496.47 179.128 496.809 178.523C497.152 177.914 497.324 177.219 497.324 176.438V166ZM503.131 182V166H508.537C509.787 166 510.813 166.214 511.615 166.641C512.417 167.062 513.011 167.643 513.396 168.383C513.782 169.122 513.975 169.964 513.975 170.906C513.975 171.849 513.782 172.685 513.396 173.414C513.011 174.143 512.42 174.716 511.623 175.133C510.826 175.544 509.808 175.75 508.568 175.75H504.193V174H508.506C509.36 174 510.048 173.875 510.568 173.625C511.094 173.375 511.475 173.021 511.709 172.562C511.949 172.099 512.068 171.547 512.068 170.906C512.068 170.266 511.949 169.706 511.709 169.227C511.469 168.747 511.087 168.378 510.561 168.117C510.035 167.852 509.339 167.719 508.475 167.719H505.068V182H503.131ZM510.662 174.812L514.6 182H512.35L508.475 174.812H510.662ZM517.859 182H515.828L521.703 166H523.703L529.578 182H527.547L522.766 168.531H522.641L517.859 182ZM518.609 175.75H526.797V177.469H518.609V175.75ZM544.758 166V182H542.883L534.164 169.437H534.008V182H532.07V166H533.945L542.695 178.594H542.852V166H544.758ZM561.51 171H559.572C559.458 170.443 559.257 169.953 558.971 169.531C558.689 169.109 558.346 168.755 557.939 168.469C557.538 168.177 557.093 167.958 556.604 167.812C556.114 167.667 555.604 167.594 555.072 167.594C554.104 167.594 553.226 167.839 552.439 168.328C551.658 168.818 551.036 169.539 550.572 170.492C550.114 171.445 549.885 172.615 549.885 174C549.885 175.385 550.114 176.555 550.572 177.508C551.036 178.461 551.658 179.182 552.439 179.672C553.226 180.161 554.104 180.406 555.072 180.406C555.604 180.406 556.114 180.333 556.604 180.187C557.093 180.042 557.538 179.826 557.939 179.539C558.346 179.247 558.689 178.891 558.971 178.469C559.257 178.042 559.458 177.552 559.572 177H561.51C561.364 177.818 561.098 178.549 560.713 179.195C560.327 179.841 559.848 180.391 559.275 180.844C558.702 181.292 558.059 181.633 557.346 181.867C556.637 182.102 555.88 182.219 555.072 182.219C553.708 182.219 552.494 181.885 551.432 181.219C550.369 180.552 549.533 179.604 548.924 178.375C548.314 177.146 548.01 175.687 548.01 174C548.01 172.312 548.314 170.854 548.924 169.625C549.533 168.396 550.369 167.448 551.432 166.781C552.494 166.115 553.708 165.781 555.072 165.781C555.88 165.781 556.637 165.898 557.346 166.133C558.059 166.367 558.702 166.711 559.275 167.164C559.848 167.612 560.327 168.159 560.713 168.805C561.098 169.445 561.364 170.177 561.51 171ZM564.641 182V166H574.297V167.719H566.578V173.125H573.797V174.844H566.578V180.281H574.422V182H564.641Z" fill="#3D8096"/>
<path d="M144.341 227.636H151.909L169.705 271.102H170.318L188.114 227.636H195.682V280H189.75V240.216H189.239L172.875 280H167.148L150.784 240.216H150.273V280H144.341V227.636ZM232.327 263.943V240.727H238.362V280H232.327V273.352H231.918C230.998 275.347 229.566 277.043 227.623 278.44C225.68 279.821 223.225 280.511 220.259 280.511C217.805 280.511 215.623 279.974 213.714 278.901C211.805 277.81 210.305 276.173 209.214 273.991C208.123 271.793 207.577 269.023 207.577 265.682V240.727H213.612V265.273C213.612 268.136 214.413 270.42 216.015 272.125C217.634 273.83 219.697 274.682 222.202 274.682C223.702 274.682 225.228 274.298 226.779 273.531C228.347 272.764 229.66 271.588 230.717 270.003C231.79 268.418 232.327 266.398 232.327 263.943ZM255.447 227.636V280H249.413V227.636H255.447ZM283.579 240.727V245.841H263.227V240.727H283.579ZM269.158 231.318H275.192V268.75C275.192 270.455 275.44 271.733 275.934 272.585C276.445 273.42 277.093 273.983 277.877 274.273C278.678 274.545 279.522 274.682 280.408 274.682C281.073 274.682 281.619 274.648 282.045 274.58C282.471 274.494 282.812 274.426 283.067 274.375L284.295 279.795C283.886 279.949 283.315 280.102 282.582 280.256C281.849 280.426 280.92 280.511 279.795 280.511C278.09 280.511 276.42 280.145 274.783 279.412C273.164 278.679 271.817 277.562 270.744 276.062C269.687 274.562 269.158 272.67 269.158 270.386V231.318ZM292.656 280V240.727H298.69V280H292.656ZM295.724 234.182C294.548 234.182 293.533 233.781 292.681 232.98C291.846 232.179 291.428 231.216 291.428 230.091C291.428 228.966 291.846 228.003 292.681 227.202C293.533 226.401 294.548 226 295.724 226C296.9 226 297.906 226.401 298.741 227.202C299.593 228.003 300.019 228.966 300.019 230.091C300.019 231.216 299.593 232.179 298.741 232.98C297.906 233.781 296.9 234.182 295.724 234.182ZM315.776 227.636V280H309.741V227.636H315.776ZM326.827 280V240.727H332.862V280H326.827ZM329.896 234.182C328.719 234.182 327.705 233.781 326.853 232.98C326.018 232.179 325.6 231.216 325.6 230.091C325.6 228.966 326.018 228.003 326.853 227.202C327.705 226.401 328.719 226 329.896 226C331.072 226 332.077 226.401 332.913 227.202C333.765 228.003 334.191 228.966 334.191 230.091C334.191 231.216 333.765 232.179 332.913 232.98C332.077 233.781 331.072 234.182 329.896 234.182ZM349.947 256.375V280H343.913V240.727H349.743V246.864H350.254C351.175 244.869 352.572 243.267 354.447 242.057C356.322 240.83 358.743 240.216 361.709 240.216C364.368 240.216 366.695 240.761 368.689 241.852C370.683 242.926 372.234 244.562 373.342 246.761C374.45 248.943 375.004 251.705 375.004 255.045V280H368.97V255.455C368.97 252.369 368.169 249.966 366.567 248.244C364.964 246.506 362.766 245.636 359.97 245.636C358.044 245.636 356.322 246.054 354.805 246.889C353.305 247.724 352.121 248.943 351.251 250.545C350.382 252.148 349.947 254.091 349.947 256.375ZM401.883 295.545C398.968 295.545 396.462 295.17 394.366 294.42C392.269 293.688 390.522 292.716 389.124 291.506C387.744 290.313 386.644 289.034 385.826 287.67L390.633 284.295C391.178 285.011 391.869 285.83 392.704 286.75C393.539 287.688 394.681 288.497 396.13 289.179C397.596 289.878 399.513 290.227 401.883 290.227C405.053 290.227 407.67 289.46 409.732 287.926C411.795 286.392 412.826 283.989 412.826 280.716V272.739H412.315C411.871 273.455 411.241 274.341 410.423 275.398C409.621 276.438 408.462 277.366 406.945 278.185C405.445 278.986 403.417 279.386 400.86 279.386C397.69 279.386 394.843 278.636 392.32 277.136C389.815 275.636 387.829 273.455 386.363 270.591C384.914 267.727 384.19 264.25 384.19 260.159C384.19 256.136 384.897 252.634 386.312 249.651C387.727 246.651 389.695 244.332 392.218 242.696C394.741 241.043 397.656 240.216 400.962 240.216C403.519 240.216 405.548 240.642 407.048 241.494C408.565 242.33 409.724 243.284 410.525 244.358C411.343 245.415 411.974 246.284 412.417 246.966H413.031V240.727H418.86V281.125C418.86 284.5 418.093 287.244 416.559 289.358C415.042 291.489 412.996 293.048 410.423 294.037C407.866 295.043 405.019 295.545 401.883 295.545ZM401.678 273.966C404.099 273.966 406.144 273.412 407.815 272.304C409.485 271.196 410.755 269.602 411.624 267.523C412.494 265.443 412.928 262.955 412.928 260.057C412.928 257.227 412.502 254.73 411.65 252.565C410.798 250.401 409.536 248.705 407.866 247.477C406.195 246.25 404.133 245.636 401.678 245.636C399.121 245.636 396.991 246.284 395.286 247.58C393.599 248.875 392.329 250.614 391.477 252.795C390.641 254.977 390.224 257.398 390.224 260.057C390.224 262.784 390.65 265.196 391.502 267.293C392.371 269.372 393.65 271.009 395.337 272.202C397.042 273.378 399.156 273.966 401.678 273.966ZM454.656 263.943V240.727H460.69V280H454.656V273.352H454.246C453.326 275.347 451.894 277.043 449.951 278.44C448.008 279.821 445.553 280.511 442.587 280.511C440.133 280.511 437.951 279.974 436.042 278.901C434.133 277.81 432.633 276.173 431.542 273.991C430.451 271.793 429.906 269.023 429.906 265.682V240.727H435.94V265.273C435.94 268.136 436.741 270.42 438.343 272.125C439.962 273.83 442.025 274.682 444.531 274.682C446.031 274.682 447.556 274.298 449.107 273.531C450.675 272.764 451.988 271.588 453.045 270.003C454.119 268.418 454.656 266.398 454.656 263.943ZM483.298 280.92C480.81 280.92 478.551 280.452 476.523 279.514C474.494 278.56 472.884 277.188 471.69 275.398C470.497 273.591 469.901 271.409 469.901 268.852C469.901 266.602 470.344 264.778 471.23 263.381C472.116 261.966 473.301 260.858 474.784 260.057C476.267 259.256 477.903 258.659 479.693 258.267C481.5 257.858 483.315 257.534 485.139 257.295C487.526 256.989 489.46 256.759 490.943 256.605C492.443 256.435 493.534 256.153 494.216 255.761C494.915 255.369 495.264 254.687 495.264 253.716V253.511C495.264 250.989 494.574 249.028 493.193 247.631C491.83 246.233 489.759 245.534 486.98 245.534C484.099 245.534 481.841 246.165 480.205 247.426C478.568 248.687 477.418 250.034 476.753 251.466L471.026 249.42C472.048 247.034 473.412 245.176 475.116 243.847C476.838 242.5 478.713 241.562 480.741 241.034C482.787 240.489 484.798 240.216 486.776 240.216C488.037 240.216 489.486 240.369 491.122 240.676C492.776 240.966 494.369 241.571 495.903 242.491C497.455 243.412 498.741 244.801 499.764 246.659C500.787 248.517 501.298 251.006 501.298 254.125V280H495.264V274.682H494.957C494.548 275.534 493.866 276.446 492.912 277.418C491.957 278.389 490.688 279.216 489.102 279.898C487.517 280.58 485.582 280.92 483.298 280.92ZM484.219 275.5C486.605 275.5 488.616 275.031 490.253 274.094C491.906 273.156 493.151 271.946 493.986 270.463C494.838 268.98 495.264 267.42 495.264 265.784V260.261C495.009 260.568 494.446 260.849 493.577 261.105C492.724 261.344 491.736 261.557 490.611 261.744C489.503 261.915 488.42 262.068 487.364 262.205C486.324 262.324 485.48 262.426 484.832 262.511C483.264 262.716 481.798 263.048 480.435 263.509C479.088 263.952 477.997 264.625 477.162 265.528C476.344 266.415 475.935 267.625 475.935 269.159C475.935 271.256 476.71 272.841 478.261 273.915C479.83 274.972 481.815 275.5 484.219 275.5ZM518.346 227.636V280H512.312V227.636H518.346ZM552.614 280H545.966L565.193 227.636H571.739L590.966 280H584.318L568.67 235.92H568.261L552.614 280ZM555.068 259.545H581.864V265.17H555.068V259.545ZM605.463 227.636V280H599.122V227.636H605.463Z" fill="#33303A"/>
<path d="M160.5 360H144.341V307.636H161.216C166.295 307.636 170.642 308.685 174.256 310.781C177.869 312.861 180.639 315.852 182.565 319.756C184.491 323.642 185.455 328.295 185.455 333.716C185.455 339.17 184.483 343.866 182.54 347.804C180.597 351.724 177.767 354.741 174.051 356.855C170.335 358.952 165.818 360 160.5 360ZM150.682 354.375H160.091C164.42 354.375 168.009 353.54 170.855 351.869C173.702 350.199 175.824 347.821 177.222 344.736C178.619 341.651 179.318 337.977 179.318 333.716C179.318 329.489 178.628 325.849 177.247 322.798C175.866 319.73 173.804 317.378 171.06 315.741C168.315 314.088 164.898 313.261 160.807 313.261H150.682V354.375ZM206.83 360.92C204.341 360.92 202.082 360.452 200.054 359.514C198.026 358.56 196.415 357.188 195.222 355.398C194.028 353.591 193.432 351.409 193.432 348.852C193.432 346.602 193.875 344.778 194.761 343.381C195.648 341.966 196.832 340.858 198.315 340.057C199.798 339.256 201.435 338.659 203.224 338.267C205.031 337.858 206.847 337.534 208.67 337.295C211.057 336.989 212.991 336.759 214.474 336.605C215.974 336.435 217.065 336.153 217.747 335.761C218.446 335.369 218.795 334.687 218.795 333.716V333.511C218.795 330.989 218.105 329.028 216.724 327.631C215.361 326.233 213.29 325.534 210.511 325.534C207.631 325.534 205.372 326.165 203.736 327.426C202.099 328.687 200.949 330.034 200.284 331.466L194.557 329.42C195.58 327.034 196.943 325.176 198.648 323.847C200.369 322.5 202.244 321.562 204.273 321.034C206.318 320.489 208.33 320.216 210.307 320.216C211.568 320.216 213.017 320.369 214.653 320.676C216.307 320.966 217.901 321.571 219.435 322.491C220.986 323.412 222.273 324.801 223.295 326.659C224.318 328.517 224.83 331.006 224.83 334.125V360H218.795V354.682H218.489C218.08 355.534 217.398 356.446 216.443 357.418C215.489 358.389 214.219 359.216 212.634 359.898C211.048 360.58 209.114 360.92 206.83 360.92ZM207.75 355.5C210.136 355.5 212.148 355.031 213.784 354.094C215.438 353.156 216.682 351.946 217.517 350.463C218.369 348.98 218.795 347.42 218.795 345.784V340.261C218.54 340.568 217.977 340.849 217.108 341.105C216.256 341.344 215.267 341.557 214.142 341.744C213.034 341.915 211.952 342.068 210.895 342.205C209.855 342.324 209.011 342.426 208.364 342.511C206.795 342.716 205.33 343.048 203.966 343.509C202.619 343.952 201.528 344.625 200.693 345.528C199.875 346.415 199.466 347.625 199.466 349.159C199.466 351.256 200.241 352.841 201.793 353.915C203.361 354.972 205.347 355.5 207.75 355.5ZM252.923 320.727V325.841H232.57V320.727H252.923ZM238.502 311.318H244.536V348.75C244.536 350.455 244.783 351.733 245.278 352.585C245.789 353.42 246.437 353.983 247.221 354.273C248.022 354.545 248.866 354.682 249.752 354.682C250.417 354.682 250.962 354.648 251.388 354.58C251.815 354.494 252.156 354.426 252.411 354.375L253.638 359.795C253.229 359.949 252.658 360.102 251.925 360.256C251.192 360.426 250.263 360.511 249.138 360.511C247.434 360.511 245.763 360.145 244.127 359.412C242.508 358.679 241.161 357.562 240.087 356.062C239.031 354.562 238.502 352.67 238.502 350.386V311.318ZM273.556 360.92C271.067 360.92 268.809 360.452 266.781 359.514C264.752 358.56 263.141 357.188 261.948 355.398C260.755 353.591 260.158 351.409 260.158 348.852C260.158 346.602 260.602 344.778 261.488 343.381C262.374 341.966 263.559 340.858 265.042 340.057C266.525 339.256 268.161 338.659 269.951 338.267C271.758 337.858 273.573 337.534 275.397 337.295C277.783 336.989 279.718 336.759 281.201 336.605C282.701 336.435 283.792 336.153 284.474 335.761C285.173 335.369 285.522 334.687 285.522 333.716V333.511C285.522 330.989 284.832 329.028 283.451 327.631C282.087 326.233 280.016 325.534 277.238 325.534C274.357 325.534 272.099 326.165 270.462 327.426C268.826 328.687 267.675 330.034 267.011 331.466L261.283 329.42C262.306 327.034 263.67 325.176 265.374 323.847C267.096 322.5 268.971 321.562 270.999 321.034C273.045 320.489 275.056 320.216 277.033 320.216C278.295 320.216 279.744 320.369 281.38 320.676C283.033 320.966 284.627 321.571 286.161 322.491C287.712 323.412 288.999 324.801 290.022 326.659C291.045 328.517 291.556 331.006 291.556 334.125V360H285.522V354.682H285.215C284.806 355.534 284.124 356.446 283.17 357.418C282.215 358.389 280.945 359.216 279.36 359.898C277.775 360.58 275.84 360.92 273.556 360.92ZM274.477 355.5C276.863 355.5 278.874 355.031 280.511 354.094C282.164 353.156 283.408 351.946 284.244 350.463C285.096 348.98 285.522 347.42 285.522 345.784V340.261C285.266 340.568 284.704 340.849 283.835 341.105C282.982 341.344 281.994 341.557 280.869 341.744C279.761 341.915 278.678 342.068 277.621 342.205C276.582 342.324 275.738 342.426 275.09 342.511C273.522 342.716 272.056 343.048 270.692 343.509C269.346 343.952 268.255 344.625 267.42 345.528C266.602 346.415 266.192 347.625 266.192 349.159C266.192 351.256 266.968 352.841 268.519 353.915C270.087 354.972 272.073 355.5 274.477 355.5ZM342.661 343.636H349.615L355.445 351.307L356.979 353.352L365.672 364.909H358.717L352.99 357.239L351.558 355.295L342.661 343.636ZM367.82 333.818C367.82 339.341 366.822 344.114 364.828 348.136C362.834 352.159 360.098 355.261 356.621 357.443C353.143 359.625 349.172 360.716 344.706 360.716C340.24 360.716 336.268 359.625 332.791 357.443C329.314 355.261 326.578 352.159 324.584 348.136C322.589 344.114 321.592 339.341 321.592 333.818C321.592 328.295 322.589 323.523 324.584 319.5C326.578 315.477 329.314 312.375 332.791 310.193C336.268 308.011 340.24 306.92 344.706 306.92C349.172 306.92 353.143 308.011 356.621 310.193C360.098 312.375 362.834 315.477 364.828 319.5C366.822 323.523 367.82 328.295 367.82 333.818ZM361.683 333.818C361.683 329.284 360.925 325.457 359.408 322.338C357.908 319.219 355.871 316.858 353.297 315.256C350.74 313.653 347.876 312.852 344.706 312.852C341.536 312.852 338.663 313.653 336.089 315.256C333.533 316.858 331.496 319.219 329.979 322.338C328.479 325.457 327.729 329.284 327.729 333.818C327.729 338.352 328.479 342.179 329.979 345.298C331.496 348.418 333.533 350.778 336.089 352.381C338.663 353.983 341.536 354.784 344.706 354.784C347.876 354.784 350.74 353.983 353.297 352.381C355.871 350.778 357.908 348.418 359.408 345.298C360.925 342.179 361.683 338.352 361.683 333.818ZM402.413 343.943V320.727H408.447V360H402.413V353.352H402.004C401.084 355.347 399.652 357.043 397.709 358.44C395.766 359.821 393.311 360.511 390.345 360.511C387.891 360.511 385.709 359.974 383.8 358.901C381.891 357.81 380.391 356.173 379.3 353.991C378.209 351.793 377.663 349.023 377.663 345.682V320.727H383.697V345.273C383.697 348.136 384.499 350.42 386.101 352.125C387.72 353.83 389.783 354.682 392.288 354.682C393.788 354.682 395.314 354.298 396.865 353.531C398.433 352.764 399.746 351.588 400.803 350.003C401.876 348.418 402.413 346.398 402.413 343.943ZM431.056 360.92C428.567 360.92 426.309 360.452 424.281 359.514C422.252 358.56 420.641 357.188 419.448 355.398C418.255 353.591 417.658 351.409 417.658 348.852C417.658 346.602 418.102 344.778 418.988 343.381C419.874 341.966 421.059 340.858 422.542 340.057C424.025 339.256 425.661 338.659 427.451 338.267C429.258 337.858 431.073 337.534 432.897 337.295C435.283 336.989 437.218 336.759 438.701 336.605C440.201 336.435 441.292 336.153 441.974 335.761C442.673 335.369 443.022 334.687 443.022 333.716V333.511C443.022 330.989 442.332 329.028 440.951 327.631C439.587 326.233 437.516 325.534 434.738 325.534C431.857 325.534 429.599 326.165 427.962 327.426C426.326 328.687 425.175 330.034 424.511 331.466L418.783 329.42C419.806 327.034 421.17 325.176 422.874 323.847C424.596 322.5 426.471 321.562 428.499 321.034C430.545 320.489 432.556 320.216 434.533 320.216C435.795 320.216 437.244 320.369 438.88 320.676C440.533 320.966 442.127 321.571 443.661 322.491C445.212 323.412 446.499 324.801 447.522 326.659C448.545 328.517 449.056 331.006 449.056 334.125V360H443.022V354.682H442.715C442.306 355.534 441.624 356.446 440.67 357.418C439.715 358.389 438.445 359.216 436.86 359.898C435.275 360.58 433.34 360.92 431.056 360.92ZM431.977 355.5C434.363 355.5 436.374 355.031 438.011 354.094C439.664 353.156 440.908 351.946 441.744 350.463C442.596 348.98 443.022 347.42 443.022 345.784V340.261C442.766 340.568 442.204 340.849 441.335 341.105C440.482 341.344 439.494 341.557 438.369 341.744C437.261 341.915 436.178 342.068 435.121 342.205C434.082 342.324 433.238 342.426 432.59 342.511C431.022 342.716 429.556 343.048 428.192 343.509C426.846 343.952 425.755 344.625 424.92 345.528C424.102 346.415 423.692 347.625 423.692 349.159C423.692 351.256 424.468 352.841 426.019 353.915C427.587 354.972 429.573 355.5 431.977 355.5ZM466.104 307.636V360H460.07V307.636H466.104ZM477.156 360V320.727H483.19V360H477.156ZM480.224 314.182C479.048 314.182 478.033 313.781 477.181 312.98C476.346 312.179 475.928 311.216 475.928 310.091C475.928 308.966 476.346 308.003 477.181 307.202C478.033 306.401 479.048 306 480.224 306C481.4 306 482.406 306.401 483.241 307.202C484.093 308.003 484.519 308.966 484.519 310.091C484.519 311.216 484.093 312.179 483.241 312.98C482.406 313.781 481.4 314.182 480.224 314.182ZM511.321 320.727V325.841H490.969V320.727H511.321ZM496.901 311.318H502.935V348.75C502.935 350.455 503.182 351.733 503.676 352.585C504.188 353.42 504.835 353.983 505.619 354.273C506.42 354.545 507.264 354.682 508.151 354.682C508.815 354.682 509.361 354.648 509.787 354.58C510.213 354.494 510.554 354.426 510.81 354.375L512.037 359.795C511.628 359.949 511.057 360.102 510.324 360.256C509.591 360.426 508.662 360.511 507.537 360.511C505.832 360.511 504.162 360.145 502.526 359.412C500.906 358.679 499.56 357.562 498.486 356.062C497.429 354.562 496.901 352.67 496.901 350.386V311.318ZM524.284 374.727C523.261 374.727 522.349 374.642 521.548 374.472C520.747 374.318 520.193 374.165 519.886 374.011L521.42 368.693C522.886 369.068 524.182 369.205 525.307 369.102C526.432 369 527.429 368.497 528.298 367.594C529.185 366.707 529.994 365.267 530.727 363.273L531.852 360.205L517.33 320.727H523.875L534.716 352.023H535.125L545.966 320.727H552.511L535.841 365.727C535.091 367.756 534.162 369.435 533.054 370.764C531.946 372.111 530.659 373.108 529.193 373.756C527.744 374.403 526.108 374.727 524.284 374.727Z" fill="#33303A"/>
<path d="M101.074 594.824L101.392 592.795L112.688 578.636H114.159L113.642 581.778H112.648L104.097 592.477V592.636H116.148L115.79 594.824H101.074ZM109.943 599L110.739 594.188L110.898 593.273L113.324 578.636H115.67L112.29 599H109.943ZM126.715 599L129.26 583.727H131.527L131.13 586.034H131.289C131.686 585.278 132.293 584.665 133.108 584.195C133.924 583.724 134.789 583.489 135.703 583.489C135.882 583.489 136.098 583.492 136.35 583.499C136.602 583.499 136.797 583.509 136.936 583.528L136.539 585.915C136.459 585.895 136.28 585.865 136.002 585.825C135.723 585.779 135.425 585.756 135.107 585.756C134.364 585.756 133.678 585.911 133.049 586.223C132.419 586.528 131.892 586.952 131.468 587.496C131.043 588.033 130.772 588.646 130.652 589.335L129.061 599H126.715ZM143.086 599.318C141.621 599.318 140.412 598.993 139.457 598.344C138.502 597.688 137.836 596.773 137.458 595.599C137.081 594.42 137.021 593.047 137.279 591.483C137.538 589.919 138.052 588.54 138.821 587.347C139.59 586.147 140.547 585.212 141.694 584.543C142.841 583.866 144.1 583.528 145.473 583.528C146.268 583.528 147.034 583.661 147.77 583.926C148.505 584.191 149.142 584.622 149.679 585.219C150.216 585.809 150.59 586.591 150.802 587.565C151.014 588.54 151.001 589.74 150.762 591.165L150.603 592.159H138.831L139.149 590.131H148.535C148.688 589.269 148.648 588.5 148.416 587.824C148.19 587.148 147.796 586.614 147.233 586.223C146.676 585.832 145.97 585.636 145.115 585.636C144.233 585.636 143.411 585.875 142.649 586.352C141.886 586.823 141.25 587.42 140.74 588.142C140.229 588.858 139.911 589.587 139.785 590.33L139.507 592.08C139.308 593.346 139.338 594.353 139.596 595.102C139.861 595.851 140.322 596.392 140.978 596.723C141.635 597.048 142.457 597.21 143.444 597.21C144.074 597.21 144.654 597.124 145.184 596.952C145.715 596.773 146.189 596.508 146.606 596.156C147.024 595.798 147.375 595.354 147.66 594.824L149.808 595.46C149.443 596.229 148.93 596.905 148.267 597.489C147.61 598.065 146.842 598.516 145.96 598.841C145.085 599.159 144.127 599.318 143.086 599.318ZM158.284 605.045C157.144 605.045 156.19 604.9 155.421 604.608C154.652 604.323 154.035 603.945 153.571 603.474C153.107 603.01 152.756 602.513 152.517 601.983L154.625 600.67C154.784 600.949 154.99 601.267 155.242 601.625C155.494 601.99 155.875 602.304 156.385 602.57C156.902 602.841 157.628 602.977 158.563 602.977C159.789 602.977 160.863 602.679 161.784 602.082C162.706 601.486 163.276 600.551 163.495 599.278L163.972 596.176H163.773C163.561 596.455 163.266 596.799 162.888 597.21C162.51 597.615 162.003 597.976 161.367 598.294C160.73 598.606 159.915 598.761 158.921 598.761C157.681 598.761 156.621 598.47 155.739 597.886C154.857 597.303 154.224 596.455 153.84 595.341C153.462 594.227 153.406 592.875 153.671 591.284C153.929 589.72 154.426 588.357 155.162 587.197C155.905 586.031 156.819 585.129 157.907 584.493C158.994 583.85 160.18 583.528 161.466 583.528C162.461 583.528 163.223 583.694 163.753 584.026C164.29 584.35 164.681 584.722 164.926 585.139C165.172 585.55 165.357 585.888 165.483 586.153H165.722L166.12 583.727H168.387L165.801 599.438C165.583 600.75 165.109 601.817 164.38 602.639C163.65 603.468 162.756 604.074 161.695 604.459C160.634 604.85 159.498 605.045 158.284 605.045ZM159.517 596.653C160.452 596.653 161.284 596.438 162.013 596.007C162.749 595.576 163.359 594.956 163.843 594.148C164.327 593.339 164.661 592.371 164.847 591.244C165.033 590.144 165.019 589.173 164.807 588.331C164.595 587.489 164.194 586.83 163.604 586.352C163.021 585.875 162.255 585.636 161.307 585.636C160.306 585.636 159.441 585.888 158.712 586.392C157.989 586.896 157.403 587.572 156.952 588.42C156.501 589.269 156.19 590.21 156.017 591.244C155.845 592.305 155.852 593.243 156.037 594.058C156.223 594.867 156.601 595.503 157.171 595.967C157.748 596.425 158.53 596.653 159.517 596.653ZM170.137 599L172.682 583.727H175.029L172.483 599H170.137ZM174.571 581.142C174.114 581.142 173.72 580.986 173.388 580.675C173.063 580.363 172.901 579.989 172.901 579.551C172.901 579.114 173.063 578.739 173.388 578.428C173.72 578.116 174.114 577.96 174.571 577.96C175.029 577.96 175.42 578.116 175.745 578.428C176.076 578.739 176.242 579.114 176.242 579.551C176.242 579.989 176.076 580.363 175.745 580.675C175.42 580.986 175.029 581.142 174.571 581.142ZM183.085 599.318C181.68 599.318 180.503 598.983 179.555 598.314C178.607 597.644 177.938 596.706 177.547 595.5C177.162 594.294 177.099 592.888 177.358 591.284C177.61 589.72 178.11 588.357 178.859 587.197C179.615 586.031 180.553 585.129 181.673 584.493C182.8 583.85 184.04 583.528 185.392 583.528C186.797 583.528 187.971 583.866 188.912 584.543C189.86 585.212 190.529 586.153 190.92 587.366C191.312 588.573 191.378 589.985 191.119 591.602C190.867 593.153 190.36 594.509 189.598 595.669C188.842 596.822 187.904 597.721 186.784 598.364C185.67 599 184.438 599.318 183.085 599.318ZM183.125 597.21C184.199 597.21 185.13 596.935 185.919 596.385C186.714 595.835 187.357 595.109 187.848 594.207C188.345 593.306 188.68 592.331 188.852 591.284C189.011 590.29 189.005 589.365 188.832 588.51C188.66 587.648 188.292 586.955 187.729 586.432C187.165 585.902 186.373 585.636 185.352 585.636C184.278 585.636 183.34 585.915 182.538 586.472C181.743 587.028 181.1 587.761 180.609 588.669C180.119 589.577 179.791 590.555 179.625 591.602C179.466 592.597 179.469 593.521 179.635 594.376C179.807 595.225 180.175 595.911 180.739 596.435C181.309 596.952 182.104 597.21 183.125 597.21ZM197.346 589.812L195.835 599H193.488L196.034 583.727H198.301L197.903 586.114H198.102C198.579 585.338 199.225 584.715 200.041 584.244C200.856 583.767 201.841 583.528 202.994 583.528C204.015 583.528 204.877 583.741 205.579 584.165C206.288 584.582 206.789 585.219 207.081 586.074C207.379 586.922 207.422 587.996 207.21 589.295L205.579 599H203.233L204.824 589.455C205.022 588.261 204.867 587.327 204.356 586.651C203.852 585.974 203.054 585.636 201.96 585.636C201.204 585.636 200.505 585.799 199.862 586.124C199.225 586.448 198.685 586.922 198.241 587.545C197.804 588.169 197.505 588.924 197.346 589.812ZM222.674 587.148L220.447 587.744C220.367 587.386 220.228 587.042 220.029 586.71C219.837 586.372 219.539 586.097 219.134 585.885C218.737 585.666 218.193 585.557 217.504 585.557C216.569 585.557 215.757 585.772 215.067 586.203C214.378 586.627 213.984 587.168 213.884 587.824C213.785 588.401 213.917 588.861 214.282 589.206C214.647 589.551 215.256 589.832 216.112 590.051L218.299 590.608C219.612 590.946 220.546 591.453 221.103 592.129C221.666 592.799 221.859 593.67 221.68 594.744C221.534 595.619 221.153 596.402 220.536 597.091C219.92 597.78 219.131 598.324 218.17 598.722C217.209 599.119 216.138 599.318 214.958 599.318C213.387 599.318 212.147 598.98 211.239 598.304C210.331 597.621 209.847 596.634 209.788 595.341L212.134 594.784C212.194 595.599 212.486 596.216 213.009 596.634C213.54 597.045 214.282 597.25 215.237 597.25C216.33 597.25 217.242 597.018 217.971 596.554C218.7 596.083 219.114 595.52 219.214 594.864C219.313 594.327 219.207 593.879 218.896 593.521C218.591 593.163 218.06 592.895 217.305 592.716L214.879 592.119C213.526 591.781 212.578 591.264 212.035 590.568C211.498 589.872 211.319 588.997 211.498 587.943C211.644 587.081 212.015 586.319 212.612 585.656C213.215 584.993 213.97 584.473 214.879 584.095C215.793 583.717 216.788 583.528 217.862 583.528C219.373 583.528 220.503 583.86 221.252 584.523C222.001 585.179 222.475 586.054 222.674 587.148ZM235.573 591.861C235.069 591.861 234.648 591.688 234.31 591.344C233.972 590.992 233.796 590.568 233.783 590.071C233.776 589.574 233.952 589.16 234.31 588.828C234.668 588.49 235.089 588.321 235.573 588.321C236.063 588.321 236.488 588.493 236.846 588.838C237.203 589.183 237.376 589.594 237.363 590.071C237.356 590.402 237.27 590.704 237.104 590.976C236.945 591.248 236.73 591.463 236.458 591.622C236.193 591.781 235.898 591.861 235.573 591.861ZM261.917 583.886C261.917 582.793 261.556 581.964 260.833 581.401C260.111 580.83 259.133 580.545 257.9 580.545C256.999 580.545 256.187 580.691 255.464 580.983C254.742 581.275 254.152 581.676 253.694 582.186C253.237 582.696 252.955 583.277 252.849 583.926C252.763 584.47 252.819 584.937 253.018 585.328C253.217 585.713 253.499 586.034 253.863 586.293C254.234 586.545 254.632 586.753 255.056 586.919C255.481 587.078 255.872 587.207 256.23 587.307L258.218 587.864C258.716 588.003 259.269 588.195 259.879 588.44C260.489 588.686 261.059 589.02 261.589 589.445C262.119 589.862 262.524 590.399 262.802 591.055C263.087 591.712 263.15 592.517 262.991 593.472C262.806 594.572 262.351 595.566 261.629 596.455C260.913 597.343 259.965 598.049 258.785 598.572C257.612 599.096 256.243 599.358 254.679 599.358C253.22 599.358 251.994 599.123 251 598.652C250.012 598.181 249.283 597.525 248.812 596.683C248.348 595.841 248.169 594.864 248.275 593.75H250.821C250.754 594.519 250.907 595.155 251.278 595.659C251.649 596.156 252.166 596.527 252.829 596.773C253.492 597.011 254.228 597.131 255.037 597.131C255.978 597.131 256.846 596.978 257.642 596.673C258.444 596.362 259.107 595.931 259.63 595.381C260.161 594.824 260.485 594.174 260.605 593.432C260.724 592.756 260.631 592.205 260.326 591.781C260.021 591.357 259.581 591.012 259.004 590.747C258.427 590.482 257.794 590.25 257.105 590.051L254.718 589.335C253.207 588.878 252.057 588.225 251.268 587.376C250.486 586.528 250.204 585.418 250.423 584.045C250.622 582.905 251.102 581.911 251.865 581.062C252.627 580.207 253.572 579.545 254.699 579.074C255.825 578.597 257.038 578.358 258.338 578.358C259.65 578.358 260.774 578.597 261.708 579.074C262.643 579.545 263.339 580.197 263.797 581.033C264.254 581.861 264.423 582.812 264.304 583.886H261.917ZM264.858 604.727L268.378 583.727H270.645L270.247 586.153H270.526C270.738 585.888 271.029 585.55 271.401 585.139C271.778 584.722 272.286 584.35 272.922 584.026C273.565 583.694 274.384 583.528 275.378 583.528C276.664 583.528 277.741 583.85 278.609 584.493C279.478 585.136 280.091 586.047 280.449 587.227C280.807 588.407 280.853 589.799 280.588 591.403C280.323 593.021 279.816 594.423 279.067 595.609C278.318 596.789 277.403 597.704 276.322 598.354C275.242 598.997 274.065 599.318 272.793 599.318C271.812 599.318 271.053 599.156 270.516 598.831C269.979 598.5 269.588 598.125 269.342 597.707C269.097 597.283 268.908 596.932 268.776 596.653H268.577L267.224 604.727H264.858ZM269.412 591.364C269.226 592.517 269.226 593.535 269.412 594.416C269.604 595.291 269.985 595.977 270.555 596.474C271.132 596.965 271.891 597.21 272.832 597.21C273.813 597.21 274.672 596.952 275.408 596.435C276.15 595.911 276.76 595.208 277.237 594.327C277.721 593.438 278.056 592.451 278.241 591.364C278.414 590.29 278.407 589.322 278.222 588.46C278.036 587.592 277.658 586.906 277.088 586.402C276.518 585.892 275.736 585.636 274.741 585.636C273.787 585.636 272.942 585.878 272.206 586.362C271.477 586.839 270.874 587.509 270.396 588.371C269.926 589.226 269.598 590.223 269.412 591.364ZM287.357 599.358C286.389 599.358 285.541 599.176 284.811 598.811C284.082 598.44 283.542 597.906 283.191 597.21C282.839 596.508 282.743 595.659 282.902 594.665C283.055 593.79 283.35 593.08 283.787 592.537C284.225 591.987 284.755 591.556 285.378 591.244C286.008 590.926 286.684 590.691 287.407 590.538C288.136 590.379 288.862 590.257 289.584 590.17C290.525 590.051 291.291 589.958 291.881 589.892C292.471 589.826 292.915 589.716 293.213 589.564C293.512 589.411 293.694 589.15 293.76 588.778V588.699C293.919 587.724 293.79 586.965 293.373 586.422C292.955 585.872 292.209 585.597 291.135 585.597C290.022 585.597 289.09 585.842 288.341 586.332C287.592 586.823 287.039 587.347 286.681 587.903L284.613 587.108C285.156 586.18 285.806 585.457 286.561 584.94C287.317 584.417 288.109 584.052 288.938 583.847C289.766 583.634 290.565 583.528 291.334 583.528C291.825 583.528 292.378 583.588 292.995 583.707C293.611 583.82 294.188 584.055 294.725 584.413C295.268 584.771 295.676 585.312 295.948 586.034C296.226 586.757 296.266 587.724 296.067 588.938L294.397 599H292.05L292.408 596.932H292.289C292.077 597.263 291.752 597.618 291.314 597.996C290.883 598.374 290.337 598.695 289.674 598.96C289.017 599.225 288.245 599.358 287.357 599.358ZM288.033 597.25C288.961 597.25 289.773 597.068 290.469 596.703C291.172 596.339 291.735 595.868 292.159 595.291C292.59 594.714 292.859 594.108 292.965 593.472L293.323 591.324C293.203 591.443 292.968 591.553 292.617 591.652C292.266 591.745 291.868 591.828 291.424 591.901C290.986 591.967 290.559 592.027 290.141 592.08C289.73 592.126 289.399 592.166 289.147 592.199C288.524 592.278 287.93 592.408 287.367 592.587C286.81 592.759 286.339 593.021 285.955 593.372C285.577 593.717 285.342 594.187 285.249 594.784C285.11 595.599 285.305 596.216 285.836 596.634C286.366 597.045 287.098 597.25 288.033 597.25ZM302.538 589.812L301.026 599H298.68L301.225 583.727H303.492L303.094 586.114H303.293C303.771 585.338 304.417 584.715 305.232 584.244C306.048 583.767 307.032 583.528 308.185 583.528C309.206 583.528 310.068 583.741 310.771 584.165C311.48 584.582 311.98 585.219 312.272 586.074C312.57 586.922 312.613 587.996 312.401 589.295L310.771 599H308.424L310.015 589.455C310.214 588.261 310.058 587.327 309.548 586.651C309.044 585.974 308.245 585.636 307.151 585.636C306.396 585.636 305.696 585.799 305.053 586.124C304.417 586.448 303.877 586.922 303.433 587.545C302.995 588.169 302.697 588.924 302.538 589.812ZM315.059 599L317.604 583.727H319.951L317.405 599H315.059ZM319.493 581.142C319.036 581.142 318.641 580.986 318.31 580.675C317.985 580.363 317.823 579.989 317.823 579.551C317.823 579.114 317.985 578.739 318.31 578.428C318.641 578.116 319.036 577.96 319.493 577.96C319.951 577.96 320.342 578.116 320.667 578.428C320.998 578.739 321.164 579.114 321.164 579.551C321.164 579.989 320.998 580.363 320.667 580.675C320.342 580.986 319.951 581.142 319.493 581.142ZM334.51 587.148L332.283 587.744C332.203 587.386 332.064 587.042 331.865 586.71C331.673 586.372 331.375 586.097 330.97 585.885C330.572 585.666 330.029 585.557 329.339 585.557C328.405 585.557 327.593 585.772 326.903 586.203C326.214 586.627 325.82 587.168 325.72 587.824C325.621 588.401 325.753 588.861 326.118 589.206C326.482 589.551 327.092 589.832 327.947 590.051L330.135 590.608C331.447 590.946 332.382 591.453 332.939 592.129C333.502 592.799 333.695 593.67 333.516 594.744C333.37 595.619 332.989 596.402 332.372 597.091C331.756 597.78 330.967 598.324 330.006 598.722C329.045 599.119 327.974 599.318 326.794 599.318C325.223 599.318 323.983 598.98 323.075 598.304C322.167 597.621 321.683 596.634 321.624 595.341L323.97 594.784C324.03 595.599 324.321 596.216 324.845 596.634C325.375 597.045 326.118 597.25 327.072 597.25C328.166 597.25 329.078 597.018 329.807 596.554C330.536 596.083 330.95 595.52 331.05 594.864C331.149 594.327 331.043 593.879 330.732 593.521C330.427 593.163 329.896 592.895 329.141 592.716L326.714 592.119C325.362 591.781 324.414 591.264 323.871 590.568C323.334 589.872 323.155 588.997 323.334 587.943C323.48 587.081 323.851 586.319 324.447 585.656C325.051 584.993 325.806 584.473 326.714 584.095C327.629 583.717 328.624 583.528 329.697 583.528C331.209 583.528 332.339 583.86 333.088 584.523C333.837 585.179 334.311 586.054 334.51 587.148ZM340.19 589.812L338.679 599H336.332L339.713 578.636H342.059L340.826 586.114H341.025C341.502 585.318 342.139 584.688 342.934 584.224C343.736 583.76 344.744 583.528 345.957 583.528C346.991 583.528 347.863 583.737 348.572 584.155C349.288 584.566 349.792 585.199 350.083 586.054C350.382 586.902 350.425 587.983 350.213 589.295L348.582 599H346.235L347.826 589.455C348.025 588.241 347.863 587.304 347.339 586.641C346.822 585.971 346.017 585.636 344.923 585.636C344.154 585.636 343.438 585.799 342.775 586.124C342.119 586.448 341.562 586.922 341.105 587.545C340.654 588.169 340.349 588.924 340.19 589.812ZM363.952 591.861C363.448 591.861 363.027 591.688 362.689 591.344C362.351 590.992 362.175 590.568 362.162 590.071C362.155 589.574 362.331 589.16 362.689 588.828C363.047 588.49 363.468 588.321 363.952 588.321C364.442 588.321 364.866 588.493 365.224 588.838C365.582 589.183 365.755 589.594 365.741 590.071C365.735 590.402 365.649 590.704 365.483 590.976C365.324 591.248 365.108 591.463 364.837 591.622C364.571 591.781 364.277 591.861 363.952 591.861ZM376.654 599L380.035 578.636H392.325L391.967 580.824H382.143L380.989 587.705H390.177L389.819 589.892H380.631L379.478 596.812H389.461L389.103 599H376.654ZM396.928 589.812L395.417 599H393.07L395.616 583.727H397.883L397.485 586.114H397.684C398.161 585.338 398.808 584.715 399.623 584.244C400.438 583.767 401.423 583.528 402.576 583.528C403.597 583.528 404.459 583.741 405.161 584.165C405.871 584.582 406.371 585.219 406.663 586.074C406.961 586.922 407.004 587.996 406.792 589.295L405.161 599H402.815L404.406 589.455C404.604 588.261 404.449 587.327 403.938 586.651C403.434 585.974 402.636 585.636 401.542 585.636C400.786 585.636 400.087 585.799 399.444 586.124C398.808 586.448 398.267 586.922 397.823 587.545C397.386 588.169 397.087 588.924 396.928 589.812ZM414.659 605.045C413.519 605.045 412.565 604.9 411.796 604.608C411.027 604.323 410.41 603.945 409.946 603.474C409.482 603.01 409.131 602.513 408.892 601.983L411 600.67C411.159 600.949 411.365 601.267 411.617 601.625C411.869 601.99 412.25 602.304 412.76 602.57C413.277 602.841 414.003 602.977 414.938 602.977C416.164 602.977 417.238 602.679 418.159 602.082C419.081 601.486 419.651 600.551 419.87 599.278L420.347 596.176H420.148C419.936 596.455 419.641 596.799 419.263 597.21C418.885 597.615 418.378 597.976 417.742 598.294C417.105 598.606 416.29 598.761 415.296 598.761C414.056 598.761 412.996 598.47 412.114 597.886C411.232 597.303 410.599 596.455 410.215 595.341C409.837 594.227 409.781 592.875 410.046 591.284C410.304 589.72 410.801 588.357 411.537 587.197C412.28 586.031 413.194 585.129 414.282 584.493C415.369 583.85 416.555 583.528 417.841 583.528C418.836 583.528 419.598 583.694 420.128 584.026C420.665 584.35 421.056 584.722 421.301 585.139C421.547 585.55 421.732 585.888 421.858 586.153H422.097L422.495 583.727H424.762L422.176 599.438C421.958 600.75 421.484 601.817 420.755 602.639C420.025 603.468 419.131 604.074 418.07 604.459C417.009 604.85 415.873 605.045 414.659 605.045ZM415.892 596.653C416.827 596.653 417.659 596.438 418.388 596.007C419.124 595.576 419.734 594.956 420.218 594.148C420.702 593.339 421.036 592.371 421.222 591.244C421.408 590.144 421.394 589.173 421.182 588.331C420.97 587.489 420.569 586.83 419.979 586.352C419.396 585.875 418.63 585.636 417.682 585.636C416.681 585.636 415.816 585.888 415.087 586.392C414.364 586.896 413.778 587.572 413.327 588.42C412.876 589.269 412.565 590.21 412.392 591.244C412.22 592.305 412.227 593.243 412.412 594.058C412.598 594.867 412.976 595.503 413.546 595.967C414.123 596.425 414.905 596.653 415.892 596.653ZM432.239 578.636L428.858 599H426.512L429.892 578.636H432.239ZM433.156 599L435.702 583.727H438.048L435.503 599H433.156ZM437.591 581.142C437.134 581.142 436.739 580.986 436.408 580.675C436.083 580.363 435.92 579.989 435.92 579.551C435.92 579.114 436.083 578.739 436.408 578.428C436.739 578.116 437.134 577.96 437.591 577.96C438.048 577.96 438.439 578.116 438.764 578.428C439.096 578.739 439.261 579.114 439.261 579.551C439.261 579.989 439.096 580.363 438.764 580.675C438.439 580.986 438.048 581.142 437.591 581.142ZM452.608 587.148L450.38 587.744C450.301 587.386 450.162 587.042 449.963 586.71C449.77 586.372 449.472 586.097 449.068 585.885C448.67 585.666 448.127 585.557 447.437 585.557C446.502 585.557 445.69 585.772 445.001 586.203C444.312 586.627 443.917 587.168 443.818 587.824C443.718 588.401 443.851 588.861 444.216 589.206C444.58 589.551 445.19 589.832 446.045 590.051L448.233 590.608C449.545 590.946 450.48 591.453 451.037 592.129C451.6 592.799 451.792 593.67 451.613 594.744C451.467 595.619 451.086 596.402 450.47 597.091C449.853 597.78 449.065 598.324 448.103 598.722C447.142 599.119 446.072 599.318 444.892 599.318C443.321 599.318 442.081 598.98 441.173 598.304C440.265 597.621 439.781 596.634 439.721 595.341L442.068 594.784C442.127 595.599 442.419 596.216 442.943 596.634C443.473 597.045 444.216 597.25 445.17 597.25C446.264 597.25 447.175 597.018 447.904 596.554C448.634 596.083 449.048 595.52 449.147 594.864C449.247 594.327 449.141 593.879 448.829 593.521C448.524 593.163 447.994 592.895 447.238 592.716L444.812 592.119C443.46 591.781 442.512 591.264 441.968 590.568C441.431 589.872 441.252 588.997 441.431 587.943C441.577 587.081 441.949 586.319 442.545 585.656C443.148 584.993 443.904 584.473 444.812 584.095C445.727 583.717 446.721 583.528 447.795 583.528C449.306 583.528 450.437 583.86 451.186 584.523C451.935 585.179 452.409 586.054 452.608 587.148ZM458.288 589.812L456.776 599H454.43L457.81 578.636H460.157L458.924 586.114H459.123C459.6 585.318 460.237 584.688 461.032 584.224C461.834 583.76 462.842 583.528 464.055 583.528C465.089 583.528 465.96 583.737 466.67 584.155C467.386 584.566 467.889 585.199 468.181 586.054C468.479 586.902 468.522 587.983 468.31 589.295L466.68 599H464.333L465.924 589.455C466.123 588.241 465.96 587.304 465.437 586.641C464.92 585.971 464.114 585.636 463.021 585.636C462.252 585.636 461.536 585.799 460.873 586.124C460.217 586.448 459.66 586.922 459.202 587.545C458.752 588.169 458.447 588.924 458.288 589.812ZM482.049 591.861C481.546 591.861 481.125 591.688 480.787 591.344C480.449 590.992 480.273 590.568 480.26 590.071C480.253 589.574 480.429 589.16 480.787 588.828C481.145 588.49 481.565 588.321 482.049 588.321C482.54 588.321 482.964 588.493 483.322 588.838C483.68 589.183 483.852 589.594 483.839 590.071C483.833 590.402 483.746 590.704 483.581 590.976C483.422 591.248 483.206 591.463 482.934 591.622C482.669 591.781 482.374 591.861 482.049 591.861ZM500.598 578.636L497.218 599H494.752L498.132 578.636H500.598ZM511.031 583.727L510.713 585.716H502.798L503.116 583.727H511.031ZM506.02 580.068H508.366L505.94 594.625C505.834 595.288 505.851 595.785 505.99 596.116C506.136 596.441 506.355 596.66 506.646 596.773C506.945 596.879 507.266 596.932 507.611 596.932C507.869 596.932 508.081 596.919 508.247 596.892C508.413 596.859 508.545 596.832 508.645 596.812L508.804 598.92C508.625 598.98 508.383 599.04 508.078 599.099C507.78 599.166 507.412 599.199 506.974 599.199C506.312 599.199 505.688 599.056 505.105 598.771C504.522 598.486 504.074 598.052 503.763 597.469C503.451 596.885 503.368 596.15 503.514 595.261L506.02 580.068ZM516.47 599.358C515.502 599.358 514.654 599.176 513.925 598.811C513.196 598.44 512.655 597.906 512.304 597.21C511.953 596.508 511.857 595.659 512.016 594.665C512.168 593.79 512.463 593.08 512.901 592.537C513.338 591.987 513.868 591.556 514.491 591.244C515.121 590.926 515.797 590.691 516.52 590.538C517.249 590.379 517.975 590.257 518.697 590.17C519.639 590.051 520.404 589.958 520.994 589.892C521.584 589.826 522.028 589.716 522.327 589.564C522.625 589.411 522.807 589.15 522.874 588.778V588.699C523.033 587.724 522.903 586.965 522.486 586.422C522.068 585.872 521.322 585.597 520.249 585.597C519.135 585.597 518.204 585.842 517.455 586.332C516.705 586.823 516.152 587.347 515.794 587.903L513.726 587.108C514.269 586.18 514.919 585.457 515.675 584.94C516.43 584.417 517.223 584.052 518.051 583.847C518.88 583.634 519.679 583.528 520.447 583.528C520.938 583.528 521.491 583.588 522.108 583.707C522.724 583.82 523.301 584.055 523.838 584.413C524.382 584.771 524.789 585.312 525.061 586.034C525.339 586.757 525.379 587.724 525.18 588.938L523.51 599H521.163L521.521 596.932H521.402C521.19 597.263 520.865 597.618 520.428 597.996C519.997 598.374 519.45 598.695 518.787 598.96C518.131 599.225 517.358 599.358 516.47 599.358ZM517.146 597.25C518.074 597.25 518.886 597.068 519.582 596.703C520.285 596.339 520.848 595.868 521.273 595.291C521.704 594.714 521.972 594.108 522.078 593.472L522.436 591.324C522.317 591.443 522.081 591.553 521.73 591.652C521.379 591.745 520.981 591.828 520.537 591.901C520.099 591.967 519.672 592.027 519.254 592.08C518.843 592.126 518.512 592.166 518.26 592.199C517.637 592.278 517.044 592.408 516.48 592.587C515.923 592.759 515.453 593.021 515.068 593.372C514.69 593.717 514.455 594.187 514.362 594.784C514.223 595.599 514.419 596.216 514.949 596.634C515.479 597.045 516.212 597.25 517.146 597.25ZM533.52 578.636L530.14 599H527.793L531.174 578.636H533.52ZM534.438 599L536.983 583.727H539.33L536.784 599H534.438ZM538.872 581.142C538.415 581.142 538.02 580.986 537.689 580.675C537.364 580.363 537.202 579.989 537.202 579.551C537.202 579.114 537.364 578.739 537.689 578.428C538.02 578.116 538.415 577.96 538.872 577.96C539.33 577.96 539.721 578.116 540.045 578.428C540.377 578.739 540.543 579.114 540.543 579.551C540.543 579.989 540.377 580.363 540.045 580.675C539.721 580.986 539.33 581.142 538.872 581.142ZM545.537 599.358C544.569 599.358 543.72 599.176 542.991 598.811C542.262 598.44 541.722 597.906 541.37 597.21C541.019 596.508 540.923 595.659 541.082 594.665C541.234 593.79 541.529 593.08 541.967 592.537C542.404 591.987 542.935 591.556 543.558 591.244C544.188 590.926 544.864 590.691 545.586 590.538C546.315 590.379 547.041 590.257 547.764 590.17C548.705 590.051 549.471 589.958 550.061 589.892C550.651 589.826 551.095 589.716 551.393 589.564C551.691 589.411 551.874 589.15 551.94 588.778V588.699C552.099 587.724 551.97 586.965 551.552 586.422C551.135 585.872 550.389 585.597 549.315 585.597C548.201 585.597 547.27 585.842 546.521 586.332C545.772 586.823 545.218 587.347 544.86 587.903L542.792 587.108C543.336 586.18 543.985 585.457 544.741 584.94C545.497 584.417 546.289 584.052 547.118 583.847C547.946 583.634 548.745 583.528 549.514 583.528C550.004 583.528 550.558 583.588 551.174 583.707C551.791 583.82 552.368 584.055 552.904 584.413C553.448 584.771 553.856 585.312 554.127 586.034C554.406 586.757 554.446 587.724 554.247 588.938L552.576 599H550.23L550.588 596.932H550.468C550.256 597.263 549.931 597.618 549.494 597.996C549.063 598.374 548.516 598.695 547.853 598.96C547.197 599.225 546.425 599.358 545.537 599.358ZM546.213 597.25C547.141 597.25 547.953 597.068 548.649 596.703C549.351 596.339 549.915 595.868 550.339 595.291C550.77 594.714 551.038 594.108 551.145 593.472L551.502 591.324C551.383 591.443 551.148 591.553 550.797 591.652C550.445 591.745 550.047 591.828 549.603 591.901C549.166 591.967 548.738 592.027 548.321 592.08C547.91 592.126 547.578 592.166 547.326 592.199C546.703 592.278 546.11 592.408 545.547 592.587C544.99 592.759 544.519 593.021 544.135 593.372C543.757 593.717 543.521 594.187 543.429 594.784C543.289 595.599 543.485 596.216 544.015 596.634C544.546 597.045 545.278 597.25 546.213 597.25ZM560.717 589.812L559.206 599H556.859L559.405 583.727H561.672L561.274 586.114H561.473C561.95 585.338 562.597 584.715 563.412 584.244C564.227 583.767 565.212 583.528 566.365 583.528C567.386 583.528 568.248 583.741 568.95 584.165C569.66 584.582 570.16 585.219 570.452 586.074C570.75 586.922 570.793 587.996 570.581 589.295L568.95 599H566.604L568.195 589.455C568.393 588.261 568.238 587.327 567.727 586.651C567.223 585.974 566.425 585.636 565.331 585.636C564.575 585.636 563.876 585.799 563.233 586.124C562.597 586.448 562.056 586.922 561.612 587.545C561.175 588.169 560.876 588.924 560.717 589.812Z" fill="#635D6A"/>
<path d="M100.966 806.017V804.455H111.875V806.017H107.301V819H105.54V806.017H100.966ZM114.593 819V804.455H123.372V806.017H116.355V810.932H122.917V812.494H116.355V817.438H123.485V819H114.593ZM126.547 819V804.455H128.308V817.438H135.069V819H126.547ZM147.342 804.455H149.103V814.085C149.103 815.08 148.869 815.967 148.4 816.749C147.936 817.525 147.28 818.138 146.433 818.588C145.585 819.033 144.591 819.256 143.45 819.256C142.309 819.256 141.315 819.033 140.467 818.588C139.619 818.138 138.961 817.525 138.493 816.749C138.029 815.967 137.797 815.08 137.797 814.085V804.455H139.558V813.943C139.558 814.653 139.714 815.286 140.027 815.839C140.339 816.389 140.784 816.822 141.362 817.139C141.944 817.452 142.64 817.608 143.45 817.608C144.26 817.608 144.956 817.452 145.538 817.139C146.12 816.822 146.565 816.389 146.873 815.839C147.186 815.286 147.342 814.653 147.342 813.943V804.455ZM160.575 808.091C160.49 807.371 160.144 806.812 159.538 806.415C158.932 806.017 158.189 805.818 157.308 805.818C156.664 805.818 156.101 805.922 155.618 806.131C155.14 806.339 154.766 806.625 154.496 806.99C154.231 807.355 154.098 807.769 154.098 808.233C154.098 808.621 154.19 808.955 154.375 809.234C154.564 809.509 154.806 809.739 155.099 809.923C155.393 810.103 155.701 810.252 156.023 810.371C156.345 810.484 156.641 810.577 156.911 810.648L158.388 811.045C158.767 811.145 159.188 811.282 159.652 811.457C160.121 811.633 160.568 811.872 160.994 812.175C161.425 812.473 161.78 812.857 162.06 813.325C162.339 813.794 162.479 814.369 162.479 815.051C162.479 815.837 162.273 816.547 161.861 817.182C161.454 817.816 160.857 818.321 160.071 818.695C159.29 819.069 158.34 819.256 157.223 819.256C156.181 819.256 155.279 819.088 154.517 818.751C153.759 818.415 153.163 817.946 152.727 817.345C152.296 816.744 152.053 816.045 151.996 815.25H153.814C153.861 815.799 154.046 816.254 154.368 816.614C154.695 816.969 155.107 817.234 155.604 817.409C156.106 817.58 156.645 817.665 157.223 817.665C157.895 817.665 158.499 817.556 159.034 817.338C159.569 817.116 159.993 816.808 160.305 816.415C160.618 816.017 160.774 815.553 160.774 815.023C160.774 814.54 160.639 814.147 160.369 813.844C160.099 813.541 159.744 813.295 159.304 813.105C158.864 812.916 158.388 812.75 157.876 812.608L156.087 812.097C154.95 811.77 154.051 811.304 153.388 810.697C152.725 810.091 152.393 809.298 152.393 808.318C152.393 807.504 152.614 806.794 153.054 806.188C153.499 805.577 154.096 805.103 154.844 804.767C155.597 804.426 156.437 804.256 157.365 804.256C158.303 804.256 159.136 804.424 159.865 804.76C160.594 805.091 161.172 805.546 161.598 806.124C162.029 806.701 162.256 807.357 162.28 808.091H160.575ZM172.761 804.455V819H171V804.455H172.761ZM187.827 804.455V819H186.122L178.196 807.58H178.054V819H176.293V804.455H177.997L185.952 815.903H186.094V804.455H187.827ZM190.556 806.017V804.455H201.465V806.017H196.891V819H195.13V806.017H190.556ZM204.183 819V804.455H212.962V806.017H205.945V810.932H212.507V812.494H205.945V817.438H213.075V819H204.183ZM216.136 819V804.455H221.051C222.188 804.455 223.12 804.649 223.849 805.037C224.579 805.42 225.118 805.948 225.469 806.621C225.819 807.293 225.994 808.058 225.994 808.915C225.994 809.772 225.819 810.532 225.469 811.195C225.118 811.857 224.581 812.378 223.857 812.757C223.132 813.131 222.206 813.318 221.08 813.318H217.102V811.727H221.023C221.799 811.727 222.424 811.614 222.898 811.386C223.376 811.159 223.722 810.837 223.935 810.42C224.152 809.999 224.261 809.497 224.261 808.915C224.261 808.332 224.152 807.823 223.935 807.388C223.717 806.952 223.369 806.616 222.891 806.379C222.412 806.138 221.78 806.017 220.994 806.017H217.898V819H216.136ZM222.983 812.466L226.562 819H224.517L220.994 812.466H222.983ZM240.463 804.455V819H238.759L230.833 807.58H230.691V819H228.929V804.455H230.634L238.588 815.903H238.73V804.455H240.463ZM244.585 819H242.738L248.079 804.455H249.897L255.238 819H253.391L249.045 806.756H248.931L244.585 819ZM245.266 813.318H252.71V814.881H245.266V813.318ZM255.009 806.017V804.455H265.918V806.017H261.344V819H259.583V806.017H255.009ZM270.398 804.455V819H268.636V804.455H270.398ZM286.202 811.727C286.202 813.261 285.925 814.587 285.371 815.705C284.817 816.822 284.057 817.684 283.091 818.29C282.125 818.896 281.022 819.199 279.782 819.199C278.541 819.199 277.438 818.896 276.472 818.29C275.506 817.684 274.746 816.822 274.192 815.705C273.638 814.587 273.361 813.261 273.361 811.727C273.361 810.193 273.638 808.867 274.192 807.75C274.746 806.633 275.506 805.771 276.472 805.165C277.438 804.559 278.541 804.256 279.782 804.256C281.022 804.256 282.125 804.559 283.091 805.165C284.057 805.771 284.817 806.633 285.371 807.75C285.925 808.867 286.202 810.193 286.202 811.727ZM284.498 811.727C284.498 810.468 284.287 809.405 283.865 808.538C283.449 807.672 282.883 807.016 282.168 806.571C281.458 806.126 280.662 805.903 279.782 805.903C278.901 805.903 278.103 806.126 277.388 806.571C276.678 807.016 276.112 807.672 275.691 808.538C275.274 809.405 275.066 810.468 275.066 811.727C275.066 812.987 275.274 814.05 275.691 814.916C276.112 815.783 276.678 816.438 277.388 816.884C278.103 817.329 278.901 817.551 279.782 817.551C280.662 817.551 281.458 817.329 282.168 816.884C282.883 816.438 283.449 815.783 283.865 814.916C284.287 814.05 284.498 812.987 284.498 811.727ZM300.698 804.455V819H298.993L291.067 807.58H290.925V819H289.164V804.455H290.868L298.823 815.903H298.965V804.455H300.698ZM304.819 819H302.972L308.313 804.455H310.131L315.472 819H313.626L309.279 806.756H309.165L304.819 819ZM305.501 813.318H312.944V814.881H305.501V813.318ZM317.738 819V804.455H319.499V817.438H326.261V819H317.738ZM335.607 813.915C335.257 813.915 334.956 813.789 334.705 813.538C334.454 813.287 334.329 812.987 334.329 812.636C334.329 812.286 334.454 811.985 334.705 811.734C334.956 811.483 335.257 811.358 335.607 811.358C335.958 811.358 336.258 811.483 336.509 811.734C336.76 811.985 336.886 812.286 336.886 812.636C336.886 812.868 336.826 813.081 336.708 813.276C336.594 813.47 336.441 813.626 336.246 813.744C336.057 813.858 335.844 813.915 335.607 813.915ZM345.49 819V817.722L350.291 812.466C350.855 811.85 351.319 811.315 351.683 810.861C352.048 810.402 352.318 809.971 352.493 809.568C352.673 809.161 352.763 808.735 352.763 808.29C352.763 807.778 352.64 807.336 352.393 806.962C352.152 806.588 351.821 806.299 351.399 806.095C350.978 805.892 350.504 805.79 349.979 805.79C349.42 805.79 348.932 805.906 348.516 806.138C348.104 806.365 347.784 806.685 347.557 807.097C347.334 807.509 347.223 807.991 347.223 808.545H345.547C345.547 807.693 345.743 806.945 346.136 806.301C346.529 805.657 347.064 805.155 347.741 804.795C348.423 804.436 349.188 804.256 350.036 804.256C350.888 804.256 351.643 804.436 352.301 804.795C352.959 805.155 353.475 805.641 353.849 806.251C354.223 806.862 354.411 807.542 354.411 808.29C354.411 808.825 354.313 809.348 354.119 809.859C353.93 810.366 353.598 810.932 353.125 811.557C352.656 812.177 352.005 812.935 351.172 813.83L347.905 817.324V817.438H354.666V819H345.49ZM362.344 819.199C361.274 819.199 360.362 818.908 359.609 818.325C358.857 817.738 358.281 816.888 357.884 815.776C357.486 814.658 357.287 813.309 357.287 811.727C357.287 810.155 357.486 808.813 357.884 807.7C358.286 806.583 358.864 805.731 359.616 805.143C360.374 804.552 361.283 804.256 362.344 804.256C363.404 804.256 364.311 804.552 365.064 805.143C365.821 805.731 366.399 806.583 366.797 807.7C367.199 808.813 367.401 810.155 367.401 811.727C367.401 813.309 367.202 814.658 366.804 815.776C366.406 816.888 365.831 817.738 365.078 818.325C364.325 818.908 363.414 819.199 362.344 819.199ZM362.344 817.636C363.404 817.636 364.228 817.125 364.815 816.102C365.402 815.08 365.696 813.621 365.696 811.727C365.696 810.468 365.561 809.395 365.291 808.51C365.026 807.625 364.643 806.95 364.141 806.486C363.643 806.022 363.045 805.79 362.344 805.79C361.293 805.79 360.471 806.308 359.879 807.345C359.287 808.377 358.991 809.838 358.991 811.727C358.991 812.987 359.124 814.057 359.389 814.938C359.654 815.818 360.036 816.488 360.533 816.947C361.035 817.407 361.638 817.636 362.344 817.636ZM370.099 819V817.722L374.901 812.466C375.464 811.85 375.928 811.315 376.293 810.861C376.657 810.402 376.927 809.971 377.102 809.568C377.282 809.161 377.372 808.735 377.372 808.29C377.372 807.778 377.249 807.336 377.003 806.962C376.761 806.588 376.43 806.299 376.009 806.095C375.587 805.892 375.114 805.79 374.588 805.79C374.029 805.79 373.542 805.906 373.125 806.138C372.713 806.365 372.393 806.685 372.166 807.097C371.944 807.509 371.832 807.991 371.832 808.545H370.156C370.156 807.693 370.353 806.945 370.746 806.301C371.139 805.657 371.674 805.155 372.351 804.795C373.033 804.436 373.797 804.256 374.645 804.256C375.497 804.256 376.252 804.436 376.911 804.795C377.569 805.155 378.085 805.641 378.459 806.251C378.833 806.862 379.02 807.542 379.02 808.29C379.02 808.825 378.923 809.348 378.729 809.859C378.539 810.366 378.208 810.932 377.734 811.557C377.266 812.177 376.615 812.935 375.781 813.83L372.514 817.324V817.438H379.276V819H370.099ZM386.953 819.199C385.883 819.199 384.972 818.908 384.219 818.325C383.466 817.738 382.891 816.888 382.493 815.776C382.095 814.658 381.896 813.309 381.896 811.727C381.896 810.155 382.095 808.813 382.493 807.7C382.895 806.583 383.473 805.731 384.226 805.143C384.983 804.552 385.893 804.256 386.953 804.256C388.014 804.256 388.92 804.552 389.673 805.143C390.431 805.731 391.009 806.583 391.406 807.7C391.809 808.813 392.01 810.155 392.01 811.727C392.01 813.309 391.811 814.658 391.413 815.776C391.016 816.888 390.44 817.738 389.688 818.325C388.935 818.908 388.023 819.199 386.953 819.199ZM386.953 817.636C388.014 817.636 388.838 817.125 389.425 816.102C390.012 815.08 390.305 813.621 390.305 811.727C390.305 810.468 390.17 809.395 389.901 808.51C389.635 807.625 389.252 806.95 388.75 806.486C388.253 806.022 387.654 805.79 386.953 805.79C385.902 805.79 385.08 806.308 384.489 807.345C383.897 808.377 383.601 809.838 383.601 811.727C383.601 812.987 383.733 814.057 383.999 814.938C384.264 815.818 384.645 816.488 385.142 816.947C385.644 817.407 386.248 817.636 386.953 817.636ZM403.203 810.946V812.509H393.203V810.946H403.203ZM404.964 819V804.455H409.879C411.02 804.455 411.953 804.661 412.678 805.072C413.407 805.48 413.946 806.031 414.297 806.727C414.647 807.423 414.822 808.2 414.822 809.057C414.822 809.914 414.647 810.693 414.297 811.393C413.951 812.094 413.416 812.653 412.692 813.07C411.967 813.482 411.039 813.688 409.908 813.688H406.385V812.125H409.851C410.632 812.125 411.259 811.99 411.733 811.72C412.206 811.45 412.55 811.086 412.763 810.626C412.981 810.162 413.089 809.639 413.089 809.057C413.089 808.474 412.981 807.954 412.763 807.494C412.55 807.035 412.204 806.675 411.726 806.415C411.248 806.15 410.613 806.017 409.822 806.017H406.726V819H404.964ZM417.66 819V804.455H422.575C423.711 804.455 424.644 804.649 425.373 805.037C426.102 805.42 426.642 805.948 426.992 806.621C427.343 807.293 427.518 808.058 427.518 808.915C427.518 809.772 427.343 810.532 426.992 811.195C426.642 811.857 426.104 812.378 425.38 812.757C424.656 813.131 423.73 813.318 422.603 813.318H418.626V811.727H422.546C423.323 811.727 423.948 811.614 424.421 811.386C424.899 811.159 425.245 810.837 425.458 810.42C425.676 809.999 425.785 809.497 425.785 808.915C425.785 808.332 425.676 807.823 425.458 807.388C425.24 806.952 424.892 806.616 424.414 806.379C423.936 806.138 423.304 806.017 422.518 806.017H419.421V819H417.66ZM424.506 812.466L428.086 819H426.04L422.518 812.466H424.506ZM430.453 819V804.455H439.231V806.017H432.214V810.932H438.777V812.494H432.214V817.438H439.345V819H430.453ZM450.36 808.091C450.275 807.371 449.93 806.812 449.324 806.415C448.717 806.017 447.974 805.818 447.093 805.818C446.449 805.818 445.886 805.922 445.403 806.131C444.925 806.339 444.551 806.625 444.281 806.99C444.016 807.355 443.883 807.769 443.883 808.233C443.883 808.621 443.975 808.955 444.16 809.234C444.35 809.509 444.591 809.739 444.885 809.923C445.178 810.103 445.486 810.252 445.808 810.371C446.13 810.484 446.426 810.577 446.696 810.648L448.173 811.045C448.552 811.145 448.973 811.282 449.437 811.457C449.906 811.633 450.353 811.872 450.779 812.175C451.21 812.473 451.565 812.857 451.845 813.325C452.124 813.794 452.264 814.369 452.264 815.051C452.264 815.837 452.058 816.547 451.646 817.182C451.239 817.816 450.642 818.321 449.856 818.695C449.075 819.069 448.126 819.256 447.008 819.256C445.967 819.256 445.065 819.088 444.302 818.751C443.545 818.415 442.948 817.946 442.512 817.345C442.082 816.744 441.838 816.045 441.781 815.25H443.599C443.646 815.799 443.831 816.254 444.153 816.614C444.48 816.969 444.892 817.234 445.389 817.409C445.891 817.58 446.431 817.665 447.008 817.665C447.681 817.665 448.284 817.556 448.819 817.338C449.354 817.116 449.778 816.808 450.091 816.415C450.403 816.017 450.559 815.553 450.559 815.023C450.559 814.54 450.424 814.147 450.154 813.844C449.885 813.541 449.529 813.295 449.089 813.105C448.649 812.916 448.173 812.75 447.662 812.608L445.872 812.097C444.735 811.77 443.836 811.304 443.173 810.697C442.51 810.091 442.179 809.298 442.179 808.318C442.179 807.504 442.399 806.794 442.839 806.188C443.284 805.577 443.881 805.103 444.629 804.767C445.382 804.426 446.222 804.256 447.15 804.256C448.088 804.256 448.921 804.424 449.65 804.76C450.379 805.091 450.957 805.546 451.383 806.124C451.814 806.701 452.041 807.357 452.065 808.091H450.36ZM455.16 819V804.455H463.938V806.017H456.921V810.932H463.484V812.494H456.921V817.438H464.052V819H455.16ZM478.647 804.455V819H476.942L469.016 807.58H468.874V819H467.113V804.455H468.817L476.772 815.903H476.914V804.455H478.647ZM481.376 806.017V804.455H492.285V806.017H487.711V819H485.95V806.017H481.376Z" fill="#978E8B"/>
</g>
<defs>
<clipPath id="clip0_1326_28">
<rect width="1200" height="900" fill="white"/>
</clipPath>
</defs>
</svg>
