<svg width="1200" height="900" viewBox="0 0 1200 900" fill="none" xmlns="http://www.w3.org/2000/svg">
<g clip-path="url(#clip0_1326_2)">
<path d="M1200 0H0V900H1200V0Z" fill="#F8F4EF"/>
<path opacity="0.6" d="M1020 420C1152.55 420 1260 312.548 1260 180C1260 47.4517 1152.55 -60 1020 -60C887.452 -60 780 47.4517 780 180C780 312.548 887.452 420 1020 420Z" fill="#E8E0D5"/>
<path opacity="0.4" d="M1100 940C1188.37 940 1260 868.366 1260 780C1260 691.634 1188.37 620 1100 620C1011.63 620 940 691.634 940 780C940 868.366 1011.63 940 1100 940Z" fill="#DFD7CC"/>
<path opacity="0.3" d="M70 930C141.797 930 200 871.797 200 800C200 728.203 141.797 670 70 670C-1.79702 670 -60 728.203 -60 800C-60 871.797 -1.79702 930 70 930Z" fill="#E8E0D5"/>
<path opacity="0.2" d="M200 620H560" stroke="#978E8B" stroke-width="1.5"/>
<path opacity="0.2" d="M560 620H920" stroke="#978E8B" stroke-width="1.5"/>
<path d="M106 223C106 221.343 104.657 220 103 220C101.343 220 100 221.343 100 223V337C100 338.657 101.343 340 103 340C104.657 340 106 338.657 106 337V223Z" fill="#5B9EB0"/>
<path d="M104.574 578.636H107.517L111.653 595.54H111.892L121.597 578.636H124.54L121.159 599H118.852L121.438 583.528H121.239L112.29 599H110.062L106.284 583.528H106.085L103.5 599H101.193L104.574 578.636ZM130.24 599.358C129.272 599.358 128.423 599.176 127.694 598.811C126.965 598.44 126.425 597.906 126.074 597.21C125.722 596.508 125.626 595.659 125.785 594.665C125.938 593.79 126.233 593.08 126.67 592.537C127.108 591.987 127.638 591.556 128.261 591.244C128.891 590.926 129.567 590.691 130.289 590.538C131.019 590.379 131.744 590.257 132.467 590.17C133.408 590.051 134.174 589.958 134.764 589.892C135.354 589.826 135.798 589.716 136.096 589.564C136.395 589.411 136.577 589.15 136.643 588.778V588.699C136.802 587.724 136.673 586.965 136.255 586.422C135.838 585.872 135.092 585.597 134.018 585.597C132.904 585.597 131.973 585.842 131.224 586.332C130.475 586.823 129.922 587.347 129.564 587.903L127.495 587.108C128.039 586.18 128.689 585.457 129.444 584.94C130.2 584.417 130.992 584.052 131.821 583.847C132.649 583.634 133.448 583.528 134.217 583.528C134.708 583.528 135.261 583.588 135.877 583.707C136.494 583.82 137.071 584.055 137.608 584.413C138.151 584.771 138.559 585.312 138.831 586.034C139.109 586.757 139.149 587.724 138.95 588.938L137.279 599H134.933L135.291 596.932H135.172C134.959 597.263 134.635 597.618 134.197 597.996C133.766 598.374 133.219 598.695 132.556 598.96C131.9 599.225 131.128 599.358 130.24 599.358ZM130.916 597.25C131.844 597.25 132.656 597.068 133.352 596.703C134.055 596.339 134.618 595.868 135.042 595.291C135.473 594.714 135.742 594.108 135.848 593.472L136.206 591.324C136.086 591.443 135.851 591.553 135.5 591.652C135.148 591.745 134.751 591.828 134.306 591.901C133.869 591.967 133.441 592.027 133.024 592.08C132.613 592.126 132.281 592.166 132.029 592.199C131.406 592.278 130.813 592.408 130.25 592.587C129.693 592.759 129.222 593.021 128.838 593.372C128.46 593.717 128.225 594.187 128.132 594.784C127.993 595.599 128.188 596.216 128.718 596.634C129.249 597.045 129.981 597.25 130.916 597.25ZM154.369 587.148L152.142 587.744C152.063 587.386 151.923 587.042 151.724 586.71C151.532 586.372 151.234 586.097 150.83 585.885C150.432 585.666 149.888 585.557 149.199 585.557C148.264 585.557 147.452 585.772 146.763 586.203C146.073 586.627 145.679 587.168 145.58 587.824C145.48 588.401 145.613 588.861 145.977 589.206C146.342 589.551 146.952 589.832 147.807 590.051L149.994 590.608C151.307 590.946 152.241 591.453 152.798 592.129C153.362 592.799 153.554 593.67 153.375 594.744C153.229 595.619 152.848 596.402 152.232 597.091C151.615 597.78 150.826 598.324 149.865 598.722C148.904 599.119 147.833 599.318 146.653 599.318C145.082 599.318 143.843 598.98 142.935 598.304C142.027 597.621 141.543 596.634 141.483 595.341L143.83 594.784C143.889 595.599 144.181 596.216 144.705 596.634C145.235 597.045 145.977 597.25 146.932 597.25C148.026 597.25 148.937 597.018 149.666 596.554C150.395 596.083 150.81 595.52 150.909 594.864C151.009 594.327 150.902 593.879 150.591 593.521C150.286 593.163 149.756 592.895 149 592.716L146.574 592.119C145.222 591.781 144.274 591.264 143.73 590.568C143.193 589.872 143.014 588.997 143.193 587.943C143.339 587.081 143.71 586.319 144.307 585.656C144.91 584.993 145.666 584.473 146.574 584.095C147.489 583.717 148.483 583.528 149.557 583.528C151.068 583.528 152.198 583.86 152.947 584.523C153.696 585.179 154.17 586.054 154.369 587.148ZM165.379 583.727L165.061 585.716H157.146L157.464 583.727H165.379ZM160.368 580.068H162.714L160.288 594.625C160.182 595.288 160.199 595.785 160.338 596.116C160.484 596.441 160.702 596.66 160.994 596.773C161.292 596.879 161.614 596.932 161.958 596.932C162.217 596.932 162.429 596.919 162.595 596.892C162.761 596.859 162.893 596.832 162.993 596.812L163.152 598.92C162.973 598.98 162.731 599.04 162.426 599.099C162.127 599.166 161.76 599.199 161.322 599.199C160.659 599.199 160.036 599.056 159.453 598.771C158.869 598.486 158.422 598.052 158.11 597.469C157.799 596.885 157.716 596.15 157.862 595.261L160.368 580.068ZM172.563 599.318C171.098 599.318 169.888 598.993 168.934 598.344C167.979 597.688 167.313 596.773 166.935 595.599C166.557 594.42 166.498 593.047 166.756 591.483C167.015 589.919 167.528 588.54 168.297 587.347C169.066 586.147 170.024 585.212 171.171 584.543C172.318 583.866 173.577 583.528 174.949 583.528C175.745 583.528 176.51 583.661 177.246 583.926C177.982 584.191 178.618 584.622 179.155 585.219C179.692 585.809 180.067 586.591 180.279 587.565C180.491 588.54 180.478 589.74 180.239 591.165L180.08 592.159H168.307L168.625 590.131H178.012C178.164 589.269 178.124 588.5 177.892 587.824C177.667 587.148 177.273 586.614 176.709 586.223C176.152 585.832 175.446 585.636 174.591 585.636C173.71 585.636 172.888 585.875 172.125 586.352C171.363 586.823 170.727 587.42 170.216 588.142C169.706 588.858 169.388 589.587 169.262 590.33L168.983 592.08C168.784 593.346 168.814 594.353 169.073 595.102C169.338 595.851 169.799 596.392 170.455 596.723C171.111 597.048 171.933 597.21 172.921 597.21C173.551 597.21 174.131 597.124 174.661 596.952C175.191 596.773 175.665 596.508 176.083 596.156C176.5 595.798 176.852 595.354 177.137 594.824L179.284 595.46C178.92 596.229 178.406 596.905 177.743 597.489C177.087 598.065 176.318 598.516 175.436 598.841C174.561 599.159 173.604 599.318 172.563 599.318ZM182.551 599L185.096 583.727H187.363L186.966 586.034H187.125C187.522 585.278 188.129 584.665 188.944 584.195C189.76 583.724 190.625 583.489 191.539 583.489C191.718 583.489 191.934 583.492 192.186 583.499C192.438 583.499 192.633 583.509 192.772 583.528L192.375 585.915C192.295 585.895 192.116 585.865 191.838 585.825C191.559 585.779 191.261 585.756 190.943 585.756C190.2 585.756 189.514 585.911 188.885 586.223C188.255 586.528 187.728 586.952 187.304 587.496C186.879 588.033 186.608 588.646 186.488 589.335L184.897 599H182.551ZM198.433 578.636L197.279 585.636H195.092L196.245 578.636H198.433ZM212.037 587.148L209.81 587.744C209.73 587.386 209.591 587.042 209.392 586.71C209.2 586.372 208.902 586.097 208.498 585.885C208.1 585.666 207.556 585.557 206.867 585.557C205.932 585.557 205.12 585.772 204.431 586.203C203.741 586.627 203.347 587.168 203.248 587.824C203.148 588.401 203.281 588.861 203.645 589.206C204.01 589.551 204.62 589.832 205.475 590.051L207.662 590.608C208.975 590.946 209.909 591.453 210.466 592.129C211.03 592.799 211.222 593.67 211.043 594.744C210.897 595.619 210.516 596.402 209.9 597.091C209.283 597.78 208.494 598.324 207.533 598.722C206.572 599.119 205.501 599.318 204.321 599.318C202.75 599.318 201.511 598.98 200.603 598.304C199.694 597.621 199.211 596.634 199.151 595.341L201.498 594.784C201.557 595.599 201.849 596.216 202.373 596.634C202.903 597.045 203.645 597.25 204.6 597.25C205.694 597.25 206.605 597.018 207.334 596.554C208.063 596.083 208.478 595.52 208.577 594.864C208.676 594.327 208.57 593.879 208.259 593.521C207.954 593.163 207.424 592.895 206.668 592.716L204.242 592.119C202.89 591.781 201.942 591.264 201.398 590.568C200.861 589.872 200.682 588.997 200.861 587.943C201.007 587.081 201.378 586.319 201.975 585.656C202.578 584.993 203.334 584.473 204.242 584.095C205.157 583.717 206.151 583.528 207.225 583.528C208.736 583.528 209.866 583.86 210.615 584.523C211.364 585.179 211.838 586.054 212.037 587.148ZM220.78 604.727L224.3 583.727H226.567L226.169 586.153H226.447C226.66 585.888 226.951 585.55 227.322 585.139C227.7 584.722 228.207 584.35 228.844 584.026C229.487 583.694 230.305 583.528 231.3 583.528C232.586 583.528 233.663 583.85 234.531 584.493C235.4 585.136 236.013 586.047 236.371 587.227C236.729 588.407 236.775 589.799 236.51 591.403C236.245 593.021 235.738 594.423 234.989 595.609C234.24 596.789 233.325 597.704 232.244 598.354C231.164 598.997 229.987 599.318 228.714 599.318C227.733 599.318 226.974 599.156 226.438 598.831C225.901 598.5 225.509 598.125 225.264 597.707C225.019 597.283 224.83 596.932 224.697 596.653H224.499L223.146 604.727H220.78ZM225.334 591.364C225.148 592.517 225.148 593.535 225.334 594.416C225.526 595.291 225.907 595.977 226.477 596.474C227.054 596.965 227.813 597.21 228.754 597.21C229.735 597.21 230.594 596.952 231.33 596.435C232.072 595.911 232.682 595.208 233.159 594.327C233.643 593.438 233.978 592.451 234.163 591.364C234.336 590.29 234.329 589.322 234.143 588.46C233.958 587.592 233.58 586.906 233.01 586.402C232.44 585.892 231.658 585.636 230.663 585.636C229.709 585.636 228.864 585.878 228.128 586.362C227.399 586.839 226.795 587.509 226.318 588.371C225.848 589.226 225.519 590.223 225.334 591.364ZM238.824 599L241.37 583.727H243.637L243.239 586.034H243.398C243.796 585.278 244.402 584.665 245.218 584.195C246.033 583.724 246.898 583.489 247.813 583.489C247.992 583.489 248.207 583.492 248.459 583.499C248.711 583.499 248.907 583.509 249.046 583.528L248.648 585.915C248.569 585.895 248.39 585.865 248.111 585.825C247.833 585.779 247.534 585.756 247.216 585.756C246.474 585.756 245.788 585.911 245.158 586.223C244.528 586.528 244.001 586.952 243.577 587.496C243.153 588.033 242.881 588.646 242.762 589.335L241.171 599H238.824ZM255.136 599.318C253.731 599.318 252.554 598.983 251.606 598.314C250.658 597.644 249.989 596.706 249.598 595.5C249.213 594.294 249.15 592.888 249.409 591.284C249.661 589.72 250.161 588.357 250.91 587.197C251.666 586.031 252.604 585.129 253.724 584.493C254.851 583.85 256.091 583.528 257.443 583.528C258.848 583.528 260.021 583.866 260.963 584.543C261.911 585.212 262.58 586.153 262.971 587.366C263.362 588.573 263.429 589.985 263.17 591.602C262.918 593.153 262.411 594.509 261.649 595.669C260.893 596.822 259.955 597.721 258.835 598.364C257.721 599 256.488 599.318 255.136 599.318ZM255.176 597.21C256.25 597.21 257.181 596.935 257.97 596.385C258.765 595.835 259.408 595.109 259.899 594.207C260.396 593.306 260.731 592.331 260.903 591.284C261.062 590.29 261.056 589.365 260.883 588.51C260.711 587.648 260.343 586.955 259.779 586.432C259.216 585.902 258.424 585.636 257.403 585.636C256.329 585.636 255.391 585.915 254.589 586.472C253.794 587.028 253.151 587.761 252.66 588.669C252.17 589.577 251.842 590.555 251.676 591.602C251.517 592.597 251.52 593.521 251.686 594.376C251.858 595.225 252.226 595.911 252.789 596.435C253.359 596.952 254.155 597.21 255.176 597.21ZM270.749 605.045C269.609 605.045 268.655 604.9 267.886 604.608C267.117 604.323 266.5 603.945 266.036 603.474C265.572 603.01 265.221 602.513 264.982 601.983L267.09 600.67C267.249 600.949 267.455 601.267 267.707 601.625C267.959 601.99 268.34 602.304 268.85 602.57C269.367 602.841 270.093 602.977 271.028 602.977C272.254 602.977 273.328 602.679 274.249 602.082C275.171 601.486 275.741 600.551 275.96 599.278L276.437 596.176H276.238C276.026 596.455 275.731 596.799 275.353 597.21C274.975 597.615 274.468 597.976 273.832 598.294C273.195 598.606 272.38 598.761 271.386 598.761C270.146 598.761 269.085 598.47 268.204 597.886C267.322 597.303 266.689 596.455 266.305 595.341C265.927 594.227 265.871 592.875 266.136 591.284C266.394 589.72 266.891 588.357 267.627 587.197C268.37 586.031 269.284 585.129 270.371 584.493C271.459 583.85 272.645 583.528 273.931 583.528C274.925 583.528 275.688 583.694 276.218 584.026C276.755 584.35 277.146 584.722 277.391 585.139C277.637 585.55 277.822 585.888 277.948 586.153H278.187L278.585 583.727H280.852L278.266 599.438C278.048 600.75 277.574 601.817 276.844 602.639C276.115 603.468 275.22 604.074 274.16 604.459C273.099 604.85 271.962 605.045 270.749 605.045ZM271.982 596.653C272.917 596.653 273.749 596.438 274.478 596.007C275.214 595.576 275.824 594.956 276.308 594.148C276.791 593.339 277.126 592.371 277.312 591.244C277.497 590.144 277.484 589.173 277.272 588.331C277.06 587.489 276.659 586.83 276.069 586.352C275.486 585.875 274.72 585.636 273.772 585.636C272.771 585.636 271.906 585.888 271.177 586.392C270.454 586.896 269.868 587.572 269.417 588.42C268.966 589.269 268.655 590.21 268.482 591.244C268.31 592.305 268.317 593.243 268.502 594.058C268.688 594.867 269.066 595.503 269.636 595.967C270.212 596.425 270.995 596.653 271.982 596.653ZM282.602 599L285.147 583.727H287.414L287.016 586.034H287.175C287.573 585.278 288.18 584.665 288.995 584.195C289.81 583.724 290.675 583.489 291.59 583.489C291.769 583.489 291.985 583.492 292.237 583.499C292.488 583.499 292.684 583.509 292.823 583.528L292.425 585.915C292.346 585.895 292.167 585.865 291.888 585.825C291.61 585.779 291.312 585.756 290.994 585.756C290.251 585.756 289.565 585.911 288.935 586.223C288.306 586.528 287.779 586.952 287.354 587.496C286.93 588.033 286.658 588.646 286.539 589.335L284.948 599H282.602ZM297.529 599.358C296.561 599.358 295.712 599.176 294.983 598.811C294.254 598.44 293.714 597.906 293.363 597.21C293.011 596.508 292.915 595.659 293.074 594.665C293.227 593.79 293.522 593.08 293.959 592.537C294.397 591.987 294.927 591.556 295.55 591.244C296.18 590.926 296.856 590.691 297.578 590.538C298.308 590.379 299.033 590.257 299.756 590.17C300.697 590.051 301.463 589.958 302.053 589.892C302.643 589.826 303.087 589.716 303.385 589.564C303.684 589.411 303.866 589.15 303.932 588.778V588.699C304.091 587.724 303.962 586.965 303.544 586.422C303.127 585.872 302.381 585.597 301.307 585.597C300.194 585.597 299.262 585.842 298.513 586.332C297.764 586.823 297.211 587.347 296.853 587.903L294.784 587.108C295.328 586.18 295.978 585.457 296.733 584.94C297.489 584.417 298.281 584.052 299.11 583.847C299.938 583.634 300.737 583.528 301.506 583.528C301.997 583.528 302.55 583.588 303.167 583.707C303.783 583.82 304.36 584.055 304.897 584.413C305.44 584.771 305.848 585.312 306.12 586.034C306.398 586.757 306.438 587.724 306.239 588.938L304.569 599H302.222L302.58 596.932H302.461C302.248 597.263 301.924 597.618 301.486 597.996C301.055 598.374 300.508 598.695 299.846 598.96C299.189 599.225 298.417 599.358 297.529 599.358ZM298.205 597.25C299.133 597.25 299.945 597.068 300.641 596.703C301.344 596.339 301.907 595.868 302.331 595.291C302.762 594.714 303.031 594.108 303.137 593.472L303.495 591.324C303.375 591.443 303.14 591.553 302.789 591.652C302.437 591.745 302.04 591.828 301.596 591.901C301.158 591.967 300.73 592.027 300.313 592.08C299.902 592.126 299.57 592.166 299.319 592.199C298.695 592.278 298.102 592.408 297.539 592.587C296.982 592.759 296.511 593.021 296.127 593.372C295.749 593.717 295.514 594.187 295.421 594.784C295.282 595.599 295.477 596.216 296.007 596.634C296.538 597.045 297.27 597.25 298.205 597.25ZM308.852 599L311.397 583.727H313.664L313.266 586.114H313.465C313.923 585.298 314.542 584.665 315.325 584.214C316.113 583.757 317.005 583.528 317.999 583.528C318.994 583.528 319.792 583.757 320.396 584.214C320.999 584.665 321.42 585.298 321.658 586.114H321.817C322.335 585.318 323.024 584.688 323.886 584.224C324.754 583.76 325.735 583.528 326.829 583.528C328.181 583.528 329.222 583.956 329.951 584.811C330.687 585.666 330.906 586.989 330.607 588.778L328.897 599H326.55L328.261 588.778C328.44 587.645 328.261 586.839 327.724 586.362C327.193 585.878 326.511 585.636 325.675 585.636C324.602 585.636 323.717 585.958 323.021 586.601C322.325 587.244 321.897 588.062 321.738 589.057L320.067 599H317.681L319.431 588.54C319.57 587.665 319.405 586.962 318.934 586.432C318.463 585.902 317.781 585.636 316.886 585.636C316.276 585.636 315.679 585.802 315.096 586.134C314.513 586.458 314.012 586.909 313.594 587.486C313.177 588.056 312.908 588.712 312.789 589.455L311.198 599H308.852ZM345.994 587.148L343.767 587.744C343.688 587.386 343.548 587.042 343.349 586.71C343.157 586.372 342.859 586.097 342.455 585.885C342.057 585.666 341.513 585.557 340.824 585.557C339.889 585.557 339.077 585.772 338.388 586.203C337.698 586.627 337.304 587.168 337.205 587.824C337.105 588.401 337.238 588.861 337.602 589.206C337.967 589.551 338.577 589.832 339.432 590.051L341.619 590.608C342.932 590.946 343.866 591.453 344.423 592.129C344.987 592.799 345.179 593.67 345 594.744C344.854 595.619 344.473 596.402 343.857 597.091C343.24 597.78 342.451 598.324 341.49 598.722C340.529 599.119 339.458 599.318 338.278 599.318C336.707 599.318 335.468 598.98 334.56 598.304C333.652 597.621 333.168 596.634 333.108 595.341L335.455 594.784C335.514 595.599 335.806 596.216 336.33 596.634C336.86 597.045 337.602 597.25 338.557 597.25C339.651 597.25 340.562 597.018 341.291 596.554C342.02 596.083 342.435 595.52 342.534 594.864C342.634 594.327 342.527 593.879 342.216 593.521C341.911 593.163 341.381 592.895 340.625 592.716L338.199 592.119C336.847 591.781 335.899 591.264 335.355 590.568C334.818 589.872 334.639 588.997 334.818 587.943C334.964 587.081 335.335 586.319 335.932 585.656C336.535 584.993 337.291 584.473 338.199 584.095C339.114 583.717 340.108 583.528 341.182 583.528C342.693 583.528 343.823 583.86 344.572 584.523C345.321 585.179 345.795 586.054 345.994 587.148ZM358.893 591.861C358.389 591.861 357.968 591.688 357.63 591.344C357.292 590.992 357.117 590.568 357.103 590.071C357.097 589.574 357.272 589.16 357.63 588.828C357.988 588.49 358.409 588.321 358.893 588.321C359.384 588.321 359.808 588.493 360.166 588.838C360.524 589.183 360.696 589.594 360.683 590.071C360.676 590.402 360.59 590.704 360.424 590.976C360.265 591.248 360.05 591.463 359.778 591.622C359.513 591.781 359.218 591.861 358.893 591.861ZM377.959 599H371.596L374.976 578.636H381.459C383.435 578.636 385.062 579.051 386.341 579.879C387.627 580.708 388.522 581.891 389.026 583.429C389.536 584.967 389.613 586.803 389.255 588.938C388.91 591.032 388.24 592.832 387.246 594.337C386.258 595.835 384.979 596.988 383.408 597.797C381.844 598.599 380.027 599 377.959 599ZM374.429 596.812H378.039C379.722 596.812 381.174 596.481 382.394 595.818C383.62 595.155 384.608 594.211 385.357 592.984C386.113 591.758 386.63 590.303 386.908 588.619C387.186 587.002 387.16 585.613 386.828 584.453C386.504 583.286 385.864 582.392 384.909 581.768C383.962 581.139 382.692 580.824 381.101 580.824H377.074L374.429 596.812ZM397.766 599.318C396.301 599.318 395.091 598.993 394.137 598.344C393.182 597.688 392.516 596.773 392.138 595.599C391.76 594.42 391.701 593.047 391.959 591.483C392.218 589.919 392.731 588.54 393.5 587.347C394.269 586.147 395.227 585.212 396.374 584.543C397.521 583.866 398.78 583.528 400.152 583.528C400.948 583.528 401.713 583.661 402.449 583.926C403.185 584.191 403.821 584.622 404.358 585.219C404.895 585.809 405.27 586.591 405.482 587.565C405.694 588.54 405.681 589.74 405.442 591.165L405.283 592.159H393.51L393.828 590.131H403.215C403.367 589.269 403.328 588.5 403.096 587.824C402.87 587.148 402.476 586.614 401.912 586.223C401.355 585.832 400.65 585.636 399.794 585.636C398.913 585.636 398.091 585.875 397.328 586.352C396.566 586.823 395.93 587.42 395.419 588.142C394.909 588.858 394.591 589.587 394.465 590.33L394.186 592.08C393.988 593.346 394.017 594.353 394.276 595.102C394.541 595.851 395.002 596.392 395.658 596.723C396.314 597.048 397.136 597.21 398.124 597.21C398.754 597.21 399.334 597.124 399.864 596.952C400.394 596.773 400.868 596.508 401.286 596.156C401.703 595.798 402.055 595.354 402.34 594.824L404.488 595.46C404.123 596.229 403.609 596.905 402.946 597.489C402.29 598.065 401.521 598.516 400.64 598.841C399.765 599.159 398.807 599.318 397.766 599.318ZM414.118 599.318C412.653 599.318 411.443 598.993 410.488 598.344C409.534 597.688 408.868 596.773 408.49 595.599C408.112 594.42 408.052 593.047 408.311 591.483C408.569 589.919 409.083 588.54 409.852 587.347C410.621 586.147 411.579 585.212 412.725 584.543C413.872 583.866 415.132 583.528 416.504 583.528C417.299 583.528 418.065 583.661 418.801 583.926C419.537 584.191 420.173 584.622 420.71 585.219C421.247 585.809 421.621 586.591 421.833 587.565C422.046 588.54 422.032 589.74 421.794 591.165L421.635 592.159H409.862L410.18 590.131H419.566C419.719 589.269 419.679 588.5 419.447 587.824C419.222 587.148 418.827 586.614 418.264 586.223C417.707 585.832 417.001 585.636 416.146 585.636C415.264 585.636 414.442 585.875 413.68 586.352C412.918 586.823 412.281 587.42 411.771 588.142C411.261 588.858 410.942 589.587 410.816 590.33L410.538 592.08C410.339 593.346 410.369 594.353 410.627 595.102C410.893 595.851 411.353 596.392 412.01 596.723C412.666 597.048 413.488 597.21 414.475 597.21C415.105 597.21 415.685 597.124 416.216 596.952C416.746 596.773 417.22 596.508 417.637 596.156C418.055 595.798 418.406 595.354 418.691 594.824L420.839 595.46C420.475 596.229 419.961 596.905 419.298 597.489C418.642 598.065 417.873 598.516 416.991 598.841C416.116 599.159 415.158 599.318 414.118 599.318ZM423.151 604.727L426.671 583.727H428.938L428.54 586.153H428.819C429.031 585.888 429.322 585.55 429.694 585.139C430.071 584.722 430.578 584.35 431.215 584.026C431.858 583.694 432.676 583.528 433.671 583.528C434.957 583.528 436.034 583.85 436.902 584.493C437.771 585.136 438.384 586.047 438.742 587.227C439.1 588.407 439.146 589.799 438.881 591.403C438.616 593.021 438.109 594.423 437.36 595.609C436.611 596.789 435.696 597.704 434.615 598.354C433.535 598.997 432.358 599.318 431.086 599.318C430.105 599.318 429.346 599.156 428.809 598.831C428.272 598.5 427.881 598.125 427.635 597.707C427.39 597.283 427.201 596.932 427.069 596.653H426.87L425.517 604.727H423.151ZM427.705 591.364C427.519 592.517 427.519 593.535 427.705 594.416C427.897 595.291 428.278 595.977 428.848 596.474C429.425 596.965 430.184 597.21 431.125 597.21C432.106 597.21 432.965 596.952 433.701 596.435C434.443 595.911 435.053 595.208 435.53 594.327C436.014 593.438 436.349 592.451 436.534 591.364C436.707 590.29 436.7 589.322 436.515 588.46C436.329 587.592 435.951 586.906 435.381 586.402C434.811 585.892 434.029 585.636 433.034 585.636C432.08 585.636 431.235 585.878 430.499 586.362C429.77 586.839 429.167 587.509 428.689 588.371C428.219 589.226 427.891 590.223 427.705 591.364ZM441.513 599L444.894 578.636H447.36L444.337 596.812H453.803L453.445 599H441.513ZM468.022 591.861C467.518 591.861 467.097 591.688 466.759 591.344C466.421 590.992 466.246 590.568 466.232 590.071C466.226 589.574 466.401 589.16 466.759 588.828C467.117 588.49 467.538 588.321 468.022 588.321C468.513 588.321 468.937 588.493 469.295 588.838C469.653 589.183 469.825 589.594 469.812 590.071C469.805 590.402 469.719 590.704 469.553 590.976C469.394 591.248 469.179 591.463 468.907 591.622C468.642 591.781 468.347 591.861 468.022 591.861ZM482.634 580.824L482.991 578.636H498.264L497.906 580.824H491.503L488.48 599H486.014L489.037 580.824H482.634ZM496.785 599L499.331 583.727H501.598L501.2 586.034H501.359C501.757 585.278 502.363 584.665 503.179 584.195C503.994 583.724 504.859 583.489 505.774 583.489C505.953 583.489 506.168 583.492 506.42 583.499C506.672 583.499 506.868 583.509 507.007 583.528L506.609 585.915C506.529 585.895 506.35 585.865 506.072 585.825C505.794 585.779 505.495 585.756 505.177 585.756C504.435 585.756 503.749 585.911 503.119 586.223C502.489 586.528 501.962 586.952 501.538 587.496C501.114 588.033 500.842 588.646 500.723 589.335L499.132 599H496.785ZM511.712 599.358C510.745 599.358 509.896 599.176 509.167 598.811C508.438 598.44 507.897 597.906 507.546 597.21C507.195 596.508 507.099 595.659 507.258 594.665C507.41 593.79 507.705 593.08 508.143 592.537C508.58 591.987 509.111 591.556 509.734 591.244C510.363 590.926 511.04 590.691 511.762 590.538C512.491 590.379 513.217 590.257 513.94 590.17C514.881 590.051 515.647 589.958 516.237 589.892C516.826 589.826 517.271 589.716 517.569 589.564C517.867 589.411 518.049 589.15 518.116 588.778V588.699C518.275 587.724 518.146 586.965 517.728 586.422C517.31 585.872 516.565 585.597 515.491 585.597C514.377 585.597 513.446 585.842 512.697 586.332C511.948 586.823 511.394 587.347 511.036 587.903L508.968 587.108C509.512 586.18 510.161 585.457 510.917 584.94C511.673 584.417 512.465 584.052 513.293 583.847C514.122 583.634 514.921 583.528 515.69 583.528C516.18 583.528 516.734 583.588 517.35 583.707C517.967 583.82 518.543 584.055 519.08 584.413C519.624 584.771 520.031 585.312 520.303 586.034C520.582 586.757 520.621 587.724 520.423 588.938L518.752 599H516.406L516.763 596.932H516.644C516.432 597.263 516.107 597.618 515.67 597.996C515.239 598.374 514.692 598.695 514.029 598.96C513.373 599.225 512.601 599.358 511.712 599.358ZM512.388 597.25C513.317 597.25 514.129 597.068 514.825 596.703C515.527 596.339 516.091 595.868 516.515 595.291C516.946 594.714 517.214 594.108 517.32 593.472L517.678 591.324C517.559 591.443 517.324 591.553 516.972 591.652C516.621 591.745 516.223 591.828 515.779 591.901C515.342 591.967 514.914 592.027 514.496 592.08C514.085 592.126 513.754 592.166 513.502 592.199C512.879 592.278 512.286 592.408 511.722 592.587C511.165 592.759 510.695 593.021 510.31 593.372C509.933 593.717 509.697 594.187 509.604 594.784C509.465 595.599 509.661 596.216 510.191 596.634C510.721 597.045 511.454 597.25 512.388 597.25ZM528.782 599.318C527.503 599.318 526.429 598.997 525.561 598.354C524.692 597.704 524.079 596.789 523.721 595.609C523.37 594.423 523.327 593.021 523.592 591.403C523.864 589.799 524.371 588.407 525.113 587.227C525.862 586.047 526.78 585.136 527.868 584.493C528.955 583.85 530.141 583.528 531.427 583.528C532.422 583.528 533.181 583.694 533.704 584.026C534.234 584.35 534.619 584.722 534.858 585.139C535.096 585.55 535.279 585.888 535.404 586.153H535.603L536.856 578.636H539.203L535.822 599H533.555L533.953 596.653H533.674C533.456 596.932 533.151 597.283 532.76 597.707C532.368 598.125 531.851 598.5 531.208 598.831C530.572 599.156 529.763 599.318 528.782 599.318ZM529.359 597.21C530.3 597.21 531.142 596.965 531.885 596.474C532.634 595.977 533.257 595.291 533.754 594.416C534.251 593.535 534.596 592.517 534.788 591.364C534.98 590.223 534.974 589.226 534.768 588.371C534.563 587.509 534.168 586.839 533.585 586.362C533.002 585.878 532.229 585.636 531.268 585.636C530.28 585.636 529.422 585.892 528.693 586.402C527.964 586.906 527.37 587.592 526.913 588.46C526.456 589.322 526.137 590.29 525.958 591.364C525.779 592.451 525.776 593.438 525.949 594.327C526.121 595.208 526.485 595.911 527.042 596.435C527.606 596.952 528.378 597.21 529.359 597.21ZM546.73 599.318C545.324 599.318 544.148 598.983 543.2 598.314C542.252 597.644 541.583 596.706 541.191 595.5C540.807 594.294 540.744 592.888 541.002 591.284C541.254 589.72 541.755 588.357 542.504 587.197C543.26 586.031 544.198 585.129 545.318 584.493C546.445 583.85 547.684 583.528 549.037 583.528C550.442 583.528 551.615 583.866 552.556 584.543C553.504 585.212 554.174 586.153 554.565 587.366C554.956 588.573 555.022 589.985 554.764 591.602C554.512 593.153 554.005 594.509 553.243 595.669C552.487 596.822 551.549 597.721 550.429 598.364C549.315 599 548.082 599.318 546.73 599.318ZM546.77 597.21C547.843 597.21 548.775 596.935 549.564 596.385C550.359 595.835 551.002 595.109 551.493 594.207C551.99 593.306 552.324 592.331 552.497 591.284C552.656 590.29 552.649 589.365 552.477 588.51C552.305 587.648 551.937 586.955 551.373 586.432C550.81 585.902 550.018 585.636 548.997 585.636C547.923 585.636 546.985 585.915 546.183 586.472C545.387 587.028 544.744 587.761 544.254 588.669C543.763 589.577 543.435 590.555 543.27 591.602C543.11 592.597 543.114 593.521 543.279 594.376C543.452 595.225 543.82 595.911 544.383 596.435C544.953 596.952 545.749 597.21 546.77 597.21ZM569.94 587.148L567.712 587.744C567.633 587.386 567.494 587.042 567.295 586.71C567.103 586.372 566.804 586.097 566.4 585.885C566.002 585.666 565.459 585.557 564.769 585.557C563.835 585.557 563.022 585.772 562.333 586.203C561.644 586.627 561.249 587.168 561.15 587.824C561.05 588.401 561.183 588.861 561.548 589.206C561.912 589.551 562.522 589.832 563.377 590.051L565.565 590.608C566.877 590.946 567.812 591.453 568.369 592.129C568.932 592.799 569.124 593.67 568.945 594.744C568.799 595.619 568.418 596.402 567.802 597.091C567.185 597.78 566.397 598.324 565.435 598.722C564.474 599.119 563.404 599.318 562.224 599.318C560.653 599.318 559.413 598.98 558.505 598.304C557.597 597.621 557.113 596.634 557.053 595.341L559.4 594.784C559.46 595.599 559.751 596.216 560.275 596.634C560.805 597.045 561.548 597.25 562.502 597.25C563.596 597.25 564.507 597.018 565.237 596.554C565.966 596.083 566.38 595.52 566.479 594.864C566.579 594.327 566.473 593.879 566.161 593.521C565.856 593.163 565.326 592.895 564.57 592.716L562.144 592.119C560.792 591.781 559.844 591.264 559.3 590.568C558.763 589.872 558.585 588.997 558.763 587.943C558.909 587.081 559.281 586.319 559.877 585.656C560.48 584.993 561.236 584.473 562.144 584.095C563.059 583.717 564.053 583.528 565.127 583.528C566.638 583.528 567.769 583.86 568.518 584.523C569.267 585.179 569.741 586.054 569.94 587.148ZM582.838 591.861C582.335 591.861 581.914 591.688 581.576 591.344C581.238 590.992 581.062 590.568 581.049 590.071C581.042 589.574 581.218 589.16 581.576 588.828C581.934 588.49 582.355 588.321 582.838 588.321C583.329 588.321 583.753 588.493 584.111 588.838C584.469 589.183 584.641 589.594 584.628 590.071C584.622 590.402 584.535 590.704 584.37 590.976C584.211 591.248 583.995 591.463 583.723 591.622C583.458 591.781 583.163 591.861 582.838 591.861ZM601.387 578.636L598.007 599H595.541L598.922 578.636H601.387ZM606.491 589.812L604.979 599H602.633L605.178 583.727H607.445L607.048 586.114H607.246C607.724 585.338 608.37 584.715 609.185 584.244C610.001 583.767 610.985 583.528 612.138 583.528C613.159 583.528 614.021 583.741 614.724 584.165C615.433 584.582 615.933 585.219 616.225 586.074C616.523 586.922 616.567 587.996 616.354 589.295L614.724 599H612.377L613.968 589.455C614.167 588.261 614.011 587.327 613.501 586.651C612.997 585.974 612.198 585.636 611.104 585.636C610.349 585.636 609.649 585.799 609.006 586.124C608.37 586.448 607.83 586.922 607.386 587.545C606.948 588.169 606.65 588.924 606.491 589.812ZM625.694 599H619.33L622.711 578.636H629.194C631.169 578.636 632.796 579.051 634.076 579.879C635.362 580.708 636.257 581.891 636.76 583.429C637.271 584.967 637.347 586.803 636.989 588.938C636.644 591.032 635.975 592.832 634.98 594.337C633.993 595.835 632.713 596.988 631.142 597.797C629.578 598.599 627.762 599 625.694 599ZM622.164 596.812H625.773C627.457 596.812 628.908 596.481 630.128 595.818C631.355 595.155 632.342 594.211 633.091 592.984C633.847 591.758 634.364 590.303 634.642 588.619C634.921 587.002 634.894 585.613 634.563 584.453C634.238 583.286 633.598 582.392 632.644 581.768C631.696 581.139 630.426 580.824 628.836 580.824H624.809L622.164 596.812ZM645.5 599.318C644.035 599.318 642.826 598.993 641.871 598.344C640.917 597.688 640.25 596.773 639.873 595.599C639.495 594.42 639.435 593.047 639.694 591.483C639.952 589.919 640.466 588.54 641.235 587.347C642.004 586.147 642.962 585.212 644.108 584.543C645.255 583.866 646.515 583.528 647.887 583.528C648.682 583.528 649.448 583.661 650.184 583.926C650.919 584.191 651.556 584.622 652.093 585.219C652.63 585.809 653.004 586.591 653.216 587.565C653.428 588.54 653.415 589.74 653.176 591.165L653.017 592.159H641.245L641.563 590.131H650.949C651.102 589.269 651.062 588.5 650.83 587.824C650.605 587.148 650.21 586.614 649.647 586.223C649.09 585.832 648.384 585.636 647.529 585.636C646.647 585.636 645.825 585.875 645.063 586.352C644.301 586.823 643.664 587.42 643.154 588.142C642.643 588.858 642.325 589.587 642.199 590.33L641.921 592.08C641.722 593.346 641.752 594.353 642.01 595.102C642.275 595.851 642.736 596.392 643.392 596.723C644.049 597.048 644.871 597.21 645.858 597.21C646.488 597.21 647.068 597.124 647.598 596.952C648.129 596.773 648.603 596.508 649.02 596.156C649.438 595.798 649.789 595.354 650.074 594.824L652.222 595.46C651.857 596.229 651.344 596.905 650.681 597.489C650.025 598.065 649.256 598.516 648.374 598.841C647.499 599.159 646.541 599.318 645.5 599.318ZM668.295 587.148L666.068 587.744C665.988 587.386 665.849 587.042 665.65 586.71C665.458 586.372 665.16 586.097 664.755 585.885C664.358 585.666 663.814 585.557 663.125 585.557C662.19 585.557 661.378 585.772 660.689 586.203C659.999 586.627 659.605 587.168 659.505 587.824C659.406 588.401 659.538 588.861 659.903 589.206C660.268 589.551 660.877 589.832 661.733 590.051L663.92 590.608C665.233 590.946 666.167 591.453 666.724 592.129C667.288 592.799 667.48 593.67 667.301 594.744C667.155 595.619 666.774 596.402 666.157 597.091C665.541 597.78 664.752 598.324 663.791 598.722C662.83 599.119 661.759 599.318 660.579 599.318C659.008 599.318 657.769 598.98 656.86 598.304C655.952 597.621 655.468 596.634 655.409 595.341L657.755 594.784C657.815 595.599 658.107 596.216 658.63 596.634C659.161 597.045 659.903 597.25 660.858 597.25C661.951 597.25 662.863 597.018 663.592 596.554C664.321 596.083 664.735 595.52 664.835 594.864C664.934 594.327 664.828 593.879 664.517 593.521C664.212 593.163 663.681 592.895 662.926 592.716L660.5 592.119C659.147 591.781 658.199 591.264 657.656 590.568C657.119 589.872 656.94 588.997 657.119 587.943C657.265 587.081 657.636 586.319 658.233 585.656C658.836 584.993 659.592 584.473 660.5 584.095C661.414 583.717 662.409 583.528 663.483 583.528C664.994 583.528 666.124 583.86 666.873 584.523C667.622 585.179 668.096 586.054 668.295 587.148ZM670.117 599L672.663 583.727H675.009L672.464 599H670.117ZM674.552 581.142C674.094 581.142 673.7 580.986 673.369 580.675C673.044 580.363 672.881 579.989 672.881 579.551C672.881 579.114 673.044 578.739 673.369 578.428C673.7 578.116 674.094 577.96 674.552 577.96C675.009 577.96 675.4 578.116 675.725 578.428C676.057 578.739 676.222 579.114 676.222 579.551C676.222 579.989 676.057 580.363 675.725 580.675C675.4 580.986 675.009 581.142 674.552 581.142ZM681.972 605.045C680.832 605.045 679.877 604.9 679.108 604.608C678.339 604.323 677.723 603.945 677.259 603.474C676.795 603.01 676.444 602.513 676.205 601.983L678.313 600.67C678.472 600.949 678.677 601.267 678.929 601.625C679.181 601.99 679.562 602.304 680.073 602.57C680.59 602.841 681.316 602.977 682.25 602.977C683.477 602.977 684.551 602.679 685.472 602.082C686.393 601.486 686.963 600.551 687.182 599.278L687.659 596.176H687.461C687.248 596.455 686.953 596.799 686.576 597.21C686.198 597.615 685.691 597.976 685.054 598.294C684.418 598.606 683.603 598.761 682.608 598.761C681.369 598.761 680.308 598.47 679.426 597.886C678.545 597.303 677.912 596.455 677.527 595.341C677.15 594.227 677.093 592.875 677.358 591.284C677.617 589.72 678.114 588.357 678.85 587.197C679.592 586.031 680.507 585.129 681.594 584.493C682.681 583.85 683.868 583.528 685.154 583.528C686.148 583.528 686.91 583.694 687.441 584.026C687.978 584.35 688.369 584.722 688.614 585.139C688.859 585.55 689.045 585.888 689.171 586.153H689.409L689.807 583.727H692.074L689.489 599.438C689.27 600.75 688.796 601.817 688.067 602.639C687.338 603.468 686.443 604.074 685.382 604.459C684.322 604.85 683.185 605.045 681.972 605.045ZM683.205 596.653C684.14 596.653 684.971 596.438 685.701 596.007C686.436 595.576 687.046 594.956 687.53 594.148C688.014 593.339 688.349 592.371 688.534 591.244C688.72 590.144 688.707 589.173 688.495 588.331C688.283 587.489 687.882 586.83 687.292 586.352C686.708 585.875 685.943 585.636 684.995 585.636C683.994 585.636 683.129 585.888 682.4 586.392C681.677 586.896 681.09 587.572 680.64 588.42C680.189 589.269 679.877 590.21 679.705 591.244C679.533 592.305 679.539 593.243 679.725 594.058C679.91 594.867 680.288 595.503 680.858 595.967C681.435 596.425 682.217 596.653 683.205 596.653ZM697.682 589.812L696.171 599H693.824L696.37 583.727H698.637L698.239 586.114H698.438C698.915 585.338 699.561 584.715 700.377 584.244C701.192 583.767 702.176 583.528 703.33 583.528C704.351 583.528 705.212 583.741 705.915 584.165C706.624 584.582 707.125 585.219 707.417 586.074C707.715 586.922 707.758 587.996 707.546 589.295L705.915 599H703.569L705.159 589.455C705.358 588.261 705.203 587.327 704.692 586.651C704.188 585.974 703.39 585.636 702.296 585.636C701.54 585.636 700.841 585.799 700.198 586.124C699.561 586.448 699.021 586.922 698.577 587.545C698.14 588.169 697.841 588.924 697.682 589.812Z" fill="#635D6A"/>
<path d="M101.761 804.455H103.864L108.807 816.528H108.977L113.92 804.455H116.023V819H114.375V807.949H114.233L109.688 819H108.097L103.551 807.949H103.409V819H101.761V804.455ZM119.554 819V804.455H128.333V806.017H121.316V810.932H127.878V812.494H121.316V817.438H128.446V819H119.554ZM132.36 804.455L136.11 810.506H136.223L139.973 804.455H142.047L137.473 811.727L142.047 819H139.973L136.223 813.062H136.11L132.36 819H130.286L134.973 811.727L130.286 804.455H132.36ZM146.101 804.455V819H144.339V804.455H146.101ZM161.337 809H159.576C159.471 808.493 159.289 808.048 159.029 807.665C158.773 807.281 158.461 806.959 158.091 806.699C157.727 806.434 157.322 806.235 156.877 806.102C156.432 805.97 155.968 805.903 155.485 805.903C154.604 805.903 153.806 806.126 153.091 806.571C152.381 807.016 151.815 807.672 151.394 808.538C150.977 809.405 150.769 810.468 150.769 811.727C150.769 812.987 150.977 814.05 151.394 814.916C151.815 815.783 152.381 816.438 153.091 816.884C153.806 817.329 154.604 817.551 155.485 817.551C155.968 817.551 156.432 817.485 156.877 817.352C157.322 817.22 157.727 817.023 158.091 816.763C158.461 816.498 158.773 816.173 159.029 815.79C159.289 815.402 159.471 814.956 159.576 814.455H161.337C161.204 815.198 160.963 815.863 160.613 816.45C160.262 817.037 159.827 817.537 159.306 817.949C158.785 818.356 158.2 818.666 157.551 818.879C156.908 819.092 156.219 819.199 155.485 819.199C154.244 819.199 153.141 818.896 152.175 818.29C151.209 817.684 150.449 816.822 149.895 815.705C149.341 814.587 149.064 813.261 149.064 811.727C149.064 810.193 149.341 808.867 149.895 807.75C150.449 806.633 151.209 805.771 152.175 805.165C153.141 804.559 154.244 804.256 155.485 804.256C156.219 804.256 156.908 804.362 157.551 804.575C158.2 804.788 158.785 805.101 159.306 805.513C159.827 805.92 160.262 806.417 160.613 807.004C160.963 807.587 161.204 808.252 161.337 809ZM176.456 811.727C176.456 813.261 176.179 814.587 175.625 815.705C175.071 816.822 174.311 817.684 173.345 818.29C172.379 818.896 171.276 819.199 170.036 819.199C168.795 819.199 167.692 818.896 166.726 818.29C165.76 817.684 165 816.822 164.446 815.705C163.892 814.587 163.615 813.261 163.615 811.727C163.615 810.193 163.892 808.867 164.446 807.75C165 806.633 165.76 805.771 166.726 805.165C167.692 804.559 168.795 804.256 170.036 804.256C171.276 804.256 172.379 804.559 173.345 805.165C174.311 805.771 175.071 806.633 175.625 807.75C176.179 808.867 176.456 810.193 176.456 811.727ZM174.751 811.727C174.751 810.468 174.541 809.405 174.119 808.538C173.703 807.672 173.137 807.016 172.422 806.571C171.712 806.126 170.916 805.903 170.036 805.903C169.155 805.903 168.357 806.126 167.642 806.571C166.932 807.016 166.366 807.672 165.945 808.538C165.528 809.405 165.32 810.468 165.32 811.727C165.32 812.987 165.528 814.05 165.945 814.916C166.366 815.783 166.932 816.438 167.642 816.884C168.357 817.329 169.155 817.551 170.036 817.551C170.916 817.551 171.712 817.329 172.422 816.884C173.137 816.438 173.703 815.783 174.119 814.916C174.541 814.05 174.751 812.987 174.751 811.727ZM196.747 809H194.986C194.882 808.493 194.699 808.048 194.439 807.665C194.183 807.281 193.871 806.959 193.501 806.699C193.137 806.434 192.732 806.235 192.287 806.102C191.842 805.97 191.378 805.903 190.895 805.903C190.014 805.903 189.216 806.126 188.501 806.571C187.791 807.016 187.225 807.672 186.804 808.538C186.387 809.405 186.179 810.468 186.179 811.727C186.179 812.987 186.387 814.05 186.804 814.916C187.225 815.783 187.791 816.438 188.501 816.884C189.216 817.329 190.014 817.551 190.895 817.551C191.378 817.551 191.842 817.485 192.287 817.352C192.732 817.22 193.137 817.023 193.501 816.763C193.871 816.498 194.183 816.173 194.439 815.79C194.699 815.402 194.882 814.956 194.986 814.455H196.747C196.615 815.198 196.373 815.863 196.023 816.45C195.672 817.037 195.237 817.537 194.716 817.949C194.195 818.356 193.61 818.666 192.962 818.879C192.318 819.092 191.629 819.199 190.895 819.199C189.654 819.199 188.551 818.896 187.585 818.29C186.619 817.684 185.859 816.822 185.305 815.705C184.751 814.587 184.474 813.261 184.474 811.727C184.474 810.193 184.751 808.867 185.305 807.75C185.859 806.633 186.619 805.771 187.585 805.165C188.551 804.559 189.654 804.256 190.895 804.256C191.629 804.256 192.318 804.362 192.962 804.575C193.61 804.788 194.195 805.101 194.716 805.513C195.237 805.92 195.672 806.417 196.023 807.004C196.373 807.587 196.615 808.252 196.747 809ZM201.355 804.455V819H199.593V804.455H201.355ZM204.091 806.017V804.455H215V806.017H210.426V819H208.665V806.017H204.091ZM216.468 804.455H218.485L222.52 811.244H222.69L226.724 804.455H228.741L223.485 813.006V819H221.724V813.006L216.468 804.455ZM237.638 813.915C237.288 813.915 236.987 813.789 236.737 813.538C236.486 813.287 236.36 812.987 236.36 812.636C236.36 812.286 236.486 811.985 236.737 811.734C236.987 811.483 237.288 811.358 237.638 811.358C237.989 811.358 238.29 811.483 238.54 811.734C238.791 811.985 238.917 812.286 238.917 812.636C238.917 812.868 238.858 813.081 238.739 813.276C238.626 813.47 238.472 813.626 238.278 813.744C238.088 813.858 237.875 813.915 237.638 813.915ZM247.521 819V817.722L252.322 812.466C252.886 811.85 253.35 811.315 253.714 810.861C254.079 810.402 254.349 809.971 254.524 809.568C254.704 809.161 254.794 808.735 254.794 808.29C254.794 807.778 254.671 807.336 254.425 806.962C254.183 806.588 253.852 806.299 253.43 806.095C253.009 805.892 252.536 805.79 252.01 805.79C251.451 805.79 250.964 805.906 250.547 806.138C250.135 806.365 249.815 806.685 249.588 807.097C249.366 807.509 249.254 807.991 249.254 808.545H247.578C247.578 807.693 247.775 806.945 248.168 806.301C248.561 805.657 249.096 805.155 249.773 804.795C250.455 804.436 251.219 804.256 252.067 804.256C252.919 804.256 253.674 804.436 254.332 804.795C254.991 805.155 255.507 805.641 255.881 806.251C256.255 806.862 256.442 807.542 256.442 808.29C256.442 808.825 256.345 809.348 256.151 809.859C255.961 810.366 255.63 810.932 255.156 811.557C254.688 812.177 254.036 812.935 253.203 813.83L249.936 817.324V817.438H256.697V819H247.521ZM264.375 819.199C263.305 819.199 262.393 818.908 261.641 818.325C260.888 817.738 260.313 816.888 259.915 815.776C259.517 814.658 259.318 813.309 259.318 811.727C259.318 810.155 259.517 808.813 259.915 807.7C260.317 806.583 260.895 805.731 261.648 805.143C262.405 804.552 263.314 804.256 264.375 804.256C265.436 804.256 266.342 804.552 267.095 805.143C267.853 805.731 268.43 806.583 268.828 807.7C269.231 808.813 269.432 810.155 269.432 811.727C269.432 813.309 269.233 814.658 268.835 815.776C268.438 816.888 267.862 817.738 267.109 818.325C266.357 818.908 265.445 819.199 264.375 819.199ZM264.375 817.636C265.436 817.636 266.259 817.125 266.847 816.102C267.434 815.08 267.727 813.621 267.727 811.727C267.727 810.468 267.592 809.395 267.322 808.51C267.057 807.625 266.674 806.95 266.172 806.486C265.675 806.022 265.076 805.79 264.375 805.79C263.324 805.79 262.502 806.308 261.911 807.345C261.319 808.377 261.023 809.838 261.023 811.727C261.023 812.987 261.155 814.057 261.42 814.938C261.686 815.818 262.067 816.488 262.564 816.947C263.066 817.407 263.67 817.636 264.375 817.636ZM272.131 819V817.722L276.932 812.466C277.495 811.85 277.959 811.315 278.324 810.861C278.688 810.402 278.958 809.971 279.134 809.568C279.313 809.161 279.403 808.735 279.403 808.29C279.403 807.778 279.28 807.336 279.034 806.962C278.793 806.588 278.461 806.299 278.04 806.095C277.618 805.892 277.145 805.79 276.619 805.79C276.061 805.79 275.573 805.906 275.156 806.138C274.744 806.365 274.425 806.685 274.197 807.097C273.975 807.509 273.864 807.991 273.864 808.545H272.188C272.188 807.693 272.384 806.945 272.777 806.301C273.17 805.657 273.705 805.155 274.382 804.795C275.064 804.436 275.829 804.256 276.676 804.256C277.528 804.256 278.284 804.436 278.942 804.795C279.6 805.155 280.116 805.641 280.49 806.251C280.864 806.862 281.051 807.542 281.051 808.29C281.051 808.825 280.954 809.348 280.76 809.859C280.571 810.366 280.239 810.932 279.766 811.557C279.297 812.177 278.646 812.935 277.812 813.83L274.545 817.324V817.438H281.307V819H272.131ZM283.587 816.017V814.568L289.979 804.455H291.03V806.699H290.32L285.49 814.341V814.455H294.098V816.017H283.587ZM290.433 819V815.577V814.902V804.455H292.109V819H290.433ZM305.254 810.946V812.509H295.254V810.946H305.254ZM306.76 819V817.722L311.561 812.466C312.124 811.85 312.588 811.315 312.953 810.861C313.317 810.402 313.587 809.971 313.762 809.568C313.942 809.161 314.032 808.735 314.032 808.29C314.032 807.778 313.909 807.336 313.663 806.962C313.422 806.588 313.09 806.299 312.669 806.095C312.247 805.892 311.774 805.79 311.248 805.79C310.69 805.79 310.202 805.906 309.785 806.138C309.373 806.365 309.054 806.685 308.826 807.097C308.604 807.509 308.493 807.991 308.493 808.545H306.816C306.816 807.693 307.013 806.945 307.406 806.301C307.799 805.657 308.334 805.155 309.011 804.795C309.693 804.436 310.458 804.256 311.305 804.256C312.157 804.256 312.913 804.436 313.571 804.795C314.229 805.155 314.745 805.641 315.119 806.251C315.493 806.862 315.68 807.542 315.68 808.29C315.68 808.825 315.583 809.348 315.389 809.859C315.199 810.366 314.868 810.932 314.395 811.557C313.926 812.177 313.275 812.935 312.441 813.83L309.174 817.324V817.438H315.936V819H306.76ZM323.613 819.199C322.543 819.199 321.632 818.908 320.879 818.325C320.126 817.738 319.551 816.888 319.153 815.776C318.755 814.658 318.556 813.309 318.556 811.727C318.556 810.155 318.755 808.813 319.153 807.7C319.556 806.583 320.133 805.731 320.886 805.143C321.644 804.552 322.553 804.256 323.613 804.256C324.674 804.256 325.581 804.552 326.333 805.143C327.091 805.731 327.669 806.583 328.066 807.7C328.469 808.813 328.67 810.155 328.67 811.727C328.67 813.309 328.471 814.658 328.074 815.776C327.676 816.888 327.1 817.738 326.348 818.325C325.595 818.908 324.683 819.199 323.613 819.199ZM323.613 817.636C324.674 817.636 325.498 817.125 326.085 816.102C326.672 815.08 326.966 813.621 326.966 811.727C326.966 810.468 326.831 809.395 326.561 808.51C326.296 807.625 325.912 806.95 325.41 806.486C324.913 806.022 324.314 805.79 323.613 805.79C322.562 805.79 321.741 806.308 321.149 807.345C320.557 808.377 320.261 809.838 320.261 811.727C320.261 812.987 320.394 814.057 320.659 814.938C320.924 815.818 321.305 816.488 321.802 816.947C322.304 817.407 322.908 817.636 323.613 817.636ZM331.369 819V817.722L336.17 812.466C336.734 811.85 337.198 811.315 337.562 810.861C337.927 810.402 338.197 809.971 338.372 809.568C338.552 809.161 338.642 808.735 338.642 808.29C338.642 807.778 338.519 807.336 338.272 806.962C338.031 806.588 337.699 806.299 337.278 806.095C336.857 805.892 336.383 805.79 335.858 805.79C335.299 805.79 334.811 805.906 334.395 806.138C333.983 806.365 333.663 806.685 333.436 807.097C333.213 807.509 333.102 807.991 333.102 808.545H331.426C331.426 807.693 331.622 806.945 332.015 806.301C332.408 805.657 332.943 805.155 333.62 804.795C334.302 804.436 335.067 804.256 335.914 804.256C336.767 804.256 337.522 804.436 338.18 804.795C338.838 805.155 339.354 805.641 339.728 806.251C340.102 806.862 340.289 807.542 340.289 808.29C340.289 808.825 340.192 809.348 339.998 809.859C339.809 810.366 339.477 810.932 339.004 811.557C338.535 812.177 337.884 812.935 337.051 813.83L333.784 817.324V817.438H340.545V819H331.369ZM348.308 819.199C347.711 819.189 347.115 819.076 346.518 818.858C345.922 818.64 345.377 818.273 344.885 817.757C344.392 817.236 343.997 816.533 343.699 815.648C343.4 814.758 343.251 813.64 343.251 812.295C343.251 811.008 343.372 809.866 343.613 808.872C343.855 807.873 344.205 807.033 344.664 806.351C345.124 805.664 345.678 805.143 346.326 804.788C346.98 804.433 347.716 804.256 348.535 804.256C349.35 804.256 350.074 804.419 350.708 804.746C351.348 805.068 351.868 805.518 352.271 806.095C352.673 806.673 352.934 807.338 353.052 808.091H351.319C351.158 807.437 350.846 806.895 350.382 806.464C349.918 806.034 349.302 805.818 348.535 805.818C347.408 805.818 346.52 806.308 345.872 807.288C345.228 808.268 344.904 809.644 344.899 811.415H345.012C345.278 811.012 345.592 810.669 345.957 810.385C346.326 810.096 346.734 809.874 347.179 809.717C347.624 809.561 348.095 809.483 348.592 809.483C349.425 809.483 350.188 809.691 350.879 810.108C351.57 810.52 352.124 811.09 352.541 811.82C352.958 812.544 353.166 813.375 353.166 814.312C353.166 815.212 352.965 816.036 352.562 816.784C352.16 817.527 351.594 818.119 350.865 818.56C350.14 818.995 349.288 819.208 348.308 819.199ZM348.308 817.636C348.904 817.636 349.44 817.487 349.913 817.189C350.391 816.891 350.768 816.491 351.042 815.989C351.322 815.487 351.461 814.928 351.461 814.312C351.461 813.711 351.326 813.164 351.056 812.672C350.791 812.175 350.424 811.779 349.956 811.486C349.492 811.192 348.961 811.045 348.365 811.045C347.915 811.045 347.496 811.135 347.108 811.315C346.719 811.491 346.378 811.732 346.085 812.04C345.796 812.348 345.569 812.7 345.403 813.098C345.237 813.491 345.154 813.905 345.154 814.341C345.154 814.919 345.289 815.458 345.559 815.96C345.834 816.462 346.208 816.867 346.681 817.175C347.16 817.482 347.702 817.636 348.308 817.636Z" fill="#978E8B"/>
<path d="M133.875 166V182H131.938V166H133.875ZM150.447 166V182H148.572L139.854 169.437H139.697V182H137.76V166H139.635L148.385 178.594H148.541V166H150.447ZM160.949 173.141V174.859H153.949V173.141H160.949ZM164.443 182V166H166.381V173.125H174.912V166H176.85V182H174.912V174.844H166.381V182H164.443ZM194.229 174C194.229 175.687 193.924 177.146 193.314 178.375C192.705 179.604 191.869 180.552 190.807 181.219C189.744 181.885 188.531 182.219 187.166 182.219C185.801 182.219 184.588 181.885 183.525 181.219C182.463 180.552 181.627 179.604 181.018 178.375C180.408 177.146 180.104 175.687 180.104 174C180.104 172.312 180.408 170.854 181.018 169.625C181.627 168.396 182.463 167.448 183.525 166.781C184.588 166.115 185.801 165.781 187.166 165.781C188.531 165.781 189.744 166.115 190.807 166.781C191.869 167.448 192.705 168.396 193.314 169.625C193.924 170.854 194.229 172.312 194.229 174ZM192.354 174C192.354 172.615 192.122 171.445 191.658 170.492C191.2 169.539 190.577 168.818 189.791 168.328C189.01 167.839 188.135 167.594 187.166 167.594C186.197 167.594 185.32 167.839 184.533 168.328C183.752 168.818 183.13 169.539 182.666 170.492C182.208 171.445 181.979 172.615 181.979 174C181.979 175.385 182.208 176.555 182.666 177.508C183.13 178.461 183.752 179.182 184.533 179.672C185.32 180.161 186.197 180.406 187.166 180.406C188.135 180.406 189.01 180.161 189.791 179.672C190.577 179.182 191.2 178.461 191.658 177.508C192.122 176.555 192.354 175.385 192.354 174ZM207.986 166H209.924V176.594C209.924 177.687 209.666 178.664 209.15 179.523C208.64 180.378 207.919 181.052 206.986 181.547C206.054 182.036 204.96 182.281 203.705 182.281C202.45 182.281 201.356 182.036 200.424 181.547C199.492 181.052 198.768 180.378 198.252 179.523C197.742 178.664 197.486 177.687 197.486 176.594V166H199.424V176.438C199.424 177.219 199.596 177.914 199.939 178.523C200.283 179.128 200.773 179.604 201.408 179.953C202.049 180.297 202.814 180.469 203.705 180.469C204.596 180.469 205.361 180.297 206.002 179.953C206.643 179.604 207.132 179.128 207.471 178.523C207.814 177.914 207.986 177.219 207.986 176.438V166ZM222.543 170C222.449 169.208 222.069 168.594 221.402 168.156C220.736 167.719 219.918 167.5 218.949 167.5C218.241 167.5 217.621 167.615 217.09 167.844C216.564 168.073 216.152 168.388 215.855 168.789C215.564 169.19 215.418 169.646 215.418 170.156C215.418 170.583 215.52 170.951 215.723 171.258C215.931 171.56 216.197 171.812 216.52 172.016C216.842 172.214 217.181 172.378 217.535 172.508C217.889 172.633 218.215 172.734 218.512 172.812L220.137 173.25C220.553 173.359 221.017 173.51 221.527 173.703C222.043 173.896 222.535 174.159 223.004 174.492C223.478 174.82 223.868 175.242 224.176 175.758C224.483 176.273 224.637 176.906 224.637 177.656C224.637 178.521 224.41 179.302 223.957 180C223.509 180.698 222.853 181.253 221.988 181.664C221.129 182.076 220.085 182.281 218.855 182.281C217.71 182.281 216.717 182.096 215.879 181.727C215.046 181.357 214.389 180.841 213.91 180.18C213.436 179.518 213.168 178.75 213.105 177.875H215.105C215.158 178.479 215.361 178.979 215.715 179.375C216.074 179.766 216.527 180.057 217.074 180.25C217.626 180.437 218.22 180.531 218.855 180.531C219.595 180.531 220.259 180.411 220.848 180.172C221.436 179.927 221.902 179.589 222.246 179.156C222.59 178.719 222.762 178.208 222.762 177.625C222.762 177.094 222.613 176.661 222.316 176.328C222.02 175.995 221.629 175.724 221.145 175.516C220.66 175.307 220.137 175.125 219.574 174.969L217.605 174.406C216.355 174.047 215.366 173.534 214.637 172.867C213.908 172.201 213.543 171.328 213.543 170.25C213.543 169.354 213.785 168.573 214.27 167.906C214.759 167.234 215.415 166.714 216.238 166.344C217.066 165.969 217.991 165.781 219.012 165.781C220.043 165.781 220.96 165.966 221.762 166.336C222.564 166.701 223.199 167.201 223.668 167.836C224.142 168.471 224.392 169.193 224.418 170H222.543ZM227.822 182V166H237.479V167.719H229.76V173.125H236.979V174.844H229.76V180.281H237.604V182H227.822ZM246.283 167.719V166H258.283V167.719H253.252V182H251.314V167.719H246.283ZM261.273 182V166H266.68C267.93 166 268.956 166.214 269.758 166.641C270.56 167.062 271.154 167.643 271.539 168.383C271.924 169.122 272.117 169.964 272.117 170.906C272.117 171.849 271.924 172.685 271.539 173.414C271.154 174.143 270.563 174.716 269.766 175.133C268.969 175.544 267.951 175.75 266.711 175.75H262.336V174H266.648C267.503 174 268.19 173.875 268.711 173.625C269.237 173.375 269.617 173.021 269.852 172.562C270.091 172.099 270.211 171.547 270.211 170.906C270.211 170.266 270.091 169.706 269.852 169.227C269.612 168.747 269.229 168.378 268.703 168.117C268.177 167.852 267.482 167.719 266.617 167.719H263.211V182H261.273ZM268.805 174.812L272.742 182H270.492L266.617 174.812H268.805ZM276.002 182H273.971L279.846 166H281.846L287.721 182H285.689L280.908 168.531H280.783L276.002 182ZM276.752 175.75H284.939V177.469H276.752V175.75ZM302.9 166V182H301.025L292.307 169.437H292.15V182H290.213V166H292.088L300.838 178.594H300.994V166H302.9ZM315.527 170C315.434 169.208 315.053 168.594 314.387 168.156C313.72 167.719 312.902 167.5 311.934 167.5C311.225 167.5 310.605 167.615 310.074 167.844C309.548 168.073 309.137 168.388 308.84 168.789C308.548 169.19 308.402 169.646 308.402 170.156C308.402 170.583 308.504 170.951 308.707 171.258C308.915 171.56 309.181 171.812 309.504 172.016C309.827 172.214 310.165 172.378 310.52 172.508C310.874 172.633 311.199 172.734 311.496 172.812L313.121 173.25C313.538 173.359 314.001 173.51 314.512 173.703C315.027 173.896 315.52 174.159 315.988 174.492C316.462 174.82 316.853 175.242 317.16 175.758C317.467 176.273 317.621 176.906 317.621 177.656C317.621 178.521 317.395 179.302 316.941 180C316.493 180.698 315.837 181.253 314.973 181.664C314.113 182.076 313.069 182.281 311.84 182.281C310.694 182.281 309.702 182.096 308.863 181.727C308.03 181.357 307.374 180.841 306.895 180.18C306.421 179.518 306.152 178.75 306.09 177.875H308.09C308.142 178.479 308.345 178.979 308.699 179.375C309.059 179.766 309.512 180.057 310.059 180.25C310.611 180.437 311.204 180.531 311.84 180.531C312.579 180.531 313.243 180.411 313.832 180.172C314.421 179.927 314.887 179.589 315.23 179.156C315.574 178.719 315.746 178.208 315.746 177.625C315.746 177.094 315.598 176.661 315.301 176.328C315.004 175.995 314.613 175.724 314.129 175.516C313.645 175.307 313.121 175.125 312.559 174.969L310.59 174.406C309.34 174.047 308.35 173.534 307.621 172.867C306.892 172.201 306.527 171.328 306.527 170.25C306.527 169.354 306.77 168.573 307.254 167.906C307.743 167.234 308.4 166.714 309.223 166.344C310.051 165.969 310.975 165.781 311.996 165.781C313.027 165.781 313.944 165.966 314.746 166.336C315.548 166.701 316.184 167.201 316.652 167.836C317.126 168.471 317.376 169.193 317.402 170H315.527ZM320.807 182V166H322.744V180.281H330.182V182H320.807ZM334.848 182H332.816L338.691 166H340.691L346.566 182H344.535L339.754 168.531H339.629L334.848 182ZM335.598 175.75H343.785V177.469H335.598V175.75ZM346.314 167.719V166H358.314V167.719H353.283V182H351.346V167.719H346.314ZM363.242 166V182H361.305V166H363.242ZM380.627 174C380.627 175.687 380.322 177.146 379.713 178.375C379.104 179.604 378.268 180.552 377.205 181.219C376.143 181.885 374.929 182.219 373.564 182.219C372.2 182.219 370.986 181.885 369.924 181.219C368.861 180.552 368.025 179.604 367.416 178.375C366.807 177.146 366.502 175.687 366.502 174C366.502 172.312 366.807 170.854 367.416 169.625C368.025 168.396 368.861 167.448 369.924 166.781C370.986 166.115 372.2 165.781 373.564 165.781C374.929 165.781 376.143 166.115 377.205 166.781C378.268 167.448 379.104 168.396 379.713 169.625C380.322 170.854 380.627 172.312 380.627 174ZM378.752 174C378.752 172.615 378.52 171.445 378.057 170.492C377.598 169.539 376.976 168.818 376.189 168.328C375.408 167.839 374.533 167.594 373.564 167.594C372.596 167.594 371.718 167.839 370.932 168.328C370.15 168.818 369.528 169.539 369.064 170.492C368.606 171.445 368.377 172.615 368.377 174C368.377 175.385 368.606 176.555 369.064 177.508C369.528 178.461 370.15 179.182 370.932 179.672C371.718 180.161 372.596 180.406 373.564 180.406C374.533 180.406 375.408 180.161 376.189 179.672C376.976 179.182 377.598 178.461 378.057 177.508C378.52 176.555 378.752 175.385 378.752 174ZM396.572 166V182H394.697L385.979 169.437H385.822V182H383.885V166H385.76L394.51 178.594H394.666V166H396.572ZM407.73 176.406C407.345 176.406 407.014 176.268 406.738 175.992C406.462 175.716 406.324 175.385 406.324 175C406.324 174.615 406.462 174.284 406.738 174.008C407.014 173.732 407.345 173.594 407.73 173.594C408.116 173.594 408.447 173.732 408.723 174.008C408.999 174.284 409.137 174.615 409.137 175C409.137 175.255 409.072 175.49 408.941 175.703C408.816 175.917 408.647 176.089 408.434 176.219C408.225 176.344 407.991 176.406 407.73 176.406ZM419.539 182H417.508L423.383 166H425.383L431.258 182H429.227L424.445 168.531H424.32L419.539 182ZM420.289 175.75H428.477V177.469H420.289V175.75ZM435.688 166V182H433.75V166H435.688ZM446.197 173.141V174.859H439.197V173.141H446.197ZM450.348 182H448.316L454.191 166H456.191L462.066 182H460.035L455.254 168.531H455.129L450.348 182ZM451.098 175.75H459.285V177.469H451.098V175.75ZM473.309 170C473.215 169.208 472.835 168.594 472.168 168.156C471.501 167.719 470.684 167.5 469.715 167.5C469.007 167.5 468.387 167.615 467.855 167.844C467.329 168.073 466.918 168.388 466.621 168.789C466.329 169.19 466.184 169.646 466.184 170.156C466.184 170.583 466.285 170.951 466.488 171.258C466.697 171.56 466.962 171.812 467.285 172.016C467.608 172.214 467.947 172.378 468.301 172.508C468.655 172.633 468.98 172.734 469.277 172.812L470.902 173.25C471.319 173.359 471.783 173.51 472.293 173.703C472.809 173.896 473.301 174.159 473.77 174.492C474.243 174.82 474.634 175.242 474.941 175.758C475.249 176.273 475.402 176.906 475.402 177.656C475.402 178.521 475.176 179.302 474.723 180C474.275 180.698 473.618 181.253 472.754 181.664C471.895 182.076 470.85 182.281 469.621 182.281C468.475 182.281 467.483 182.096 466.645 181.727C465.811 181.357 465.155 180.841 464.676 180.18C464.202 179.518 463.934 178.75 463.871 177.875H465.871C465.923 178.479 466.126 178.979 466.48 179.375C466.84 179.766 467.293 180.057 467.84 180.25C468.392 180.437 468.986 180.531 469.621 180.531C470.361 180.531 471.025 180.411 471.613 180.172C472.202 179.927 472.668 179.589 473.012 179.156C473.355 178.719 473.527 178.208 473.527 177.625C473.527 177.094 473.379 176.661 473.082 176.328C472.785 175.995 472.395 175.724 471.91 175.516C471.426 175.307 470.902 175.125 470.34 174.969L468.371 174.406C467.121 174.047 466.132 173.534 465.402 172.867C464.673 172.201 464.309 171.328 464.309 170.25C464.309 169.354 464.551 168.573 465.035 167.906C465.525 167.234 466.181 166.714 467.004 166.344C467.832 165.969 468.757 165.781 469.777 165.781C470.809 165.781 471.725 165.966 472.527 166.336C473.329 166.701 473.965 167.201 474.434 167.836C474.908 168.471 475.158 169.193 475.184 170H473.309ZM487.338 170C487.244 169.208 486.864 168.594 486.197 168.156C485.531 167.719 484.713 167.5 483.744 167.5C483.036 167.5 482.416 167.615 481.885 167.844C481.359 168.073 480.947 168.388 480.65 168.789C480.359 169.19 480.213 169.646 480.213 170.156C480.213 170.583 480.314 170.951 480.518 171.258C480.726 171.56 480.992 171.812 481.314 172.016C481.637 172.214 481.976 172.378 482.33 172.508C482.684 172.633 483.01 172.734 483.307 172.812L484.932 173.25C485.348 173.359 485.812 173.51 486.322 173.703C486.838 173.896 487.33 174.159 487.799 174.492C488.273 174.82 488.663 175.242 488.971 175.758C489.278 176.273 489.432 176.906 489.432 177.656C489.432 178.521 489.205 179.302 488.752 180C488.304 180.698 487.648 181.253 486.783 181.664C485.924 182.076 484.88 182.281 483.65 182.281C482.505 182.281 481.512 182.096 480.674 181.727C479.84 181.357 479.184 180.841 478.705 180.18C478.231 179.518 477.963 178.75 477.9 177.875H479.9C479.952 178.479 480.156 178.979 480.51 179.375C480.869 179.766 481.322 180.057 481.869 180.25C482.421 180.437 483.015 180.531 483.65 180.531C484.39 180.531 485.054 180.411 485.643 180.172C486.231 179.927 486.697 179.589 487.041 179.156C487.385 178.719 487.557 178.208 487.557 177.625C487.557 177.094 487.408 176.661 487.111 176.328C486.814 175.995 486.424 175.724 485.939 175.516C485.455 175.307 484.932 175.125 484.369 174.969L482.4 174.406C481.15 174.047 480.161 173.534 479.432 172.867C478.702 172.201 478.338 171.328 478.338 170.25C478.338 169.354 478.58 168.573 479.064 167.906C479.554 167.234 480.21 166.714 481.033 166.344C481.861 165.969 482.786 165.781 483.807 165.781C484.838 165.781 485.755 165.966 486.557 166.336C487.359 166.701 487.994 167.201 488.463 167.836C488.937 168.471 489.187 169.193 489.213 170H487.338ZM494.555 166V182H492.617V166H494.555ZM507.189 170C507.096 169.208 506.715 168.594 506.049 168.156C505.382 167.719 504.564 167.5 503.596 167.5C502.887 167.5 502.268 167.615 501.736 167.844C501.21 168.073 500.799 168.388 500.502 168.789C500.21 169.19 500.064 169.646 500.064 170.156C500.064 170.583 500.166 170.951 500.369 171.258C500.577 171.56 500.843 171.812 501.166 172.016C501.489 172.214 501.827 172.378 502.182 172.508C502.536 172.633 502.861 172.734 503.158 172.812L504.783 173.25C505.2 173.359 505.663 173.51 506.174 173.703C506.689 173.896 507.182 174.159 507.65 174.492C508.124 174.82 508.515 175.242 508.822 175.758C509.13 176.273 509.283 176.906 509.283 177.656C509.283 178.521 509.057 179.302 508.604 180C508.156 180.698 507.499 181.253 506.635 181.664C505.775 182.076 504.731 182.281 503.502 182.281C502.356 182.281 501.364 182.096 500.525 181.727C499.692 181.357 499.036 180.841 498.557 180.18C498.083 179.518 497.814 178.75 497.752 177.875H499.752C499.804 178.479 500.007 178.979 500.361 179.375C500.721 179.766 501.174 180.057 501.721 180.25C502.273 180.437 502.867 180.531 503.502 180.531C504.242 180.531 504.906 180.411 505.494 180.172C506.083 179.927 506.549 179.589 506.893 179.156C507.236 178.719 507.408 178.208 507.408 177.625C507.408 177.094 507.26 176.661 506.963 176.328C506.666 175.995 506.275 175.724 505.791 175.516C505.307 175.307 504.783 175.125 504.221 174.969L502.252 174.406C501.002 174.047 500.012 173.534 499.283 172.867C498.554 172.201 498.189 171.328 498.189 170.25C498.189 169.354 498.432 168.573 498.916 167.906C499.406 167.234 500.062 166.714 500.885 166.344C501.713 165.969 502.637 165.781 503.658 165.781C504.689 165.781 505.606 165.966 506.408 166.336C507.21 166.701 507.846 167.201 508.314 167.836C508.788 168.471 509.038 169.193 509.064 170H507.189ZM511.594 167.719V166H523.594V167.719H518.563V182H516.625V167.719H511.594ZM526.584 182V166H536.24V167.719H528.521V173.125H535.74V174.844H528.521V180.281H536.365V182H526.584ZM544.67 182H539.732V166H544.889C546.441 166 547.769 166.32 548.873 166.961C549.977 167.596 550.824 168.51 551.412 169.703C552.001 170.891 552.295 172.312 552.295 173.969C552.295 175.635 551.998 177.07 551.404 178.273C550.811 179.471 549.946 180.393 548.811 181.039C547.675 181.68 546.295 182 544.67 182ZM541.67 180.281H544.545C545.868 180.281 546.964 180.026 547.834 179.516C548.704 179.005 549.352 178.279 549.779 177.336C550.206 176.393 550.42 175.271 550.42 173.969C550.42 172.677 550.209 171.565 549.787 170.633C549.365 169.695 548.735 168.977 547.896 168.477C547.058 167.971 546.014 167.719 544.764 167.719H541.67V180.281Z" fill="#3D8096"/>
<path d="M133.477 229.261V223.636H172.75V229.261H156.284V276H149.943V229.261H133.477ZM182.536 276V223.636H214.138V229.261H188.877V246.955H212.502V252.58H188.877V270.375H214.548V276H182.536ZM267.704 240H261.363C260.988 238.176 260.332 236.574 259.394 235.193C258.474 233.812 257.349 232.653 256.019 231.716C254.707 230.761 253.249 230.045 251.647 229.568C250.045 229.091 248.374 228.852 246.636 228.852C243.465 228.852 240.593 229.653 238.019 231.256C235.462 232.858 233.425 235.219 231.908 238.338C230.408 241.457 229.658 245.284 229.658 249.818C229.658 254.352 230.408 258.179 231.908 261.298C233.425 264.418 235.462 266.778 238.019 268.381C240.593 269.983 243.465 270.784 246.636 270.784C248.374 270.784 250.045 270.545 251.647 270.068C253.249 269.591 254.707 268.884 256.019 267.946C257.349 266.991 258.474 265.824 259.394 264.443C260.332 263.045 260.988 261.443 261.363 259.636H267.704C267.227 262.312 266.357 264.707 265.096 266.821C263.835 268.935 262.266 270.733 260.391 272.216C258.516 273.682 256.411 274.798 254.076 275.565C251.758 276.332 249.278 276.716 246.636 276.716C242.17 276.716 238.198 275.625 234.721 273.443C231.244 271.261 228.508 268.159 226.513 264.136C224.519 260.114 223.522 255.341 223.522 249.818C223.522 244.295 224.519 239.523 226.513 235.5C228.508 231.477 231.244 228.375 234.721 226.193C238.198 224.011 242.17 222.92 246.636 222.92C249.278 222.92 251.758 223.304 254.076 224.071C256.411 224.838 258.516 225.963 260.391 227.446C262.266 228.912 263.835 230.702 265.096 232.815C266.357 234.912 267.227 237.307 267.704 240ZM277.95 276V223.636H284.291V246.955H312.212V223.636H318.553V276H312.212V252.58H284.291V276H277.95Z" fill="#33303A"/>
<path d="M170.705 303.636H177.045V338.307C177.045 341.886 176.202 345.082 174.514 347.895C172.844 350.69 170.483 352.898 167.432 354.517C164.381 356.119 160.801 356.92 156.693 356.92C152.585 356.92 149.006 356.119 145.955 354.517C142.903 352.898 140.534 350.69 138.847 347.895C137.176 345.082 136.341 341.886 136.341 338.307V303.636H142.682V337.795C142.682 340.352 143.244 342.628 144.369 344.622C145.494 346.599 147.097 348.159 149.176 349.301C151.273 350.426 153.778 350.989 156.693 350.989C159.608 350.989 162.114 350.426 164.21 349.301C166.307 348.159 167.909 346.599 169.017 344.622C170.142 342.628 170.705 340.352 170.705 337.795V303.636ZM194.924 332.375V356H188.89V316.727H194.719V322.864H195.231C196.151 320.869 197.549 319.267 199.424 318.057C201.299 316.83 203.719 316.216 206.685 316.216C209.344 316.216 211.671 316.761 213.665 317.852C215.66 318.926 217.211 320.562 218.319 322.761C219.427 324.943 219.981 327.705 219.981 331.045V356H213.947V331.455C213.947 328.369 213.146 325.966 211.543 324.244C209.941 322.506 207.742 321.636 204.947 321.636C203.021 321.636 201.299 322.054 199.782 322.889C198.282 323.724 197.097 324.943 196.228 326.545C195.359 328.148 194.924 330.091 194.924 332.375ZM231.007 356V316.727H237.041V356H231.007ZM234.075 310.182C232.899 310.182 231.885 309.781 231.033 308.98C230.197 308.179 229.78 307.216 229.78 306.091C229.78 304.966 230.197 304.003 231.033 303.202C231.885 302.401 232.899 302 234.075 302C235.251 302 236.257 302.401 237.092 303.202C237.945 304.003 238.371 304.966 238.371 306.091C238.371 307.216 237.945 308.179 237.092 308.98C236.257 309.781 235.251 310.182 234.075 310.182ZM280.207 316.727L265.684 356H259.548L245.025 316.727H251.57L262.411 348.023H262.82L273.661 316.727H280.207ZM303.231 356.818C299.447 356.818 296.183 355.983 293.438 354.312C290.711 352.625 288.606 350.273 287.123 347.256C285.657 344.222 284.924 340.693 284.924 336.67C284.924 332.648 285.657 329.102 287.123 326.034C288.606 322.949 290.668 320.545 293.31 318.824C295.969 317.085 299.072 316.216 302.617 316.216C304.663 316.216 306.683 316.557 308.677 317.239C310.671 317.92 312.487 319.028 314.123 320.562C315.759 322.08 317.063 324.091 318.035 326.597C319.006 329.102 319.492 332.187 319.492 335.852V338.409H289.219V333.193H313.356C313.356 330.977 312.913 329 312.026 327.261C311.157 325.523 309.913 324.151 308.293 323.145C306.691 322.139 304.799 321.636 302.617 321.636C300.214 321.636 298.134 322.233 296.379 323.426C294.64 324.602 293.302 326.136 292.364 328.028C291.427 329.92 290.958 331.949 290.958 334.114V337.591C290.958 340.557 291.469 343.071 292.492 345.134C293.532 347.179 294.972 348.739 296.813 349.812C298.654 350.869 300.793 351.398 303.231 351.398C304.816 351.398 306.248 351.176 307.526 350.733C308.822 350.273 309.938 349.591 310.876 348.688C311.813 347.767 312.538 346.625 313.049 345.261L318.879 346.898C318.265 348.875 317.234 350.614 315.785 352.114C314.336 353.597 312.546 354.756 310.415 355.591C308.285 356.409 305.89 356.818 303.231 356.818ZM328.671 356V316.727H334.501V322.659H334.91C335.626 320.716 336.921 319.139 338.796 317.929C340.671 316.719 342.785 316.114 345.137 316.114C345.58 316.114 346.134 316.122 346.799 316.139C347.464 316.156 347.967 316.182 348.308 316.216V322.352C348.103 322.301 347.634 322.224 346.901 322.122C346.185 322.003 345.427 321.943 344.626 321.943C342.717 321.943 341.012 322.344 339.512 323.145C338.029 323.929 336.853 325.02 335.984 326.418C335.131 327.798 334.705 329.375 334.705 331.148V356H328.671ZM383.278 325.523L377.858 327.057C377.517 326.153 377.014 325.276 376.349 324.423C375.702 323.554 374.815 322.838 373.69 322.276C372.565 321.713 371.125 321.432 369.369 321.432C366.966 321.432 364.963 321.986 363.361 323.094C361.776 324.185 360.983 325.574 360.983 327.261C360.983 328.761 361.528 329.946 362.619 330.815C363.71 331.685 365.415 332.409 367.733 332.989L373.562 334.42C377.074 335.273 379.69 336.577 381.412 338.332C383.134 340.071 383.994 342.312 383.994 345.057C383.994 347.307 383.347 349.318 382.051 351.091C380.773 352.864 378.983 354.261 376.682 355.284C374.381 356.307 371.705 356.818 368.653 356.818C364.648 356.818 361.332 355.949 358.707 354.21C356.082 352.472 354.42 349.932 353.722 346.591L359.449 345.159C359.994 347.273 361.026 348.858 362.543 349.915C364.077 350.972 366.08 351.5 368.551 351.5C371.364 351.5 373.597 350.903 375.25 349.71C376.92 348.5 377.756 347.051 377.756 345.364C377.756 344 377.278 342.858 376.324 341.938C375.369 341 373.903 340.301 371.926 339.841L365.381 338.307C361.784 337.455 359.142 336.134 357.455 334.344C355.784 332.537 354.949 330.278 354.949 327.568C354.949 325.352 355.571 323.392 356.815 321.688C358.077 319.983 359.79 318.645 361.955 317.673C364.136 316.702 366.608 316.216 369.369 316.216C373.256 316.216 376.307 317.068 378.523 318.773C380.756 320.477 382.341 322.727 383.278 325.523ZM393.077 356V316.727H399.112V356H393.077ZM396.146 310.182C394.969 310.182 393.955 309.781 393.103 308.98C392.268 308.179 391.85 307.216 391.85 306.091C391.85 304.966 392.268 304.003 393.103 303.202C393.955 302.401 394.969 302 396.146 302C397.322 302 398.327 302.401 399.163 303.202C400.015 304.003 400.441 304.966 400.441 306.091C400.441 307.216 400.015 308.179 399.163 308.98C398.327 309.781 397.322 310.182 396.146 310.182ZM424.993 356.818C421.72 356.818 418.831 355.991 416.325 354.338C413.82 352.668 411.859 350.315 410.445 347.281C409.03 344.23 408.322 340.625 408.322 336.466C408.322 332.341 409.03 328.761 410.445 325.727C411.859 322.693 413.828 320.349 416.351 318.696C418.874 317.043 421.788 316.216 425.095 316.216C427.652 316.216 429.672 316.642 431.155 317.494C432.655 318.33 433.797 319.284 434.581 320.358C435.382 321.415 436.004 322.284 436.447 322.966H436.959V303.636H442.993V356H437.163V349.966H436.447C436.004 350.682 435.374 351.585 434.555 352.676C433.737 353.75 432.57 354.713 431.053 355.565C429.536 356.401 427.516 356.818 424.993 356.818ZM425.811 351.398C428.232 351.398 430.277 350.767 431.947 349.506C433.618 348.227 434.888 346.463 435.757 344.213C436.626 341.946 437.061 339.33 437.061 336.364C437.061 333.432 436.635 330.866 435.783 328.668C434.93 326.452 433.669 324.73 431.999 323.503C430.328 322.259 428.266 321.636 425.811 321.636C423.254 321.636 421.124 322.293 419.419 323.605C417.732 324.901 416.462 326.665 415.609 328.898C414.774 331.114 414.357 333.602 414.357 336.364C414.357 339.159 414.783 341.699 415.635 343.983C416.504 346.25 417.783 348.057 419.47 349.403C421.175 350.733 423.288 351.398 425.811 351.398ZM466.439 356.92C463.95 356.92 461.692 356.452 459.663 355.514C457.635 354.56 456.024 353.188 454.831 351.398C453.638 349.591 453.041 347.409 453.041 344.852C453.041 342.602 453.484 340.778 454.371 339.381C455.257 337.966 456.442 336.858 457.925 336.057C459.408 335.256 461.044 334.659 462.834 334.267C464.641 333.858 466.456 333.534 468.28 333.295C470.666 332.989 472.601 332.759 474.084 332.605C475.584 332.435 476.675 332.153 477.357 331.761C478.055 331.369 478.405 330.687 478.405 329.716V329.511C478.405 326.989 477.714 325.028 476.334 323.631C474.97 322.233 472.899 321.534 470.121 321.534C467.24 321.534 464.982 322.165 463.345 323.426C461.709 324.687 460.558 326.034 459.893 327.466L454.166 325.42C455.189 323.034 456.553 321.176 458.257 319.847C459.979 318.5 461.854 317.562 463.882 317.034C465.928 316.489 467.939 316.216 469.916 316.216C471.178 316.216 472.626 316.369 474.263 316.676C475.916 316.966 477.51 317.571 479.044 318.491C480.595 319.412 481.882 320.801 482.905 322.659C483.928 324.517 484.439 327.006 484.439 330.125V356H478.405V350.682H478.098C477.689 351.534 477.007 352.446 476.053 353.418C475.098 354.389 473.828 355.216 472.243 355.898C470.658 356.58 468.723 356.92 466.439 356.92ZM467.359 351.5C469.746 351.5 471.757 351.031 473.393 350.094C475.047 349.156 476.291 347.946 477.126 346.463C477.979 344.98 478.405 343.42 478.405 341.784V336.261C478.149 336.568 477.587 336.849 476.717 337.105C475.865 337.344 474.876 337.557 473.751 337.744C472.643 337.915 471.561 338.068 470.504 338.205C469.464 338.324 468.621 338.426 467.973 338.511C466.405 338.716 464.939 339.048 463.575 339.509C462.229 339.952 461.138 340.625 460.303 341.528C459.484 342.415 459.075 343.625 459.075 345.159C459.075 347.256 459.851 348.841 461.402 349.915C462.97 350.972 464.956 351.5 467.359 351.5ZM510.282 356.818C507.009 356.818 504.12 355.991 501.614 354.338C499.109 352.668 497.148 350.315 495.734 347.281C494.319 344.23 493.612 340.625 493.612 336.466C493.612 332.341 494.319 328.761 495.734 325.727C497.148 322.693 499.117 320.349 501.64 318.696C504.163 317.043 507.077 316.216 510.384 316.216C512.941 316.216 514.961 316.642 516.444 317.494C517.944 318.33 519.086 319.284 519.87 320.358C520.671 321.415 521.293 322.284 521.737 322.966H522.248V303.636H528.282V356H522.452V349.966H521.737C521.293 350.682 520.663 351.585 519.844 352.676C519.026 353.75 517.859 354.713 516.342 355.565C514.825 356.401 512.805 356.818 510.282 356.818ZM511.1 351.398C513.521 351.398 515.566 350.767 517.237 349.506C518.907 348.227 520.177 346.463 521.046 344.213C521.915 341.946 522.35 339.33 522.35 336.364C522.35 333.432 521.924 330.866 521.072 328.668C520.219 326.452 518.958 324.73 517.288 323.503C515.617 322.259 513.555 321.636 511.1 321.636C508.543 321.636 506.413 322.293 504.708 323.605C503.021 324.901 501.751 326.665 500.898 328.898C500.063 331.114 499.646 333.602 499.646 336.364C499.646 339.159 500.072 341.699 500.924 343.983C501.793 346.25 503.072 348.057 504.759 349.403C506.464 350.733 508.577 351.398 511.1 351.398Z" fill="#33303A"/>
</g>
<defs>
<clipPath id="clip0_1326_2">
<rect width="1200" height="900" fill="white"/>
</clipPath>
</defs>
</svg>
