<svg width="1200" height="900" viewBox="0 0 1200 900" fill="none" xmlns="http://www.w3.org/2000/svg">
<g clip-path="url(#clip0_1326_16)">
<path d="M1200 0H0V900H1200V0Z" fill="#FDF0F3"/>
<path opacity="0.55" d="M1050 500C1215.69 500 1350 365.685 1350 200C1350 34.3146 1215.69 -100 1050 -100C884.315 -100 750 34.3146 750 200C750 365.685 884.315 500 1050 500Z" fill="#F5D5DE"/>
<path opacity="0.15" d="M900 1020C1010.46 1020 1100 930.457 1100 820C1100 709.543 1010.46 620 900 620C789.543 620 700 709.543 700 820C700 930.457 789.543 1020 900 1020Z" fill="#E8A3B5"/>
<path opacity="0.35" d="M60 320C126.274 320 180 266.274 180 200C180 133.726 126.274 80 60 80C-6.27417 80 -60 133.726 -60 200C-60 266.274 -6.27417 320 60 320Z" fill="#F5D5DE"/>
<path d="M106 223C106 221.343 104.657 220 103 220C101.343 220 100 221.343 100 223V337C100 338.657 101.343 340 103 340C104.657 340 106 338.657 106 337V223Z" fill="#D4788A"/>
<path d="M101.472 599L113.562 580.983L113.602 580.824H103.102L103.46 578.636H116.506L116.108 580.943L104.057 599H101.472ZM122.996 599.278C121.498 599.278 120.292 598.871 119.377 598.055C118.462 597.233 117.859 596.044 117.567 594.486C117.275 592.921 117.309 591.032 117.667 588.818C118.025 586.617 118.611 584.738 119.426 583.18C120.242 581.616 121.246 580.423 122.439 579.601C123.632 578.772 124.971 578.358 126.456 578.358C127.941 578.358 129.144 578.772 130.066 579.601C130.994 580.429 131.61 581.623 131.915 583.18C132.227 584.738 132.197 586.617 131.826 588.818C131.454 591.032 130.861 592.918 130.046 594.476C129.23 596.034 128.226 597.223 127.033 598.045C125.84 598.867 124.494 599.278 122.996 599.278ZM123.354 597.091C124.846 597.091 126.122 596.375 127.182 594.943C128.249 593.505 129.002 591.463 129.439 588.818C129.731 587.055 129.791 585.554 129.618 584.314C129.446 583.074 129.061 582.13 128.465 581.48C127.868 580.83 127.079 580.506 126.098 580.506C124.627 580.506 123.361 581.232 122.3 582.683C121.239 584.128 120.49 586.173 120.053 588.818C119.761 590.581 119.698 592.08 119.864 593.312C120.03 594.545 120.408 595.483 120.998 596.126C121.587 596.769 122.373 597.091 123.354 597.091ZM140.496 595.42L142.664 582.295H144.911L142.743 595.42H140.496ZM135.942 589.972L136.32 587.744H149.445L149.067 589.972H135.942ZM166.629 599.318C165.164 599.318 163.955 598.993 163 598.344C162.045 597.688 161.379 596.773 161.001 595.599C160.624 594.42 160.564 593.047 160.822 591.483C161.081 589.919 161.595 588.54 162.364 587.347C163.133 586.147 164.09 585.212 165.237 584.543C166.384 583.866 167.643 583.528 169.016 583.528C169.811 583.528 170.577 583.661 171.312 583.926C172.048 584.191 172.685 584.622 173.222 585.219C173.759 585.809 174.133 586.591 174.345 587.565C174.557 588.54 174.544 589.74 174.305 591.165L174.146 592.159H162.374L162.692 590.131H172.078C172.231 589.269 172.191 588.5 171.959 587.824C171.733 587.148 171.339 586.614 170.776 586.223C170.219 585.832 169.513 585.636 168.658 585.636C167.776 585.636 166.954 585.875 166.192 586.352C165.429 586.823 164.793 587.42 164.283 588.142C163.772 588.858 163.454 589.587 163.328 590.33L163.05 592.08C162.851 593.346 162.881 594.353 163.139 595.102C163.404 595.851 163.865 596.392 164.521 596.723C165.178 597.048 166 597.21 166.987 597.21C167.617 597.21 168.197 597.124 168.727 596.952C169.258 596.773 169.732 596.508 170.149 596.156C170.567 595.798 170.918 595.354 171.203 594.824L173.351 595.46C172.986 596.229 172.473 596.905 171.81 597.489C171.153 598.065 170.384 598.516 169.503 598.841C168.628 599.159 167.67 599.318 166.629 599.318ZM180.502 583.727L183.127 589.972L187.821 583.727H190.525L184.321 591.364L187.98 599H185.275L182.61 593.074L177.957 599H175.252L181.377 591.364L177.798 583.727H180.502ZM195.186 589.812L193.675 599H191.328L194.709 578.636H197.055L195.822 586.114H196.021C196.499 585.318 197.135 584.688 197.93 584.224C198.732 583.76 199.74 583.528 200.953 583.528C201.987 583.528 202.859 583.737 203.568 584.155C204.284 584.566 204.788 585.199 205.08 586.054C205.378 586.902 205.421 587.983 205.209 589.295L203.578 599H201.232L202.822 589.455C203.021 588.241 202.859 587.304 202.335 586.641C201.818 585.971 201.013 585.636 199.919 585.636C199.15 585.636 198.434 585.799 197.771 586.124C197.115 586.448 196.558 586.922 196.101 587.545C195.65 588.169 195.345 588.924 195.186 589.812ZM207.871 599L210.417 583.727H212.763L210.218 599H207.871ZM212.306 581.142C211.848 581.142 211.454 580.986 211.123 580.675C210.798 580.363 210.635 579.989 210.635 579.551C210.635 579.114 210.798 578.739 211.123 578.428C211.454 578.116 211.848 577.96 212.306 577.96C212.763 577.96 213.154 578.116 213.479 578.428C213.81 578.739 213.976 579.114 213.976 579.551C213.976 579.989 213.81 580.363 213.479 580.675C213.154 580.986 212.763 581.142 212.306 581.142ZM214.834 599L218.214 578.636H220.561L219.328 586.153H219.527C219.739 585.888 220.034 585.55 220.412 585.139C220.79 584.722 221.297 584.35 221.933 584.026C222.57 583.694 223.385 583.528 224.379 583.528C225.665 583.528 226.742 583.85 227.611 584.493C228.486 585.136 229.099 586.047 229.45 587.227C229.808 588.407 229.855 589.799 229.589 591.403C229.324 593.021 228.817 594.423 228.068 595.609C227.326 596.789 226.411 597.704 225.324 598.354C224.243 598.997 223.067 599.318 221.794 599.318C220.813 599.318 220.054 599.156 219.517 598.831C218.987 598.5 218.596 598.125 218.344 597.707C218.098 597.283 217.91 596.932 217.777 596.653H217.499L217.101 599H214.834ZM218.413 591.364C218.228 592.517 218.231 593.535 218.423 594.416C218.616 595.291 218.997 595.977 219.567 596.474C220.137 596.965 220.893 597.21 221.834 597.21C222.815 597.21 223.677 596.952 224.419 596.435C225.161 595.911 225.771 595.208 226.249 594.327C226.726 593.438 227.057 592.451 227.243 591.364C227.415 590.29 227.409 589.322 227.223 588.46C227.044 587.592 226.666 586.906 226.089 586.402C225.519 585.892 224.737 585.636 223.743 585.636C222.788 585.636 221.943 585.878 221.207 586.362C220.478 586.839 219.875 587.509 219.398 588.371C218.927 589.226 218.599 590.223 218.413 591.364ZM231.906 599L234.452 583.727H236.798L234.253 599H231.906ZM236.341 581.142C235.884 581.142 235.489 580.986 235.158 580.675C234.833 580.363 234.67 579.989 234.67 579.551C234.67 579.114 234.833 578.739 235.158 578.428C235.489 578.116 235.884 577.96 236.341 577.96C236.798 577.96 237.189 578.116 237.514 578.428C237.846 578.739 238.011 579.114 238.011 579.551C238.011 579.989 237.846 580.363 237.514 580.675C237.189 580.986 236.798 581.142 236.341 581.142ZM247.738 583.727L247.42 585.716H239.505L239.824 583.727H247.738ZM242.727 580.068H245.074L242.647 594.625C242.541 595.288 242.558 595.785 242.697 596.116C242.843 596.441 243.062 596.66 243.353 596.773C243.652 596.879 243.973 596.932 244.318 596.932C244.576 596.932 244.788 596.919 244.954 596.892C245.12 596.859 245.252 596.832 245.352 596.812L245.511 598.92C245.332 598.98 245.09 599.04 244.785 599.099C244.487 599.166 244.119 599.199 243.681 599.199C243.019 599.199 242.395 599.056 241.812 598.771C241.229 598.486 240.781 598.052 240.47 597.469C240.158 596.885 240.075 596.15 240.221 595.261L242.727 580.068ZM248.723 599L251.268 583.727H253.615L251.069 599H248.723ZM253.157 581.142C252.7 581.142 252.306 580.986 251.974 580.675C251.649 580.363 251.487 579.989 251.487 579.551C251.487 579.114 251.649 578.739 251.974 578.428C252.306 578.116 252.7 577.96 253.157 577.96C253.615 577.96 254.006 578.116 254.331 578.428C254.662 578.739 254.828 579.114 254.828 579.551C254.828 579.989 254.662 580.363 254.331 580.675C254.006 580.986 253.615 581.142 253.157 581.142ZM261.671 599.318C260.266 599.318 259.089 598.983 258.141 598.314C257.193 597.644 256.524 596.706 256.133 595.5C255.748 594.294 255.685 592.888 255.944 591.284C256.196 589.72 256.696 588.357 257.445 587.197C258.201 586.031 259.139 585.129 260.259 584.493C261.386 583.85 262.626 583.528 263.978 583.528C265.383 583.528 266.557 583.866 267.498 584.543C268.446 585.212 269.115 586.153 269.506 587.366C269.897 588.573 269.964 589.985 269.705 591.602C269.453 593.153 268.946 594.509 268.184 595.669C267.428 596.822 266.49 597.721 265.37 598.364C264.256 599 263.023 599.318 261.671 599.318ZM261.711 597.21C262.785 597.21 263.716 596.935 264.505 596.385C265.3 595.835 265.943 595.109 266.434 594.207C266.931 593.306 267.266 592.331 267.438 591.284C267.597 590.29 267.591 589.365 267.418 588.51C267.246 587.648 266.878 586.955 266.315 586.432C265.751 585.902 264.959 585.636 263.938 585.636C262.864 585.636 261.926 585.915 261.124 586.472C260.329 587.028 259.686 587.761 259.195 588.669C258.705 589.577 258.377 590.555 258.211 591.602C258.052 592.597 258.055 593.521 258.221 594.376C258.393 595.225 258.761 595.911 259.325 596.435C259.895 596.952 260.69 597.21 261.711 597.21ZM275.932 589.812L274.421 599H272.074L274.62 583.727H276.887L276.489 586.114H276.688C277.165 585.338 277.811 584.715 278.627 584.244C279.442 583.767 280.426 583.528 281.58 583.528C282.601 583.528 283.462 583.741 284.165 584.165C284.874 584.582 285.375 585.219 285.667 586.074C285.965 586.922 286.008 587.996 285.796 589.295L284.165 599H281.819L283.409 589.455C283.608 588.261 283.453 587.327 282.942 586.651C282.438 585.974 281.64 585.636 280.546 585.636C279.79 585.636 279.091 585.799 278.448 586.124C277.811 586.448 277.271 586.922 276.827 587.545C276.39 588.169 276.091 588.924 275.932 589.812ZM305.675 583.727L305.357 585.716H297.124L297.442 583.727H305.675ZM297.362 599L300.266 581.619C300.398 580.744 300.716 580.015 301.22 579.432C301.731 578.848 302.337 578.411 303.04 578.119C303.749 577.828 304.468 577.682 305.197 577.682C305.774 577.682 306.235 577.728 306.58 577.821C306.931 577.914 307.186 578 307.345 578.08L306.351 580.108C306.232 580.068 306.072 580.018 305.874 579.959C305.681 579.899 305.416 579.869 305.078 579.869C304.303 579.869 303.713 580.065 303.308 580.456C302.904 580.847 302.632 581.42 302.493 582.176L299.709 599H297.362ZM306.418 599L308.963 583.727H311.31L308.765 599H306.418ZM310.853 581.142C310.395 581.142 310.001 580.986 309.669 580.675C309.345 580.363 309.182 579.989 309.182 579.551C309.182 579.114 309.345 578.739 309.669 578.428C310.001 578.116 310.395 577.96 310.853 577.96C311.31 577.96 311.701 578.116 312.026 578.428C312.357 578.739 312.523 579.114 312.523 579.551C312.523 579.989 312.357 580.363 312.026 580.675C311.701 580.986 311.31 581.142 310.853 581.142ZM318.79 578.636L315.409 599H313.062L316.443 578.636H318.79ZM326.071 599.318C324.606 599.318 323.396 598.993 322.441 598.344C321.487 597.688 320.821 596.773 320.443 595.599C320.065 594.42 320.005 593.047 320.264 591.483C320.522 589.919 321.036 588.54 321.805 587.347C322.574 586.147 323.532 585.212 324.679 584.543C325.825 583.866 327.085 583.528 328.457 583.528C329.252 583.528 330.018 583.661 330.754 583.926C331.49 584.191 332.126 584.622 332.663 585.219C333.2 585.809 333.574 586.591 333.787 587.565C333.999 588.54 333.985 589.74 333.747 591.165L333.588 592.159H321.815L322.133 590.131H331.52C331.672 589.269 331.632 588.5 331.4 587.824C331.175 587.148 330.78 586.614 330.217 586.223C329.66 585.832 328.954 585.636 328.099 585.636C327.217 585.636 326.395 585.875 325.633 586.352C324.871 586.823 324.234 587.42 323.724 588.142C323.214 588.858 322.895 589.587 322.77 590.33L322.491 592.08C322.292 593.346 322.322 594.353 322.581 595.102C322.846 595.851 323.306 596.392 323.963 596.723C324.619 597.048 325.441 597.21 326.429 597.21C327.058 597.21 327.638 597.124 328.169 596.952C328.699 596.773 329.173 596.508 329.591 596.156C330.008 595.798 330.359 595.354 330.645 594.824L332.792 595.46C332.428 596.229 331.914 596.905 331.251 597.489C330.595 598.065 329.826 598.516 328.944 598.841C328.069 599.159 327.111 599.318 326.071 599.318ZM348.865 587.148L346.638 587.744C346.559 587.386 346.419 587.042 346.221 586.71C346.028 586.372 345.73 586.097 345.326 585.885C344.928 585.666 344.384 585.557 343.695 585.557C342.76 585.557 341.948 585.772 341.259 586.203C340.569 586.627 340.175 587.168 340.076 587.824C339.976 588.401 340.109 588.861 340.473 589.206C340.838 589.551 341.448 589.832 342.303 590.051L344.49 590.608C345.803 590.946 346.738 591.453 347.294 592.129C347.858 592.799 348.05 593.67 347.871 594.744C347.725 595.619 347.344 596.402 346.728 597.091C346.111 597.78 345.322 598.324 344.361 598.722C343.4 599.119 342.329 599.318 341.15 599.318C339.578 599.318 338.339 598.98 337.431 598.304C336.523 597.621 336.039 596.634 335.979 595.341L338.326 594.784C338.385 595.599 338.677 596.216 339.201 596.634C339.731 597.045 340.473 597.25 341.428 597.25C342.522 597.25 343.433 597.018 344.162 596.554C344.891 596.083 345.306 595.52 345.405 594.864C345.505 594.327 345.399 593.879 345.087 593.521C344.782 593.163 344.252 592.895 343.496 592.716L341.07 592.119C339.718 591.781 338.77 591.264 338.226 590.568C337.689 589.872 337.51 588.997 337.689 587.943C337.835 587.081 338.206 586.319 338.803 585.656C339.406 584.993 340.162 584.473 341.07 584.095C341.985 583.717 342.979 583.528 344.053 583.528C345.564 583.528 346.694 583.86 347.444 584.523C348.193 585.179 348.667 586.054 348.865 587.148ZM361.764 591.861C361.26 591.861 360.839 591.688 360.501 591.344C360.163 590.992 359.988 590.568 359.974 590.071C359.968 589.574 360.143 589.16 360.501 588.828C360.859 588.49 361.28 588.321 361.764 588.321C362.255 588.321 362.679 588.493 363.037 588.838C363.395 589.183 363.567 589.594 363.554 590.071C363.547 590.402 363.461 590.704 363.295 590.976C363.136 591.248 362.921 591.463 362.649 591.622C362.384 591.781 362.089 591.861 361.764 591.861ZM384.648 578.636L381.268 599H378.802L381.745 581.222H381.626L376.097 584.523L376.535 582.017L382.183 578.636H384.648ZM393.766 599.278C392.374 599.278 391.184 599.023 390.197 598.513C389.216 597.996 388.496 597.296 388.039 596.415C387.588 595.533 387.456 594.539 387.641 593.432C387.781 592.597 388.079 591.824 388.536 591.115C388.994 590.406 389.55 589.812 390.207 589.335C390.87 588.858 391.579 588.553 392.335 588.42V588.341C391.4 588.082 390.727 587.509 390.316 586.621C389.912 585.726 389.816 584.722 390.028 583.608C390.227 582.58 390.647 581.672 391.29 580.884C391.933 580.095 392.739 579.478 393.707 579.034C394.674 578.583 395.742 578.358 396.908 578.358C398.115 578.358 399.156 578.603 400.031 579.094C400.906 579.578 401.549 580.241 401.96 581.082C402.377 581.918 402.496 582.866 402.317 583.926C402.125 585.06 401.651 586.021 400.896 586.81C400.14 587.592 399.275 588.102 398.3 588.341V588.42C399.016 588.566 399.636 588.894 400.16 589.405C400.69 589.915 401.075 590.548 401.313 591.304C401.552 592.053 401.595 592.868 401.442 593.75C401.263 594.83 400.816 595.788 400.1 596.624C399.384 597.452 398.479 598.102 397.386 598.572C396.299 599.043 395.092 599.278 393.766 599.278ZM393.846 597.091C394.807 597.091 395.659 596.935 396.401 596.624C397.144 596.305 397.747 595.865 398.211 595.301C398.682 594.731 398.977 594.068 399.096 593.312C399.215 592.557 399.132 591.897 398.847 591.334C398.562 590.764 398.118 590.323 397.515 590.011C396.912 589.693 396.192 589.534 395.357 589.534C394.469 589.534 393.647 589.71 392.891 590.061C392.136 590.412 391.506 590.896 391.002 591.513C390.505 592.129 390.193 592.835 390.067 593.631C389.955 594.34 390.031 594.956 390.296 595.48C390.561 595.997 390.996 596.395 391.599 596.673C392.202 596.952 392.951 597.091 393.846 597.091ZM395.437 587.426C396.212 587.426 396.918 587.27 397.555 586.959C398.198 586.647 398.728 586.216 399.146 585.666C399.57 585.116 399.845 584.483 399.971 583.767C400.097 583.078 400.047 582.491 399.822 582.007C399.603 581.517 399.242 581.145 398.738 580.893C398.234 580.635 397.611 580.506 396.869 580.506C396.067 580.506 395.344 580.655 394.701 580.953C394.065 581.251 393.541 581.669 393.13 582.206C392.719 582.743 392.454 583.369 392.335 584.085C392.222 584.781 392.281 585.381 392.513 585.885C392.746 586.382 393.113 586.763 393.617 587.028C394.128 587.294 394.734 587.426 395.437 587.426ZM412.293 599L414.838 583.727H417.105L416.708 586.114H416.907C417.364 585.298 417.984 584.665 418.766 584.214C419.555 583.757 420.446 583.528 421.441 583.528C422.435 583.528 423.234 583.757 423.837 584.214C424.44 584.665 424.861 585.298 425.1 586.114H425.259C425.776 585.318 426.465 584.688 427.327 584.224C428.195 583.76 429.176 583.528 430.27 583.528C431.623 583.528 432.663 583.956 433.392 584.811C434.128 585.666 434.347 586.989 434.049 588.778L432.338 599H429.992L431.702 588.778C431.881 587.645 431.702 586.839 431.165 586.362C430.635 585.878 429.952 585.636 429.117 585.636C428.043 585.636 427.158 585.958 426.462 586.601C425.766 587.244 425.338 588.062 425.179 589.057L423.509 599H421.123L422.873 588.54C423.012 587.665 422.846 586.962 422.375 586.432C421.905 585.902 421.222 585.636 420.327 585.636C419.717 585.636 419.121 585.802 418.537 586.134C417.954 586.458 417.453 586.909 417.036 587.486C416.618 588.056 416.35 588.712 416.23 589.455L414.64 599H412.293ZM442.933 599.318C441.528 599.318 440.351 598.983 439.403 598.314C438.455 597.644 437.786 596.706 437.395 595.5C437.01 594.294 436.947 592.888 437.206 591.284C437.458 589.72 437.958 588.357 438.707 587.197C439.463 586.031 440.401 585.129 441.521 584.493C442.648 583.85 443.887 583.528 445.24 583.528C446.645 583.528 447.818 583.866 448.76 584.543C449.708 585.212 450.377 586.153 450.768 587.366C451.159 588.573 451.225 589.985 450.967 591.602C450.715 593.153 450.208 594.509 449.446 595.669C448.69 596.822 447.752 597.721 446.632 598.364C445.518 599 444.285 599.318 442.933 599.318ZM442.973 597.21C444.047 597.21 444.978 596.935 445.767 596.385C446.562 595.835 447.205 595.109 447.696 594.207C448.193 593.306 448.528 592.331 448.7 591.284C448.859 590.29 448.852 589.365 448.68 588.51C448.508 587.648 448.14 586.955 447.576 586.432C447.013 585.902 446.221 585.636 445.2 585.636C444.126 585.636 443.188 585.915 442.386 586.472C441.591 587.028 440.948 587.761 440.457 588.669C439.967 589.577 439.638 590.555 439.473 591.602C439.314 592.597 439.317 593.521 439.483 594.376C439.655 595.225 440.023 595.911 440.586 596.435C441.156 596.952 441.952 597.21 442.973 597.21ZM457.194 589.812L455.683 599H453.336L455.881 583.727H458.148L457.751 586.114H457.95C458.427 585.338 459.073 584.715 459.888 584.244C460.704 583.767 461.688 583.528 462.842 583.528C463.862 583.528 464.724 583.741 465.427 584.165C466.136 584.582 466.637 585.219 466.928 586.074C467.227 586.922 467.27 587.996 467.058 589.295L465.427 599H463.08L464.671 589.455C464.87 588.261 464.714 587.327 464.204 586.651C463.7 585.974 462.901 585.636 461.808 585.636C461.052 585.636 460.353 585.799 459.71 586.124C459.073 586.448 458.533 586.922 458.089 587.545C457.651 588.169 457.353 588.924 457.194 589.812ZM478.902 583.727L478.584 585.716H470.669L470.988 583.727H478.902ZM473.891 580.068H476.238L473.811 594.625C473.705 595.288 473.722 595.785 473.861 596.116C474.007 596.441 474.226 596.66 474.517 596.773C474.816 596.879 475.137 596.932 475.482 596.932C475.74 596.932 475.953 596.919 476.118 596.892C476.284 596.859 476.417 596.832 476.516 596.812L476.675 598.92C476.496 598.98 476.254 599.04 475.949 599.099C475.651 599.166 475.283 599.199 474.846 599.199C474.183 599.199 473.56 599.056 472.976 598.771C472.393 598.486 471.945 598.052 471.634 597.469C471.322 596.885 471.239 596.15 471.385 595.261L473.891 580.068ZM484.073 589.812L482.561 599H480.215L483.596 578.636H485.942L484.709 586.114H484.908C485.385 585.318 486.022 584.688 486.817 584.224C487.619 583.76 488.627 583.528 489.84 583.528C490.874 583.528 491.746 583.737 492.455 584.155C493.171 584.566 493.675 585.199 493.966 586.054C494.265 586.902 494.308 587.983 494.096 589.295L492.465 599H490.118L491.709 589.455C491.908 588.241 491.746 587.304 491.222 586.641C490.705 585.971 489.9 585.636 488.806 585.636C488.037 585.636 487.321 585.799 486.658 586.124C486.002 586.448 485.445 586.922 484.988 587.545C484.537 588.169 484.232 588.924 484.073 589.812ZM509.565 587.148L507.337 587.744C507.258 587.386 507.119 587.042 506.92 586.71C506.728 586.372 506.429 586.097 506.025 585.885C505.627 585.666 505.084 585.557 504.394 585.557C503.46 585.557 502.647 585.772 501.958 586.203C501.269 586.627 500.874 587.168 500.775 587.824C500.675 588.401 500.808 588.861 501.173 589.206C501.537 589.551 502.147 589.832 503.002 590.051L505.19 590.608C506.502 590.946 507.437 591.453 507.994 592.129C508.557 592.799 508.749 593.67 508.57 594.744C508.424 595.619 508.043 596.402 507.427 597.091C506.81 597.78 506.022 598.324 505.06 598.722C504.099 599.119 503.029 599.318 501.849 599.318C500.278 599.318 499.038 598.98 498.13 598.304C497.222 597.621 496.738 596.634 496.678 595.341L499.025 594.784C499.085 595.599 499.376 596.216 499.9 596.634C500.43 597.045 501.173 597.25 502.127 597.25C503.221 597.25 504.132 597.018 504.862 596.554C505.591 596.083 506.005 595.52 506.104 594.864C506.204 594.327 506.098 593.879 505.786 593.521C505.481 593.163 504.951 592.895 504.195 592.716L501.769 592.119C500.417 591.781 499.469 591.264 498.925 590.568C498.388 589.872 498.21 588.997 498.388 587.943C498.534 587.081 498.906 586.319 499.502 585.656C500.105 584.993 500.861 584.473 501.769 584.095C502.684 583.717 503.678 583.528 504.752 583.528C506.263 583.528 507.394 583.86 508.143 584.523C508.892 585.179 509.366 586.054 509.565 587.148Z" fill="#635D6A"/>
<path d="M100.966 806.017V804.455H111.875V806.017H107.301V819H105.54V806.017H100.966ZM124.139 804.455H125.9V814.085C125.9 815.08 125.666 815.967 125.197 816.749C124.733 817.525 124.077 818.138 123.23 818.588C122.382 819.033 121.388 819.256 120.247 819.256C119.106 819.256 118.111 819.033 117.264 818.588C116.416 818.138 115.758 817.525 115.289 816.749C114.825 815.967 114.593 815.08 114.593 814.085V804.455H116.355V813.943C116.355 814.653 116.511 815.286 116.824 815.839C117.136 816.389 117.581 816.822 118.159 817.139C118.741 817.452 119.437 817.608 120.247 817.608C121.056 817.608 121.752 817.452 122.335 817.139C122.917 816.822 123.362 816.389 123.67 815.839C123.983 815.286 124.139 814.653 124.139 813.943V804.455ZM141.122 809H139.361C139.257 808.493 139.074 808.048 138.814 807.665C138.558 807.281 138.246 806.959 137.876 806.699C137.512 806.434 137.107 806.235 136.662 806.102C136.217 805.97 135.753 805.903 135.27 805.903C134.389 805.903 133.591 806.126 132.876 806.571C132.166 807.016 131.6 807.672 131.179 808.538C130.762 809.405 130.554 810.468 130.554 811.727C130.554 812.987 130.762 814.05 131.179 814.916C131.6 815.783 132.166 816.438 132.876 816.884C133.591 817.329 134.389 817.551 135.27 817.551C135.753 817.551 136.217 817.485 136.662 817.352C137.107 817.22 137.512 817.023 137.876 816.763C138.246 816.498 138.558 816.173 138.814 815.79C139.074 815.402 139.257 814.956 139.361 814.455H141.122C140.99 815.198 140.748 815.863 140.398 816.45C140.047 817.037 139.612 817.537 139.091 817.949C138.57 818.356 137.985 818.666 137.337 818.879C136.693 819.092 136.004 819.199 135.27 819.199C134.029 819.199 132.926 818.896 131.96 818.29C130.994 817.684 130.234 816.822 129.68 815.705C129.126 814.587 128.849 813.261 128.849 811.727C128.849 810.193 129.126 808.867 129.68 807.75C130.234 806.633 130.994 805.771 131.96 805.165C132.926 804.559 134.029 804.256 135.27 804.256C136.004 804.256 136.693 804.362 137.337 804.575C137.985 804.788 138.57 805.101 139.091 805.513C139.612 805.92 140.047 806.417 140.398 807.004C140.748 807.587 140.99 808.252 141.122 809ZM151.923 808.091C151.838 807.371 151.492 806.812 150.886 806.415C150.28 806.017 149.537 805.818 148.656 805.818C148.012 805.818 147.449 805.922 146.966 806.131C146.487 806.339 146.113 806.625 145.843 806.99C145.578 807.355 145.446 807.769 145.446 808.233C145.446 808.621 145.538 808.955 145.723 809.234C145.912 809.509 146.154 809.739 146.447 809.923C146.741 810.103 147.048 810.252 147.37 810.371C147.692 810.484 147.988 810.577 148.258 810.648L149.735 811.045C150.114 811.145 150.536 811.282 151 811.457C151.468 811.633 151.916 811.872 152.342 812.175C152.773 812.473 153.128 812.857 153.407 813.325C153.687 813.794 153.826 814.369 153.826 815.051C153.826 815.837 153.62 816.547 153.208 817.182C152.801 817.816 152.205 818.321 151.419 818.695C150.637 819.069 149.688 819.256 148.571 819.256C147.529 819.256 146.627 819.088 145.865 818.751C145.107 818.415 144.511 817.946 144.075 817.345C143.644 816.744 143.4 816.045 143.343 815.25H145.162C145.209 815.799 145.394 816.254 145.716 816.614C146.042 816.969 146.454 817.234 146.951 817.409C147.453 817.58 147.993 817.665 148.571 817.665C149.243 817.665 149.847 817.556 150.382 817.338C150.917 817.116 151.341 816.808 151.653 816.415C151.966 816.017 152.122 815.553 152.122 815.023C152.122 814.54 151.987 814.147 151.717 813.844C151.447 813.541 151.092 813.295 150.652 813.105C150.211 812.916 149.735 812.75 149.224 812.608L147.434 812.097C146.298 811.77 145.398 811.304 144.735 810.697C144.073 810.091 143.741 809.298 143.741 808.318C143.741 807.504 143.961 806.794 144.402 806.188C144.847 805.577 145.443 805.103 146.191 804.767C146.944 804.426 147.785 804.256 148.713 804.256C149.65 804.256 150.484 804.424 151.213 804.76C151.942 805.091 152.52 805.546 152.946 806.124C153.377 806.701 153.604 807.357 153.627 808.091H151.923ZM168.995 811.727C168.995 813.261 168.718 814.587 168.164 815.705C167.61 816.822 166.85 817.684 165.884 818.29C164.918 818.896 163.815 819.199 162.575 819.199C161.334 819.199 160.231 818.896 159.265 818.29C158.299 817.684 157.539 816.822 156.985 815.705C156.431 814.587 156.154 813.261 156.154 811.727C156.154 810.193 156.431 808.867 156.985 807.75C157.539 806.633 158.299 805.771 159.265 805.165C160.231 804.559 161.334 804.256 162.575 804.256C163.815 804.256 164.918 804.559 165.884 805.165C166.85 805.771 167.61 806.633 168.164 807.75C168.718 808.867 168.995 810.193 168.995 811.727ZM167.29 811.727C167.29 810.468 167.08 809.405 166.658 808.538C166.242 807.672 165.676 807.016 164.961 806.571C164.251 806.126 163.455 805.903 162.575 805.903C161.694 805.903 160.896 806.126 160.181 806.571C159.471 807.016 158.905 807.672 158.484 808.538C158.067 809.405 157.859 810.468 157.859 811.727C157.859 812.987 158.067 814.05 158.484 814.916C158.905 815.783 159.471 816.438 160.181 816.884C160.896 817.329 161.694 817.551 162.575 817.551C163.455 817.551 164.251 817.329 164.961 816.884C165.676 816.438 166.242 815.783 166.658 814.916C167.08 814.05 167.29 812.987 167.29 811.727ZM183.491 804.455V819H181.786L173.86 807.58H173.718V819H171.957V804.455H173.661L181.616 815.903H181.758V804.455H183.491ZM189.288 817.011L189.174 817.778C189.094 818.318 188.971 818.896 188.805 819.511C188.644 820.127 188.476 820.707 188.301 821.251C188.126 821.796 187.981 822.229 187.868 822.551H186.589C186.651 822.248 186.731 821.848 186.831 821.351C186.93 820.854 187.029 820.297 187.129 819.682C187.233 819.071 187.318 818.446 187.385 817.807L187.47 817.011H189.288ZM198.842 819H196.996L202.337 804.455H204.155L209.496 819H207.649L203.303 806.756H203.189L198.842 819ZM199.524 813.318H206.967V814.881H199.524V813.318ZM211.761 819V804.455H216.676C217.813 804.455 218.745 804.649 219.474 805.037C220.204 805.42 220.743 805.948 221.094 806.621C221.444 807.293 221.619 808.058 221.619 808.915C221.619 809.772 221.444 810.532 221.094 811.195C220.743 811.857 220.206 812.378 219.482 812.757C218.757 813.131 217.831 813.318 216.705 813.318H212.727V811.727H216.648C217.424 811.727 218.049 811.614 218.523 811.386C219.001 811.159 219.347 810.837 219.56 810.42C219.777 809.999 219.886 809.497 219.886 808.915C219.886 808.332 219.777 807.823 219.56 807.388C219.342 806.952 218.994 806.616 218.516 806.379C218.037 806.138 217.405 806.017 216.619 806.017H213.523V819H211.761ZM218.608 812.466L222.188 819H220.142L216.619 812.466H218.608ZM226.316 804.455V819H224.554V804.455H226.316ZM229.364 819V817.722L237.205 806.017H229.279V804.455H239.308V805.733L231.467 817.438H239.393V819H229.364ZM253.936 811.727C253.936 813.261 253.659 814.587 253.105 815.705C252.551 816.822 251.792 817.684 250.826 818.29C249.86 818.896 248.757 819.199 247.516 819.199C246.275 819.199 245.172 818.896 244.206 818.29C243.24 817.684 242.48 816.822 241.926 815.705C241.373 814.587 241.096 813.261 241.096 811.727C241.096 810.193 241.373 808.867 241.926 807.75C242.48 806.633 243.24 805.771 244.206 805.165C245.172 804.559 246.275 804.256 247.516 804.256C248.757 804.256 249.86 804.559 250.826 805.165C251.792 805.771 252.551 806.633 253.105 807.75C253.659 808.867 253.936 810.193 253.936 811.727ZM252.232 811.727C252.232 810.468 252.021 809.405 251.6 808.538C251.183 807.672 250.617 807.016 249.902 806.571C249.192 806.126 248.397 805.903 247.516 805.903C246.635 805.903 245.837 806.126 245.123 806.571C244.412 807.016 243.846 807.672 243.425 808.538C243.008 809.405 242.8 810.468 242.8 811.727C242.8 812.987 243.008 814.05 243.425 814.916C243.846 815.783 244.412 816.438 245.123 816.884C245.837 817.329 246.635 817.551 247.516 817.551C248.397 817.551 249.192 817.329 249.902 816.884C250.617 816.438 251.183 815.783 251.6 814.916C252.021 814.05 252.232 812.987 252.232 811.727ZM268.432 804.455V819H266.728L258.801 807.58H258.659V819H256.898V804.455H258.603L266.557 815.903H266.699V804.455H268.432ZM272.553 819H270.707L276.048 804.455H277.866L283.207 819H281.36L277.013 806.756H276.9L272.553 819ZM273.235 813.318H280.678V814.881H273.235V813.318ZM292.092 813.915C291.741 813.915 291.441 813.789 291.19 813.538C290.939 813.287 290.813 812.987 290.813 812.636C290.813 812.286 290.939 811.985 291.19 811.734C291.441 811.483 291.741 811.358 292.092 811.358C292.442 811.358 292.743 811.483 292.994 811.734C293.245 811.985 293.37 812.286 293.37 812.636C293.37 812.868 293.311 813.081 293.192 813.276C293.079 813.47 292.925 813.626 292.731 813.744C292.541 813.858 292.328 813.915 292.092 813.915ZM301.974 819V817.722L306.776 812.466C307.339 811.85 307.803 811.315 308.168 810.861C308.532 810.402 308.802 809.971 308.977 809.568C309.157 809.161 309.247 808.735 309.247 808.29C309.247 807.778 309.124 807.336 308.878 806.962C308.636 806.588 308.305 806.299 307.884 806.095C307.462 805.892 306.989 805.79 306.463 805.79C305.904 805.79 305.417 805.906 305 806.138C304.588 806.365 304.268 806.685 304.041 807.097C303.819 807.509 303.707 807.991 303.707 808.545H302.031C302.031 807.693 302.228 806.945 302.621 806.301C303.014 805.657 303.549 805.155 304.226 804.795C304.908 804.436 305.672 804.256 306.52 804.256C307.372 804.256 308.127 804.436 308.786 804.795C309.444 805.155 309.96 805.641 310.334 806.251C310.708 806.862 310.895 807.542 310.895 808.29C310.895 808.825 310.798 809.348 310.604 809.859C310.414 810.366 310.083 810.932 309.609 811.557C309.141 812.177 308.49 812.935 307.656 813.83L304.389 817.324V817.438H311.151V819H301.974ZM318.828 819.199C317.758 819.199 316.847 818.908 316.094 818.325C315.341 817.738 314.766 816.888 314.368 815.776C313.97 814.658 313.771 813.309 313.771 811.727C313.771 810.155 313.97 808.813 314.368 807.7C314.77 806.583 315.348 805.731 316.101 805.143C316.858 804.552 317.768 804.256 318.828 804.256C319.889 804.256 320.795 804.552 321.548 805.143C322.306 805.731 322.884 806.583 323.281 807.7C323.684 808.813 323.885 810.155 323.885 811.727C323.885 813.309 323.686 814.658 323.288 815.776C322.891 816.888 322.315 817.738 321.562 818.325C320.81 818.908 319.898 819.199 318.828 819.199ZM318.828 817.636C319.889 817.636 320.713 817.125 321.3 816.102C321.887 815.08 322.18 813.621 322.18 811.727C322.18 810.468 322.045 809.395 321.776 808.51C321.51 807.625 321.127 806.95 320.625 806.486C320.128 806.022 319.529 805.79 318.828 805.79C317.777 805.79 316.955 806.308 316.364 807.345C315.772 808.377 315.476 809.838 315.476 811.727C315.476 812.987 315.608 814.057 315.874 814.938C316.139 815.818 316.52 816.488 317.017 816.947C317.519 817.407 318.123 817.636 318.828 817.636ZM331.697 804.455V819H329.936V806.301H329.851L326.3 808.659V806.869L329.936 804.455H331.697ZM340.511 804.256C341.108 804.26 341.705 804.374 342.301 804.597C342.898 804.819 343.442 805.188 343.935 805.705C344.427 806.216 344.822 806.914 345.121 807.8C345.419 808.685 345.568 809.795 345.568 811.131C345.568 812.423 345.445 813.571 345.199 814.575C344.957 815.574 344.607 816.417 344.148 817.104C343.693 817.79 343.139 818.311 342.486 818.666C341.837 819.021 341.103 819.199 340.284 819.199C339.47 819.199 338.743 819.038 338.104 818.716C337.469 818.389 336.948 817.937 336.541 817.359C336.139 816.777 335.881 816.102 335.767 815.335H337.5C337.656 816.003 337.966 816.554 338.43 816.99C338.899 817.421 339.517 817.636 340.284 817.636C341.406 817.636 342.292 817.146 342.94 816.166C343.594 815.186 343.92 813.801 343.92 812.011H343.807C343.542 812.409 343.227 812.752 342.862 813.041C342.498 813.33 342.093 813.553 341.648 813.709C341.203 813.865 340.729 813.943 340.227 813.943C339.394 813.943 338.629 813.737 337.933 813.325C337.242 812.909 336.688 812.338 336.271 811.614C335.859 810.884 335.653 810.051 335.653 809.114C335.653 808.223 335.852 807.409 336.25 806.67C336.652 805.927 337.216 805.335 337.94 804.895C338.67 804.455 339.527 804.241 340.511 804.256ZM340.511 805.818C339.915 805.818 339.377 805.967 338.899 806.266C338.426 806.559 338.049 806.957 337.77 807.459C337.495 807.956 337.358 808.508 337.358 809.114C337.358 809.72 337.491 810.271 337.756 810.768C338.026 811.261 338.393 811.654 338.857 811.947C339.325 812.236 339.858 812.381 340.455 812.381C340.904 812.381 341.323 812.293 341.712 812.118C342.1 811.938 342.438 811.694 342.727 811.386C343.021 811.074 343.25 810.721 343.416 810.328C343.582 809.93 343.665 809.516 343.665 809.085C343.665 808.517 343.527 807.984 343.253 807.487C342.983 806.99 342.609 806.588 342.131 806.28C341.657 805.972 341.117 805.818 340.511 805.818ZM356.855 810.946V812.509H346.855V810.946H356.855ZM358.361 819V817.722L363.162 812.466C363.726 811.85 364.19 811.315 364.554 810.861C364.919 810.402 365.189 809.971 365.364 809.568C365.544 809.161 365.634 808.735 365.634 808.29C365.634 807.778 365.511 807.336 365.265 806.962C365.023 806.588 364.692 806.299 364.27 806.095C363.849 805.892 363.375 805.79 362.85 805.79C362.291 805.79 361.803 805.906 361.387 806.138C360.975 806.365 360.655 806.685 360.428 807.097C360.205 807.509 360.094 807.991 360.094 808.545H358.418C358.418 807.693 358.614 806.945 359.007 806.301C359.4 805.657 359.935 805.155 360.613 804.795C361.294 804.436 362.059 804.256 362.907 804.256C363.759 804.256 364.514 804.436 365.172 804.795C365.83 805.155 366.346 805.641 366.721 806.251C367.095 806.862 367.282 807.542 367.282 808.29C367.282 808.825 367.185 809.348 366.99 809.859C366.801 810.366 366.47 810.932 365.996 811.557C365.527 812.177 364.876 812.935 364.043 813.83L360.776 817.324V817.438H367.537V819H358.361ZM375.215 819.199C374.145 819.199 373.233 818.908 372.48 818.325C371.728 817.738 371.152 816.888 370.755 815.776C370.357 814.658 370.158 813.309 370.158 811.727C370.158 810.155 370.357 808.813 370.755 807.7C371.157 806.583 371.735 805.731 372.488 805.143C373.245 804.552 374.154 804.256 375.215 804.256C376.275 804.256 377.182 804.552 377.935 805.143C378.693 805.731 379.27 806.583 379.668 807.7C380.07 808.813 380.272 810.155 380.272 811.727C380.272 813.309 380.073 814.658 379.675 815.776C379.277 816.888 378.702 817.738 377.949 818.325C377.196 818.908 376.285 819.199 375.215 819.199ZM375.215 817.636C376.275 817.636 377.099 817.125 377.686 816.102C378.274 815.08 378.567 813.621 378.567 811.727C378.567 810.468 378.432 809.395 378.162 808.51C377.897 807.625 377.514 806.95 377.012 806.486C376.515 806.022 375.916 805.79 375.215 805.79C374.164 805.79 373.342 806.308 372.75 807.345C372.158 808.377 371.863 809.838 371.863 811.727C371.863 812.987 371.995 814.057 372.26 814.938C372.525 815.818 372.907 816.488 373.404 816.947C373.906 817.407 374.509 817.636 375.215 817.636ZM382.971 819V817.722L387.772 812.466C388.335 811.85 388.799 811.315 389.164 810.861C389.528 810.402 389.798 809.971 389.973 809.568C390.153 809.161 390.243 808.735 390.243 808.29C390.243 807.778 390.12 807.336 389.874 806.962C389.632 806.588 389.301 806.299 388.88 806.095C388.458 805.892 387.985 805.79 387.459 805.79C386.9 805.79 386.413 805.906 385.996 806.138C385.584 806.365 385.265 806.685 385.037 807.097C384.815 807.509 384.703 807.991 384.703 808.545H383.027C383.027 807.693 383.224 806.945 383.617 806.301C384.01 805.657 384.545 805.155 385.222 804.795C385.904 804.436 386.668 804.256 387.516 804.256C388.368 804.256 389.123 804.436 389.782 804.795C390.44 805.155 390.956 805.641 391.33 806.251C391.704 806.862 391.891 807.542 391.891 808.29C391.891 808.825 391.794 809.348 391.6 809.859C391.41 810.366 391.079 810.932 390.605 811.557C390.137 812.177 389.486 812.935 388.652 813.83L385.385 817.324V817.438H392.147V819H382.971ZM399.824 819.199C398.754 819.199 397.843 818.908 397.09 818.325C396.337 817.738 395.762 816.888 395.364 815.776C394.966 814.658 394.767 813.309 394.767 811.727C394.767 810.155 394.966 808.813 395.364 807.7C395.766 806.583 396.344 805.731 397.097 805.143C397.855 804.552 398.764 804.256 399.824 804.256C400.885 804.256 401.792 804.552 402.544 805.143C403.302 805.731 403.88 806.583 404.277 807.7C404.68 808.813 404.881 810.155 404.881 811.727C404.881 813.309 404.682 814.658 404.284 815.776C403.887 816.888 403.311 817.738 402.559 818.325C401.806 818.908 400.894 819.199 399.824 819.199ZM399.824 817.636C400.885 817.636 401.709 817.125 402.296 816.102C402.883 815.08 403.176 813.621 403.176 811.727C403.176 810.468 403.042 809.395 402.772 808.51C402.507 807.625 402.123 806.95 401.621 806.486C401.124 806.022 400.525 805.79 399.824 805.79C398.773 805.79 397.952 806.308 397.36 807.345C396.768 808.377 396.472 809.838 396.472 811.727C396.472 812.987 396.605 814.057 396.87 814.938C397.135 815.818 397.516 816.488 398.013 816.947C398.515 817.407 399.119 817.636 399.824 817.636Z" fill="#978E8B"/>
<path d="M129.938 182V166H139.594V167.719H131.875V173.125H139.094V174.844H131.875V180.281H139.719V182H129.938ZM144.023 166L148.148 172.656H148.273L152.398 166H154.68L149.648 174L154.68 182H152.398L148.273 175.469H148.148L144.023 182H141.742L146.898 174L141.742 166H144.023ZM157.201 182V166H159.139V173.125H167.67V166H169.607V182H167.67V174.844H159.139V182H157.201ZM175.424 166V182H173.486V166H175.424ZM179.309 182V166H184.902C186.017 166 186.936 166.193 187.66 166.578C188.384 166.958 188.923 167.471 189.277 168.117C189.632 168.758 189.809 169.469 189.809 170.25C189.809 170.937 189.686 171.505 189.441 171.953C189.202 172.401 188.884 172.755 188.488 173.016C188.098 173.276 187.673 173.469 187.215 173.594V173.75C187.704 173.781 188.197 173.953 188.691 174.266C189.186 174.578 189.6 175.026 189.934 175.609C190.267 176.193 190.434 176.906 190.434 177.75C190.434 178.552 190.251 179.273 189.887 179.914C189.522 180.555 188.947 181.062 188.16 181.437C187.374 181.812 186.35 182 185.09 182H179.309ZM181.246 180.281H185.09C186.355 180.281 187.254 180.036 187.785 179.547C188.322 179.052 188.59 178.453 188.59 177.75C188.59 177.208 188.452 176.708 188.176 176.25C187.9 175.786 187.507 175.417 186.996 175.141C186.486 174.859 185.882 174.719 185.184 174.719H181.246V180.281ZM181.246 173.031H184.84C185.423 173.031 185.949 172.917 186.418 172.687C186.892 172.458 187.267 172.135 187.543 171.719C187.824 171.302 187.965 170.812 187.965 170.25C187.965 169.547 187.72 168.951 187.23 168.461C186.741 167.966 185.965 167.719 184.902 167.719H181.246V173.031ZM195.555 166V182H193.617V166H195.555ZM198.564 167.719V166H210.564V167.719H205.533V182H203.596V167.719H198.564ZM215.492 166V182H213.555V166H215.492ZM232.877 174C232.877 175.687 232.572 177.146 231.963 178.375C231.354 179.604 230.518 180.552 229.455 181.219C228.393 181.885 227.179 182.219 225.814 182.219C224.45 182.219 223.236 181.885 222.174 181.219C221.111 180.552 220.275 179.604 219.666 178.375C219.057 177.146 218.752 175.687 218.752 174C218.752 172.312 219.057 170.854 219.666 169.625C220.275 168.396 221.111 167.448 222.174 166.781C223.236 166.115 224.45 165.781 225.814 165.781C227.179 165.781 228.393 166.115 229.455 166.781C230.518 167.448 231.354 168.396 231.963 169.625C232.572 170.854 232.877 172.312 232.877 174ZM231.002 174C231.002 172.615 230.77 171.445 230.307 170.492C229.848 169.539 229.226 168.818 228.439 168.328C227.658 167.839 226.783 167.594 225.814 167.594C224.846 167.594 223.968 167.839 223.182 168.328C222.4 168.818 221.778 169.539 221.314 170.492C220.856 171.445 220.627 172.615 220.627 174C220.627 175.385 220.856 176.555 221.314 177.508C221.778 178.461 222.4 179.182 223.182 179.672C223.968 180.161 224.846 180.406 225.814 180.406C226.783 180.406 227.658 180.161 228.439 179.672C229.226 179.182 229.848 178.461 230.307 177.508C230.77 176.555 231.002 175.385 231.002 174ZM248.822 166V182H246.947L238.229 169.437H238.072V182H236.135V166H238.01L246.76 178.594H246.916V166H248.822ZM258.012 167.719V166H270.012V167.719H264.98V182H263.043V167.719H258.012ZM273.002 182V166H278.408C279.658 166 280.684 166.214 281.486 166.641C282.288 167.062 282.882 167.643 283.268 168.383C283.653 169.122 283.846 169.964 283.846 170.906C283.846 171.849 283.653 172.685 283.268 173.414C282.882 174.143 282.291 174.716 281.494 175.133C280.697 175.544 279.679 175.75 278.439 175.75H274.064V174H278.377C279.231 174 279.919 173.875 280.439 173.625C280.965 173.375 281.346 173.021 281.58 172.562C281.82 172.099 281.939 171.547 281.939 170.906C281.939 170.266 281.82 169.706 281.58 169.227C281.34 168.747 280.958 168.378 280.432 168.117C279.906 167.852 279.21 167.719 278.346 167.719H274.939V182H273.002ZM280.533 174.812L284.471 182H282.221L278.346 174.812H280.533ZM287.73 182H285.699L291.574 166H293.574L299.449 182H297.418L292.637 168.531H292.512L287.73 182ZM288.48 175.75H296.668V177.469H288.48V175.75ZM314.629 166V182H312.754L304.035 169.437H303.879V182H301.941V166H303.816L312.566 178.594H312.723V166H314.629ZM327.256 170C327.162 169.208 326.782 168.594 326.115 168.156C325.449 167.719 324.631 167.5 323.662 167.5C322.954 167.5 322.334 167.615 321.803 167.844C321.277 168.073 320.865 168.388 320.568 168.789C320.277 169.19 320.131 169.646 320.131 170.156C320.131 170.583 320.232 170.951 320.436 171.258C320.644 171.56 320.91 171.812 321.232 172.016C321.555 172.214 321.894 172.378 322.248 172.508C322.602 172.633 322.928 172.734 323.225 172.812L324.85 173.25C325.266 173.359 325.73 173.51 326.24 173.703C326.756 173.896 327.248 174.159 327.717 174.492C328.191 174.82 328.581 175.242 328.889 175.758C329.196 176.273 329.35 176.906 329.35 177.656C329.35 178.521 329.123 179.302 328.67 180C328.222 180.698 327.566 181.253 326.701 181.664C325.842 182.076 324.798 182.281 323.568 182.281C322.423 182.281 321.43 182.096 320.592 181.727C319.758 181.357 319.102 180.841 318.623 180.18C318.149 179.518 317.881 178.75 317.818 177.875H319.818C319.87 178.479 320.074 178.979 320.428 179.375C320.787 179.766 321.24 180.057 321.787 180.25C322.339 180.437 322.933 180.531 323.568 180.531C324.308 180.531 324.972 180.411 325.561 180.172C326.149 179.927 326.615 179.589 326.959 179.156C327.303 178.719 327.475 178.208 327.475 177.625C327.475 177.094 327.326 176.661 327.029 176.328C326.732 175.995 326.342 175.724 325.857 175.516C325.373 175.307 324.85 175.125 324.287 174.969L322.318 174.406C321.068 174.047 320.079 173.534 319.35 172.867C318.62 172.201 318.256 171.328 318.256 170.25C318.256 169.354 318.498 168.573 318.982 167.906C319.472 167.234 320.128 166.714 320.951 166.344C321.779 165.969 322.704 165.781 323.725 165.781C324.756 165.781 325.673 165.966 326.475 166.336C327.277 166.701 327.912 167.201 328.381 167.836C328.855 168.471 329.105 169.193 329.131 170H327.256ZM332.535 182V166H334.473V180.281H341.91V182H332.535ZM346.576 182H344.545L350.42 166H352.42L358.295 182H356.264L351.482 168.531H351.357L346.576 182ZM347.326 175.75H355.514V177.469H347.326V175.75ZM358.043 167.719V166H370.043V167.719H365.012V182H363.074V167.719H358.043ZM374.971 166V182H373.033V166H374.971ZM392.355 174C392.355 175.687 392.051 177.146 391.441 178.375C390.832 179.604 389.996 180.552 388.934 181.219C387.871 181.885 386.658 182.219 385.293 182.219C383.928 182.219 382.715 181.885 381.652 181.219C380.59 180.552 379.754 179.604 379.145 178.375C378.535 177.146 378.23 175.687 378.23 174C378.23 172.312 378.535 170.854 379.145 169.625C379.754 168.396 380.59 167.448 381.652 166.781C382.715 166.115 383.928 165.781 385.293 165.781C386.658 165.781 387.871 166.115 388.934 166.781C389.996 167.448 390.832 168.396 391.441 169.625C392.051 170.854 392.355 172.312 392.355 174ZM390.48 174C390.48 172.615 390.249 171.445 389.785 170.492C389.327 169.539 388.704 168.818 387.918 168.328C387.137 167.839 386.262 167.594 385.293 167.594C384.324 167.594 383.447 167.839 382.66 168.328C381.879 168.818 381.257 169.539 380.793 170.492C380.335 171.445 380.105 172.615 380.105 174C380.105 175.385 380.335 176.555 380.793 177.508C381.257 178.461 381.879 179.182 382.66 179.672C383.447 180.161 384.324 180.406 385.293 180.406C386.262 180.406 387.137 180.161 387.918 179.672C388.704 179.182 389.327 178.461 389.785 177.508C390.249 176.555 390.48 175.385 390.48 174ZM408.301 166V182H406.426L397.707 169.437H397.551V182H395.613V166H397.488L406.238 178.594H406.395V166H408.301ZM419.459 176.406C419.074 176.406 418.743 176.268 418.467 175.992C418.191 175.716 418.053 175.385 418.053 175C418.053 174.615 418.191 174.284 418.467 174.008C418.743 173.732 419.074 173.594 419.459 173.594C419.844 173.594 420.175 173.732 420.451 174.008C420.727 174.284 420.865 174.615 420.865 175C420.865 175.255 420.8 175.49 420.67 175.703C420.545 175.917 420.376 176.089 420.162 176.219C419.954 176.344 419.719 176.406 419.459 176.406ZM430.611 182V166H440.268V167.719H432.549V173.125H439.768V174.844H432.549V180.281H440.393V182H430.611ZM452.51 170C452.416 169.208 452.036 168.594 451.369 168.156C450.702 167.719 449.885 167.5 448.916 167.5C448.208 167.5 447.588 167.615 447.057 167.844C446.531 168.073 446.119 168.388 445.822 168.789C445.531 169.19 445.385 169.646 445.385 170.156C445.385 170.583 445.486 170.951 445.689 171.258C445.898 171.56 446.163 171.812 446.486 172.016C446.809 172.214 447.148 172.378 447.502 172.508C447.856 172.633 448.182 172.734 448.479 172.812L450.104 173.25C450.52 173.359 450.984 173.51 451.494 173.703C452.01 173.896 452.502 174.159 452.971 174.492C453.445 174.82 453.835 175.242 454.143 175.758C454.45 176.273 454.604 176.906 454.604 177.656C454.604 178.521 454.377 179.302 453.924 180C453.476 180.698 452.82 181.253 451.955 181.664C451.096 182.076 450.051 182.281 448.822 182.281C447.676 182.281 446.684 182.096 445.846 181.727C445.012 181.357 444.356 180.841 443.877 180.18C443.403 179.518 443.135 178.75 443.072 177.875H445.072C445.124 178.479 445.327 178.979 445.682 179.375C446.041 179.766 446.494 180.057 447.041 180.25C447.593 180.437 448.187 180.531 448.822 180.531C449.562 180.531 450.226 180.411 450.814 180.172C451.403 179.927 451.869 179.589 452.213 179.156C452.557 178.719 452.729 178.208 452.729 177.625C452.729 177.094 452.58 176.661 452.283 176.328C451.986 175.995 451.596 175.724 451.111 175.516C450.627 175.307 450.104 175.125 449.541 174.969L447.572 174.406C446.322 174.047 445.333 173.534 444.604 172.867C443.874 172.201 443.51 171.328 443.51 170.25C443.51 169.354 443.752 168.573 444.236 167.906C444.726 167.234 445.382 166.714 446.205 166.344C447.033 165.969 447.958 165.781 448.979 165.781C450.01 165.781 450.926 165.966 451.729 166.336C452.531 166.701 453.166 167.201 453.635 167.836C454.109 168.471 454.359 169.193 454.385 170H452.51ZM471.211 181L464.211 174L471.211 167L472.414 168.187L467.461 173.141H486.117L481.164 168.187L482.367 167L489.367 174L482.367 181L481.164 179.797L486.117 174.859H467.461L472.414 179.797L471.211 181ZM499.662 182V166H509.318V167.719H501.6V173.125H508.818V174.844H501.6V180.281H509.443V182H499.662ZM525.498 166V182H523.623L514.904 169.437H514.748V182H512.811V166H514.686L523.436 178.594H523.592V166H525.498Z" fill="#B85F78"/>
<path d="M131.477 229.261V223.636H170.75V229.261H154.284V276H147.943V229.261H131.477ZM199.124 259.943V236.727H205.158V276H199.124V269.352H198.715C197.795 271.347 196.363 273.043 194.42 274.44C192.477 275.821 190.022 276.511 187.056 276.511C184.602 276.511 182.42 275.974 180.511 274.901C178.602 273.81 177.102 272.173 176.011 269.991C174.92 267.793 174.374 265.023 174.374 261.682V236.727H180.408V261.273C180.408 264.136 181.21 266.42 182.812 268.125C184.431 269.83 186.494 270.682 188.999 270.682C190.499 270.682 192.025 270.298 193.576 269.531C195.144 268.764 196.457 267.588 197.513 266.003C198.587 264.418 199.124 262.398 199.124 259.943ZM232.165 276.818C228.483 276.818 225.313 275.949 222.653 274.21C219.994 272.472 217.949 270.077 216.517 267.026C215.085 263.974 214.369 260.489 214.369 256.568C214.369 252.58 215.102 249.06 216.568 246.009C218.051 242.94 220.114 240.545 222.756 238.824C225.415 237.085 228.517 236.216 232.062 236.216C234.824 236.216 237.312 236.727 239.528 237.75C241.744 238.773 243.56 240.205 244.974 242.045C246.389 243.886 247.267 246.034 247.608 248.489H241.574C241.114 246.699 240.091 245.114 238.506 243.733C236.938 242.335 234.824 241.636 232.165 241.636C229.813 241.636 227.75 242.25 225.977 243.477C224.222 244.687 222.849 246.401 221.861 248.616C220.889 250.815 220.403 253.398 220.403 256.364C220.403 259.398 220.881 262.04 221.835 264.29C222.807 266.54 224.17 268.287 225.926 269.531C227.699 270.776 229.778 271.398 232.165 271.398C233.733 271.398 235.156 271.125 236.435 270.58C237.713 270.034 238.795 269.25 239.682 268.227C240.568 267.205 241.199 265.977 241.574 264.545H247.608C247.267 266.864 246.423 268.952 245.077 270.81C243.747 272.651 241.983 274.116 239.784 275.207C237.602 276.281 235.063 276.818 232.165 276.818ZM284.247 245.523L278.827 247.057C278.486 246.153 277.983 245.276 277.318 244.423C276.67 243.554 275.784 242.838 274.659 242.276C273.534 241.713 272.094 241.432 270.338 241.432C267.935 241.432 265.932 241.986 264.33 243.094C262.744 244.185 261.952 245.574 261.952 247.261C261.952 248.761 262.497 249.946 263.588 250.815C264.679 251.685 266.384 252.409 268.702 252.989L274.531 254.42C278.043 255.273 280.659 256.577 282.381 258.332C284.102 260.071 284.963 262.312 284.963 265.057C284.963 267.307 284.315 269.318 283.02 271.091C281.741 272.864 279.952 274.261 277.651 275.284C275.349 276.307 272.673 276.818 269.622 276.818C265.616 276.818 262.301 275.949 259.676 274.21C257.051 272.472 255.389 269.932 254.69 266.591L260.418 265.159C260.963 267.273 261.994 268.858 263.511 269.915C265.045 270.972 267.048 271.5 269.52 271.5C272.332 271.5 274.565 270.903 276.219 269.71C277.889 268.5 278.724 267.051 278.724 265.364C278.724 264 278.247 262.858 277.293 261.938C276.338 261 274.872 260.301 272.895 259.841L266.349 258.307C262.753 257.455 260.111 256.134 258.423 254.344C256.753 252.537 255.918 250.278 255.918 247.568C255.918 245.352 256.54 243.392 257.784 241.688C259.045 239.983 260.759 238.645 262.923 237.673C265.105 236.702 267.577 236.216 270.338 236.216C274.224 236.216 277.276 237.068 279.491 238.773C281.724 240.477 283.31 242.727 284.247 245.523ZM310.001 276.818C306.455 276.818 303.344 275.974 300.668 274.287C298.009 272.599 295.93 270.239 294.43 267.205C292.947 264.17 292.205 260.625 292.205 256.568C292.205 252.477 292.947 248.906 294.43 245.855C295.93 242.804 298.009 240.435 300.668 238.747C303.344 237.06 306.455 236.216 310.001 236.216C313.546 236.216 316.648 237.06 319.308 238.747C321.984 240.435 324.063 242.804 325.546 245.855C327.046 248.906 327.796 252.477 327.796 256.568C327.796 260.625 327.046 264.17 325.546 267.205C324.063 270.239 321.984 272.599 319.308 274.287C316.648 275.974 313.546 276.818 310.001 276.818ZM310.001 271.398C312.694 271.398 314.91 270.707 316.648 269.327C318.387 267.946 319.674 266.131 320.509 263.881C321.344 261.631 321.762 259.193 321.762 256.568C321.762 253.943 321.344 251.497 320.509 249.23C319.674 246.963 318.387 245.131 316.648 243.733C314.91 242.335 312.694 241.636 310.001 241.636C307.308 241.636 305.092 242.335 303.353 243.733C301.614 245.131 300.327 246.963 299.492 249.23C298.657 251.497 298.239 253.943 298.239 256.568C298.239 259.193 298.657 261.631 299.492 263.881C300.327 266.131 301.614 267.946 303.353 269.327C305.092 270.707 307.308 271.398 310.001 271.398ZM343.041 252.375V276H337.007V236.727H342.837V242.864H343.348C344.268 240.869 345.666 239.267 347.541 238.057C349.416 236.83 351.837 236.216 354.803 236.216C357.462 236.216 359.788 236.761 361.783 237.852C363.777 238.926 365.328 240.562 366.436 242.761C367.544 244.943 368.098 247.705 368.098 251.045V276H362.064V251.455C362.064 248.369 361.263 245.966 359.661 244.244C358.058 242.506 355.859 241.636 353.064 241.636C351.138 241.636 349.416 242.054 347.899 242.889C346.399 243.724 345.214 244.943 344.345 246.545C343.476 248.148 343.041 250.091 343.041 252.375Z" fill="#33303A"/>
<path d="M134.341 303.636H141.909L159.705 347.102H160.318L178.114 303.636H185.682V356H179.75V316.216H179.239L162.875 356H157.148L140.784 316.216H140.273V356H134.341V303.636ZM222.327 339.943V316.727H228.362V356H222.327V349.352H221.918C220.998 351.347 219.566 353.043 217.623 354.44C215.68 355.821 213.225 356.511 210.259 356.511C207.805 356.511 205.623 355.974 203.714 354.901C201.805 353.81 200.305 352.173 199.214 349.991C198.123 347.793 197.577 345.023 197.577 341.682V316.727H203.612V341.273C203.612 344.136 204.413 346.42 206.015 348.125C207.634 349.83 209.697 350.682 212.202 350.682C213.702 350.682 215.228 350.298 216.779 349.531C218.347 348.764 219.66 347.588 220.717 346.003C221.79 344.418 222.327 342.398 222.327 339.943ZM267.232 325.523L261.811 327.057C261.47 326.153 260.967 325.276 260.303 324.423C259.655 323.554 258.768 322.838 257.643 322.276C256.518 321.713 255.078 321.432 253.322 321.432C250.919 321.432 248.916 321.986 247.314 323.094C245.729 324.185 244.936 325.574 244.936 327.261C244.936 328.761 245.482 329.946 246.572 330.815C247.663 331.685 249.368 332.409 251.686 332.989L257.516 334.42C261.027 335.273 263.643 336.577 265.365 338.332C267.087 340.071 267.947 342.312 267.947 345.057C267.947 347.307 267.3 349.318 266.004 351.091C264.726 352.864 262.936 354.261 260.635 355.284C258.334 356.307 255.658 356.818 252.607 356.818C248.601 356.818 245.286 355.949 242.661 354.21C240.036 352.472 238.374 349.932 237.675 346.591L243.402 345.159C243.947 347.273 244.979 348.858 246.496 349.915C248.03 350.972 250.033 351.5 252.504 351.5C255.317 351.5 257.55 350.903 259.203 349.71C260.874 348.5 261.709 347.051 261.709 345.364C261.709 344 261.232 342.858 260.277 341.938C259.322 341 257.857 340.301 255.879 339.841L249.334 338.307C245.737 337.455 243.095 336.134 241.408 334.344C239.737 332.537 238.902 330.278 238.902 327.568C238.902 325.352 239.524 323.392 240.768 321.688C242.03 319.983 243.743 318.645 245.908 317.673C248.089 316.702 250.561 316.216 253.322 316.216C257.209 316.216 260.26 317.068 262.476 318.773C264.709 320.477 266.294 322.727 267.232 325.523ZM293.496 356.818C289.712 356.818 286.448 355.983 283.704 354.312C280.977 352.625 278.871 350.273 277.388 347.256C275.923 344.222 275.19 340.693 275.19 336.67C275.19 332.648 275.923 329.102 277.388 326.034C278.871 322.949 280.934 320.545 283.576 318.824C286.235 317.085 289.337 316.216 292.883 316.216C294.928 316.216 296.948 316.557 298.942 317.239C300.937 317.92 302.752 319.028 304.388 320.562C306.025 322.08 307.329 324.091 308.3 326.597C309.272 329.102 309.758 332.187 309.758 335.852V338.409H279.485V333.193H303.621C303.621 330.977 303.178 329 302.292 327.261C301.423 325.523 300.178 324.151 298.559 323.145C296.957 322.139 295.065 321.636 292.883 321.636C290.479 321.636 288.4 322.233 286.644 323.426C284.906 324.602 283.567 326.136 282.63 328.028C281.692 329.92 281.224 331.949 281.224 334.114V337.591C281.224 340.557 281.735 343.071 282.758 345.134C283.798 347.179 285.238 348.739 287.079 349.812C288.92 350.869 291.059 351.398 293.496 351.398C295.082 351.398 296.513 351.176 297.792 350.733C299.087 350.273 300.204 349.591 301.141 348.688C302.079 347.767 302.803 346.625 303.315 345.261L309.144 346.898C308.531 348.875 307.499 350.614 306.05 352.114C304.602 353.597 302.812 354.756 300.681 355.591C298.55 356.409 296.156 356.818 293.496 356.818ZM343.687 339.943V316.727H349.721V356H343.687V349.352H343.278C342.357 351.347 340.925 353.043 338.982 354.44C337.039 355.821 334.585 356.511 331.619 356.511C329.164 356.511 326.982 355.974 325.073 354.901C323.164 353.81 321.664 352.173 320.573 349.991C319.482 347.793 318.937 345.023 318.937 341.682V316.727H324.971V341.273C324.971 344.136 325.772 346.42 327.374 348.125C328.994 349.83 331.056 350.682 333.562 350.682C335.062 350.682 336.587 350.298 338.138 349.531C339.707 348.764 341.019 347.588 342.076 346.003C343.15 344.418 343.687 342.398 343.687 339.943ZM360.773 356V316.727H366.602V322.864H367.114C367.932 320.767 369.253 319.139 371.077 317.98C372.901 316.804 375.091 316.216 377.648 316.216C380.239 316.216 382.395 316.804 384.116 317.98C385.855 319.139 387.21 320.767 388.182 322.864H388.591C389.597 320.835 391.105 319.224 393.116 318.031C395.128 316.821 397.54 316.216 400.352 316.216C403.864 316.216 406.736 317.315 408.969 319.514C411.202 321.696 412.318 325.097 412.318 329.716V356H406.284V329.716C406.284 326.818 405.491 324.747 403.906 323.503C402.321 322.259 400.455 321.636 398.307 321.636C395.545 321.636 393.406 322.472 391.889 324.142C390.372 325.795 389.614 327.892 389.614 330.432V356H383.477V329.102C383.477 326.869 382.753 325.071 381.304 323.707C379.855 322.327 377.989 321.636 375.705 321.636C374.136 321.636 372.67 322.054 371.307 322.889C369.96 323.724 368.869 324.884 368.034 326.366C367.216 327.832 366.807 329.528 366.807 331.455V356H360.773ZM459.555 356.818C456.01 356.818 452.899 355.974 450.223 354.287C447.564 352.599 445.484 350.239 443.984 347.205C442.501 344.17 441.76 340.625 441.76 336.568C441.76 332.477 442.501 328.906 443.984 325.855C445.484 322.804 447.564 320.435 450.223 318.747C452.899 317.06 456.01 316.216 459.555 316.216C463.101 316.216 466.203 317.06 468.862 318.747C471.538 320.435 473.618 322.804 475.101 325.855C476.601 328.906 477.351 332.477 477.351 336.568C477.351 340.625 476.601 344.17 475.101 347.205C473.618 350.239 471.538 352.599 468.862 354.287C466.203 355.974 463.101 356.818 459.555 356.818ZM459.555 351.398C462.249 351.398 464.464 350.707 466.203 349.327C467.942 347.946 469.229 346.131 470.064 343.881C470.899 341.631 471.317 339.193 471.317 336.568C471.317 333.943 470.899 331.497 470.064 329.23C469.229 326.963 467.942 325.131 466.203 323.733C464.464 322.335 462.249 321.636 459.555 321.636C456.862 321.636 454.646 322.335 452.908 323.733C451.169 325.131 449.882 326.963 449.047 329.23C448.212 331.497 447.794 333.943 447.794 336.568C447.794 339.193 448.212 341.631 449.047 343.881C449.882 346.131 451.169 347.946 452.908 349.327C454.646 350.707 456.862 351.398 459.555 351.398ZM504.05 316.727V321.841H482.88V316.727H504.05ZM489.221 356V311.307C489.221 309.057 489.749 307.182 490.806 305.682C491.863 304.182 493.235 303.057 494.923 302.307C496.61 301.557 498.391 301.182 500.266 301.182C501.749 301.182 502.96 301.301 503.897 301.54C504.835 301.778 505.533 302 505.994 302.205L504.255 307.42C503.948 307.318 503.522 307.19 502.977 307.037C502.448 306.884 501.749 306.807 500.88 306.807C498.886 306.807 497.445 307.31 496.559 308.315C495.69 309.321 495.255 310.795 495.255 312.739V356H489.221ZM535.723 356H529.075L548.303 303.636H554.848L574.075 356H567.428L551.78 311.92H551.371L535.723 356ZM538.178 335.545H564.973V341.17H538.178V335.545ZM581.413 356V316.727H587.243V322.659H587.652C588.368 320.716 589.663 319.139 591.538 317.929C593.413 316.719 595.527 316.114 597.879 316.114C598.322 316.114 598.876 316.122 599.541 316.139C600.206 316.156 600.709 316.182 601.05 316.216V322.352C600.845 322.301 600.376 322.224 599.643 322.122C598.928 322.003 598.169 321.943 597.368 321.943C595.459 321.943 593.754 322.344 592.254 323.145C590.771 323.929 589.595 325.02 588.726 326.418C587.874 327.798 587.447 329.375 587.447 331.148V356H581.413ZM627.743 316.727V321.841H607.391V316.727H627.743ZM613.322 307.318H619.357V344.75C619.357 346.455 619.604 347.733 620.098 348.585C620.609 349.42 621.257 349.983 622.041 350.273C622.842 350.545 623.686 350.682 624.572 350.682C625.237 350.682 625.783 350.648 626.209 350.58C626.635 350.494 626.976 350.426 627.232 350.375L628.459 355.795C628.05 355.949 627.479 356.102 626.746 356.256C626.013 356.426 625.084 356.511 623.959 356.511C622.254 356.511 620.584 356.145 618.947 355.412C617.328 354.679 615.982 353.562 614.908 352.062C613.851 350.562 613.322 348.67 613.322 346.386V307.318Z" fill="#33303A"/>
</g>
<defs>
<clipPath id="clip0_1326_16">
<rect width="1200" height="900" fill="white"/>
</clipPath>
</defs>
</svg>
